SplineFontDB: 3.2
FontName: handy0
FullName: Handy0
FamilyName: handy0
Weight: Regular
Copyright: Copyright (c) 2024, Dr Anirban Mitra OFL 1.1
UComments: "2024-7-8: Created with FontForge (http://fontforge.org)"
Version: 0.1.0 Jul 09 2024
ItalicAngle: 0
UnderlinePosition: -204
UnderlineWidth: 102
Ascent: 1638
Descent: 410
InvalidEm: 0
sfntRevision: 0x00010000
LayerCount: 2
Layer: 0 1 "Back" 1
Layer: 1 1 "Fore" 0
XUID: [1021 557 1747282856 6906800]
FSType: 0
OS2Version: 0
OS2_WeightWidthSlopeOnly: 0
OS2_UseTypoMetrics: 1
CreationTime: 1720421314
ModificationTime: 1720496249
PfmFamily: 17
TTFWeight: 400
TTFWidth: 5
LineGap: 377
VLineGap: 0
OS2TypoAscent: 0
OS2TypoAOffset: 1
OS2TypoDescent: 0
OS2TypoDOffset: 1
OS2TypoLinegap: 377
OS2WinAscent: 0
OS2WinAOffset: 1
OS2WinDescent: 0
OS2WinDOffset: 1
HheadAscent: 0
HheadAOffset: 1
HheadDescent: 0
HheadDOffset: 1
OS2Vendor: 'PfEd'
MarkAttachClasses: 1
DEI: 91125

StartChar: uni0000
Encoding: 0 0 0
GlifName: uni0000
Width: 663
Flags: W
LayerCount: 2
Fore
SplineSet
527 1239 m 1,0,-1
 117 1239 l 1,1,-1
 117 281 l 1,2,-1
 527 281 l 1,3,-1
 527 1239 l 1,0,-1
66 1341 m 2,4,-1
 578 1341 l 2,5,6
 599 1341 599 1341 614 1326 c 128,-1,7
 629 1311 629 1311 629 1290 c 2,8,-1
 629 229 l 2,9,10
 629 208 629 208 614 193 c 128,-1,11
 599 178 599 178 578 178 c 2,12,-1
 66 178 l 2,13,14
 43 178 43 178 29 193 c 128,-1,15
 15 208 15 208 15 229 c 1,16,-1
 15 1290 l 1,17,18
 15 1311 15 1311 29 1326 c 128,-1,19
 43 1341 43 1341 66 1341 c 2,4,-1
EndSplineSet
Validated: 1
EndChar

StartChar: exclam
Encoding: 33 33 3
GlifName: exclam
Width: 822
Flags: W
LayerCount: 2
Fore
SplineSet
485 256 m 2,0,-1
 580 270 l 1,1,2
 582 262 582 262 586 254 c 0,3,4
 596 236 596 236 596 209 c 128,-1,5
 596 182 596 182 568 129 c 128,-1,6
 540 76 540 76 513 76 c 128,-1,7
 486 76 486 76 463 134 c 128,-1,8
 440 192 440 192 440 222 c 2,9,-1
 440 254 l 2,10,11
 440 258 440 258 443 260.5 c 128,-1,12
 446 263 446 263 450 261 c 0,13,14
 458 256 458 256 485 256 c 2,0,-1
667 728 m 2,15,-1
 667 587 l 1,16,17
 668 536 668 536 668 492 c 0,18,19
 668 406 668 406 575 365 c 0,20,21
 567 362 567 362 542 348 c 0,22,23
 503 327 503 327 475 327 c 0,24,25
 468 326 468 326 461 328 c 0,26,27
 460 328 460 328 447 330 c 0,28,29
 438 332 438 332 435 333 c 128,-1,30
 432 334 432 334 426.5 335.5 c 128,-1,31
 421 337 421 337 420 339 c 128,-1,32
 419 341 419 341 416 344 c 0,33,34
 414 348 414 348 414 352 c 0,35,36
 412 366 412 366 412 377 c 2,37,-1
 412 406 l 1,38,-1
 420 410 l 1,39,-1
 434 430 l 2,40,41
 445 447 445 447 466 467 c 0,42,43
 507 507 507 507 518 545 c 0,44,45
 546 642 546 642 546 681 c 0,46,47
 546 694 546 694 543 700 c 1,48,49
 544 712 544 712 544 725 c 0,50,51
 544 725 544 725 544 728 c 0,52,53
 544 838 544 838 458 1036 c 0,54,55
 387 1199 387 1199 387 1262 c 1,56,57
 379 1291 379 1291 403 1291 c 0,58,59
 404 1291 404 1291 413.5 1291 c 128,-1,60
 423 1291 423 1291 465 1274 c 1,61,62
 532 1257 532 1257 575 1147 c 0,63,64
 621 1037 621 1037 625.5 1005.5 c 128,-1,65
 630 974 630 974 637.5 954 c 128,-1,66
 645 934 645 934 645 926 c 2,67,-1
 653 885 l 1,68,69
 653 858 653 858 661.5 820.5 c 128,-1,70
 670 783 670 783 668.5 769.5 c 128,-1,71
 667 756 667 756 667 728 c 2,15,-1
EndSplineSet
EndChar

StartChar: quotedbl
Encoding: 34 34 4
GlifName: quotedbl
Width: 567
Flags: W
LayerCount: 2
Fore
SplineSet
187 1348 m 5,0,-1
 187 1339 l 6,1,2
 187 1336 187 1336 173 1323.5 c 132,-1,3
 159 1311 159 1311 155 1311 c 4,4,5
 143 1311 143 1311 135.5 1341.5 c 132,-1,6
 128 1372 128 1372 126.5 1377 c 132,-1,7
 125 1382 125 1382 124 1391 c 132,-1,8
 123 1400 123 1400 124 1406 c 4,9,10
 127 1424 127 1424 134 1434 c 4,11,12
 154 1464 154 1464 179 1464 c 4,13,14
 202 1464 202 1464 226 1443 c 4,15,16
 269 1405 269 1405 269 1364 c 4,17,18
 269 1354 269 1354 274 1330 c 4,19,20
 280 1287 280 1287 283 1269 c 4,21,22
 283 1267 283 1267 282 1264 c 4,23,24
 279 1246 279 1246 280 1237 c 4,25,26
 283 1218 283 1218 278 1213 c 4,27,28
 277 1212 277 1212 277 1200 c 4,29,-1
 248 1163 l 4,30,31
 245 1173 l 5,32,33
 245 1193 245 1193 250.5 1214 c 132,-1,34
 256 1235 256 1235 250.5 1258 c 132,-1,35
 245 1281 245 1281 241 1295 c 132,-1,36
 237 1309 237 1309 231 1318.5 c 132,-1,37
 225 1328 225 1328 221 1332.5 c 132,-1,38
 217 1337 217 1337 209 1343.5 c 132,-1,39
 201 1350 201 1350 199 1352 c 6,40,-1
 187 1348 l 5,0,-1
478 1253 m 4,41,42
 478 1183 478 1183 453 1180 c 4,43,44
 444 1179 444 1179 434 1179 c 5,45,46
 447 1185 447 1185 450 1209.5 c 132,-1,47
 453 1234 453 1234 447.5 1257.5 c 132,-1,48
 442 1281 442 1281 438 1295 c 132,-1,49
 434 1309 434 1309 428 1318.5 c 132,-1,50
 422 1328 422 1328 418 1332.5 c 132,-1,51
 414 1337 414 1337 406 1343.5 c 132,-1,52
 398 1350 398 1350 396 1352 c 6,53,-1
 384 1348 l 5,54,-1
 384 1339 l 6,55,56
 384 1336 384 1336 370 1323.5 c 132,-1,57
 356 1311 356 1311 352 1311 c 132,-1,58
 348 1311 348 1311 340 1326 c 132,-1,59
 332 1341 332 1341 330.5 1346.5 c 132,-1,60
 329 1352 329 1352 326.5 1362 c 132,-1,61
 324 1372 324 1372 322.5 1377 c 132,-1,62
 321 1382 321 1382 320 1391 c 132,-1,63
 319 1400 319 1400 320 1406 c 4,64,65
 323 1424 323 1424 330 1434 c 4,66,67
 350 1464 350 1464 376 1464 c 132,-1,68
 402 1464 402 1464 423 1443 c 4,69,70
 457 1410 457 1410 466 1364 c 4,71,72
 469 1347 469 1347 472 1330 c 4,73,74
 479.142578125 1283 479.142578125 1283 479.142578125 1270.30566406 c 4,75,76
 479.142578125 1253.38085938 479.142578125 1253.38085938 478 1253 c 4,41,42
EndSplineSet
EndChar

StartChar: numbersign
Encoding: 35 35 5
GlifName: numbersign
Width: 1410
Flags: W
LayerCount: 2
Fore
SplineSet
614 371 m 1,0,1
 491 342 491 342 406 248 c 1,2,-1
 397 260 l 1,3,-1
 438 346 l 1,4,-1
 508 420 l 1,5,-1
 606 465 l 1,6,-1
 646 465 l 1,7,8
 646 489 646 489 646 533 c 128,-1,9
 646 577 646 577 636 647 c 1,10,11
 615 641 615 641 614 641 c 0,12,13
 491 612 491 612 406 518 c 1,14,-1
 397 530 l 1,15,-1
 438 616 l 1,16,-1
 508 690 l 1,17,-1
 606 735 l 1,18,-1
 616 735 l 1,19,20
 616 736 616 736 616 737 c 0,21,22
 586 863 586 863 494 946 c 1,23,-1
 506 954 l 1,24,-1
 592 913 l 1,25,-1
 666 844 l 1,26,-1
 711 745 l 1,27,-1
 711 731 l 1,28,-1
 950 731 l 1,29,-1
 999 731 l 1,30,31
 998 735 998 735 997 737 c 0,32,33
 967 861 967 861 874 946 c 1,34,-1
 887 954 l 1,35,-1
 973 913 l 1,36,-1
 1047 844 l 1,37,-1
 1092 745 l 1,38,-1
 1092 721 l 1,39,-1
 1130 715 l 1,40,-1
 1147 711 l 2,41,42
 1156 711 1156 711 1171 705 c 1,43,44
 1201 705 1201 705 1231.5 678.5 c 128,-1,45
 1262 652 1262 652 1262 635.5 c 128,-1,46
 1262 619 1262 619 1258.5 603.5 c 128,-1,47
 1255 588 1255 588 1253 588 c 2,48,-1
 1184 633 l 2,49,50
 1151 657 1151 657 1092 668 c 1,51,-1
 1092 450 l 1,52,-1
 1130 444 l 1,53,-1
 1147 440 l 2,54,55
 1156 440 1156 440 1171 434 c 1,56,57
 1201 434 1201 434 1231.5 407.5 c 128,-1,58
 1262 381 1262 381 1262 364.5 c 128,-1,59
 1262 348 1262 348 1258.5 332.5 c 128,-1,60
 1255 317 1255 317 1253 317 c 2,61,-1
 1184 362 l 2,62,63
 1151 386 1151 386 1092 397 c 1,64,-1
 1092 303 l 1,65,-1
 1071 221 l 1,66,-1
 1067 205 l 2,67,68
 1067 196 1067 196 1061 180 c 1,69,70
 1061 150 1061 150 1035 120 c 128,-1,71
 1009 90 1009 90 981 90 c 0,72,73
 975 90 975 90 959.5 93 c 128,-1,74
 944 96 944 96 944 98 c 2,75,-1
 989 168 l 1,76,77
 1030 234 1030 234 1030 405 c 1,78,79
 966 403 966 403 935 403 c 0,80,81
 935 403 935 403 825 403 c 0,82,83
 778 403 778 403 710 391 c 1,84,-1
 710 303 l 1,85,-1
 690 221 l 1,86,-1
 686 205 l 2,87,88
 686 196 686 196 680 180 c 1,89,90
 680 150 680 150 654 120 c 128,-1,91
 628 90 628 90 600 90 c 0,92,93
 594 90 594 90 578.5 93 c 128,-1,94
 563 96 563 96 563 98 c 2,95,-1
 608 168 l 1,96,97
 650 232 650 232 650 381 c 1,98,-1
 614 371 l 1,0,1
852 676 m 1,99,100
 782 676 782 676 711 661 c 1,101,-1
 711 459 l 1,102,-1
 950 459 l 1,103,-1
 1027 459 l 1,104,105
 1027.5 488 1027.5 488 1027.5 538 c 128,-1,106
 1027.5 588 1027.5 588 1020.75 630 c 128,-1,107
 1014 672 1014 672 1014 676 c 1,108,-1
 852 676 l 1,99,100
EndSplineSet
EndChar

StartChar: dollar
Encoding: 36 36 6
GlifName: dollar
Width: 733
Flags: W
LayerCount: 2
Fore
SplineSet
115 1373 m 1,0,-1
 112 1322 l 1,1,2
 112 1208 112 1208 214 1084 c 1,3,4
 240 1272 240 1272 333 1445 c 1,5,6
 308 1457 308 1457 257.5 1464 c 128,-1,7
 207 1471 207 1471 176 1480 c 1,8,-1
 170 1480 l 2,9,10
 163 1480 163 1480 118 1477 c 1,11,12
 112 1466 112 1466 112 1439 c 2,13,-1
 115 1373 l 1,0,-1
335 794 m 1,14,15
 334 782 334 782 334 758 c 0,16,17
 334 634 334 634 380.5 505 c 128,-1,18
 427 376 427 376 513 207 c 1,19,20
 522 251 522 251 522 334 c 2,21,-1
 522 371 l 2,22,23
 520 389 520 389 516.5 430.5 c 0,24,25
 512 472 512 472 510 494 c 0,26,27
 503 556 503 556 491.5 578 c 128,-1,28
 480 600 480 600 480 601 c 0,29,30
 442 685 442 685 335 794 c 1,14,15
105 1579 m 2,31,-1
 167 1582 l 2,32,33
 200 1582 200 1582 217.5 1576.5 c 128,-1,34
 235 1571 235 1571 281 1565 c 0,35,36
 354 1555 354 1555 389 1538 c 1,37,38
 422 1588 422 1588 461 1634 c 0,39,40
 480 1657 480 1657 511 1657 c 128,-1,41
 542 1657 542 1657 560.5 1641.5 c 128,-1,42
 579 1626 579 1626 579 1608.5 c 128,-1,43
 579 1591 579 1591 568 1577 c 0,44,45
 519 1518 519 1518 490 1472 c 1,46,47
 522 1445 522 1445 522 1422.5 c 128,-1,48
 522 1400 522 1400 504 1385 c 128,-1,49
 486 1370 486 1370 465.5 1370 c 128,-1,50
 445 1370 445 1370 434 1374 c 1,51,52
 337 1178 337 1178 332 959 c 1,53,54
 365 933 365 933 433.5 860.5 c 128,-1,55
 502 788 502 788 520 764 c 0,56,57
 628 628 628 628 640 512 c 0,58,59
 642 488 642 488 645 443.5 c 128,-1,60
 648 399 648 399 650 377 c 2,61,-1
 650 325 l 2,62,63
 650 301 650 301 653 256 c 0,64,65
 656 210 656 210 656 186 c 0,66,67
 657 118 657 118 620 77 c 1,68,69
 626 67 626 67 617 53.5 c 128,-1,70
 608 40 608 40 608 39 c 0,71,72
 614 9 614 9 614 -2 c 128,-1,73
 614 -13 614 -13 596 -28 c 128,-1,74
 578 -43 578 -43 553 -43 c 128,-1,75
 528 -43 528 -43 510 -31 c 0,76,77
 493 -19 493 -19 484 11 c 1,78,-1
 481 17 l 1,79,80
 445 8 445 8 401 8 c 0,81,82
 356 8 356 8 310 21 c 0,83,84
 245 39 245 39 199 64.5 c 0,85,86
 154 90 154 90 134 100 c 0,87,88
 99 118 99 118 50 156 c 0,89,90
 31 172 31 172 31 192.5 c 128,-1,91
 31 213 31 213 49.5 228.5 c 128,-1,92
 68 244 68 244 93 244 c 128,-1,93
 118 244 118 244 155 218.5 c 128,-1,94
 192 193 192 193 206 185 c 128,-1,95
 220 177 220 177 225.5 174 c 128,-1,96
 231 171 231 171 237.5 168 c 128,-1,97
 244 165 244 165 247 163 c 0,98,99
 348 111 348 111 401 111 c 0,100,101
 416 111 416 111 423 112 c 1,102,103
 421 116 421 116 393.5 170 c 128,-1,104
 366 224 366 224 361.5 233.5 c 128,-1,105
 357 243 357 243 333 293 c 128,-1,106
 309 343 309 343 303 359 c 128,-1,107
 297 375 297 375 278 420 c 128,-1,108
 259 465 259 465 253 487.5 c 128,-1,109
 247 510 247 510 234.5 551 c 128,-1,110
 222 592 222 592 218 621 c 0,111,112
 206 708 206 708 206 743.5 c 128,-1,113
 206 779 206 779 210 827 c 1,114,115
 205 876 205 876 204 922 c 1,116,117
 100 1025 100 1025 42 1118 c 128,-1,118
 -16 1211 -16 1211 -16 1322 c 1,119,-1
 -13 1373 l 1,120,-1
 -16 1439 l 1,121,122
 -16 1559 -16 1559 92 1578 c 0,123,124
 96 1579 96 1579 105 1579 c 2,31,-1
EndSplineSet
Validated: 33
EndChar

StartChar: percent
Encoding: 37 37 7
GlifName: percent
Width: 1400
Flags: W
LayerCount: 2
Fore
SplineSet
1321 1579 m 2,0,1
 1342 1579 1342 1579 1357 1564 c 128,-1,2
 1372 1549 1372 1549 1372 1529 c 128,-1,3
 1372 1509 1372 1509 1358 1494 c 128,-1,4
 1344 1479 1344 1479 1330 1477.5 c 128,-1,5
 1316 1476 1316 1476 1291 1457.5 c 128,-1,6
 1266 1439 1266 1439 1246.5 1430 c 128,-1,7
 1227 1421 1227 1421 1172 1397 c 128,-1,8
 1117 1373 1117 1373 1102.5 1364.5 c 128,-1,9
 1088 1356 1088 1356 1087 1356 c 128,-1,10
 1086 1356 1086 1356 1053 1339.5 c 128,-1,11
 1020 1323 1020 1323 961.5 1281.5 c 128,-1,12
 903 1240 903 1240 852 1186.5 c 128,-1,13
 801 1133 801 1133 761 1084 c 128,-1,14
 721 1035 721 1035 676.5 964.5 c 128,-1,15
 632 894 632 894 603 844 c 128,-1,16
 574 794 574 794 528 714 c 0,17,18
 458 590 458 590 451 582 c 0,19,20
 224 310 224 310 146 7 c 0,21,22
 142 -9 142 -9 128 -20 c 128,-1,23
 114 -31 114 -31 94.5 -31 c 128,-1,24
 75 -31 75 -31 60 -16 c 128,-1,25
 45 -1 45 -1 45 12.5 c 128,-1,26
 45 26 45 26 47 34 c 0,27,28
 134 361 134 361 370 644 c 1,29,30
 396 688 396 688 459.5 800 c 0,31,32
 524 912 524 912 558 970 c 0,33,34
 760 1310 760 1310 1039 1446 c 0,35,36
 1071 1465 1071 1465 1127.5 1489.5 c 128,-1,37
 1184 1514 1184 1514 1194 1519 c 0,38,39
 1214 1529 1214 1529 1245 1552.5 c 128,-1,40
 1276 1576 1276 1576 1317 1579 c 2,41,-1
 1321 1579 l 2,0,1
459 313 m 128,-1,43
 492 352 492 352 543 344.5 c 128,-1,44
 594 337 594 337 613 288 c 0,45,46
 631 238 631 238 598 199 c 128,-1,47
 565 160 565 160 514 167.5 c 128,-1,48
 463 175 463 175 444 224 c 0,49,42
 426 274 426 274 459 313 c 128,-1,43
573 1330 m 128,-1,51
 522 1337 522 1337 503.5 1387.5 c 128,-1,52
 485 1438 485 1438 518 1476.5 c 128,-1,53
 551 1515 551 1515 602 1508 c 128,-1,54
 653 1501 653 1501 671.5 1451 c 128,-1,55
 690 1401 690 1401 657 1362 c 128,-1,50
 624 1323 624 1323 573 1330 c 128,-1,51
EndSplineSet
Validated: 33
EndChar

StartChar: ampersand
Encoding: 38 38 8
GlifName: ampersand
Width: 821
Flags: W
LayerCount: 2
Fore
SplineSet
601 461 m 1,0,1
 627 490 627 490 645 490 c 128,-1,2
 663 490 663 490 675 477 c 128,-1,3
 687 464 687 464 687 440 c 128,-1,4
 687 416 687 416 673 408 c 128,-1,5
 659 400 659 400 651 388 c 1,6,7
 706 303 706 303 742 235 c 1,8,9
 772 226 772 226 772 198 c 0,10,11
 772 144 772 144 733 144 c 0,12,13
 695 144 695 144 683 170 c 0,14,15
 658 221 658 221 611 296 c 1,16,17
 582 217 582 217 547 181 c 0,18,19
 533 167 533 167 516 146 c 128,-1,20
 499 125 499 125 479 102 c 0,21,22
 432 48 432 48 335 48 c 2,23,-1
 332 48 l 2,24,25
 284 48 284 48 238 81 c 0,26,27
 225 90 225 90 201 104 c 0,28,29
 150 134 150 134 115 174.5 c 128,-1,30
 80 215 80 215 80 300 c 0,31,32
 80 341 80 341 125.5 418.5 c 128,-1,33
 171 496 171 496 197 529.5 c 0,34,35
 224 564 224 564 256 602 c 0,36,37
 300 654 300 654 335 698 c 1,38,39
 209 892 209 892 161 981 c 128,-1,40
 113 1070 113 1070 99.5 1156 c 128,-1,41
 86 1242 86 1242 86 1379 c 128,-1,42
 86 1516 86 1516 136 1574 c 0,43,44
 167 1611 167 1611 214 1611 c 2,45,-1
 265 1612 l 2,46,47
 375 1612 375 1612 432 1545 c 0,48,49
 536 1422 536 1422 544 1128 c 1,50,51
 554 1077 554 1077 554 1025 c 0,52,53
 554 858 554 858 438 694 c 1,54,55
 465 655 465 655 519.5 577.5 c 128,-1,56
 574 500 574 500 601 461 c 1,0,1
233 1242 m 2,57,-1
 233 1153 l 2,58,59
 233 1098 233 1098 243 1062 c 1,60,61
 243 1036 243 1036 293.5 984.5 c 128,-1,62
 344 933 344 933 344 903 c 2,63,-1
 344 892 l 1,64,65
 360 881 360 881 363 881 c 0,66,67
 384 881 384 881 406.5 945 c 128,-1,68
 429 1009 429 1009 432 1016 c 128,-1,69
 435 1023 435 1023 437.5 1048.5 c 128,-1,70
 440 1074 440 1074 442 1083 c 128,-1,71
 444 1092 444 1092 448.5 1118 c 0,72,73
 452 1144 452 1144 454 1156 c 0,74,75
 462 1216 462 1216 458 1235 c 1,76,77
 465 1305 465 1305 435.5 1363.5 c 128,-1,78
 406 1422 406 1422 354 1452 c 1,79,80
 278 1452 278 1452 253 1382 c 0,81,82
 233 1324 233 1324 233 1242 c 2,57,-1
467 256 m 2,83,-1
 473 345 l 2,84,85
 476 369 476 369 469 400 c 128,-1,86
 462 431 462 431 461 439 c 128,-1,87
 460 447 460 447 458.5 463 c 128,-1,88
 457 479 457 479 455 487 c 0,89,90
 452 495 452 495 448 505 c 0,91,92
 439 524 439 524 412 518 c 2,93,-1
 364 503 l 1,94,95
 251 414 251 414 243 293 c 1,96,-1
 243 238 l 1,97,98
 261 168 261 168 369 168 c 0,99,100
 400 168 400 168 433.5 194.5 c 128,-1,101
 467 221 467 221 467 256 c 2,83,-1
EndSplineSet
Validated: 33
EndChar

StartChar: quotesingle
Encoding: 39 39 9
GlifName: quotesingle
Width: 2048
Flags: W
LayerCount: 2
Fore
SplineSet
1325 1348 m 1,0,-1
 1325 1339 l 2,1,2
 1325 1336 1325 1336 1311 1323.5 c 128,-1,3
 1297 1311 1297 1311 1293 1311 c 0,4,5
 1281 1311 1281 1311 1273.5 1341.5 c 128,-1,6
 1266 1372 1266 1372 1264.5 1377 c 128,-1,7
 1263 1382 1263 1382 1262 1391 c 128,-1,8
 1261 1400 1261 1400 1262 1406 c 0,9,10
 1265 1424 1265 1424 1272 1434 c 0,11,12
 1311 1495 1311 1495 1374 1434 c 0,13,14
 1407 1401 1407 1401 1407 1364 c 0,15,16
 1408 1354 1408 1354 1412 1330 c 0,17,18
 1422 1280 1422 1280 1420.5 1264.5 c 128,-1,19
 1419 1249 1419 1249 1418.5 1237 c 128,-1,20
 1418 1225 1418 1225 1417.5 1217 c 0,21,22
 1417 1210 1417 1210 1415 1200 c 0,23,24
 1411 1180 1411 1180 1395 1180 c 0,25,26
 1386 1180 1386 1180 1376 1179 c 1,27,28
 1389 1185 1389 1185 1391.5 1210 c 128,-1,29
 1394 1235 1394 1235 1388.5 1258 c 128,-1,30
 1383 1281 1383 1281 1379 1295 c 128,-1,31
 1375 1309 1375 1309 1369 1318.5 c 128,-1,32
 1363 1328 1363 1328 1359 1332.5 c 128,-1,33
 1355 1337 1355 1337 1347 1343.5 c 128,-1,34
 1339 1350 1339 1350 1337 1352 c 2,35,-1
 1325 1348 l 1,0,-1
1376 1179 m 1,36,37
 1369 1176 1369 1176 1358 1176 c 1,38,39
 1365 1177 1365 1177 1369.5 1178 c 128,-1,40
 1374 1179 1374 1179 1376 1179 c 1,36,37
EndSplineSet
Validated: 33
EndChar

StartChar: parenleft
Encoding: 40 40 10
GlifName: parenleft
Width: 1097
Flags: W
LayerCount: 2
Fore
SplineSet
492 1098 m 1,0,-1
 508 1192 l 1,1,2
 508 1258 508 1258 522 1299.5 c 128,-1,3
 536 1341 536 1341 542.5 1371.5 c 128,-1,4
 549 1402 549 1402 551.5 1419.5 c 128,-1,5
 554 1437 554 1437 559.5 1453.5 c 128,-1,6
 565 1470 565 1470 565 1474 c 2,7,-1
 565 1479 l 2,8,9
 565 1484 565 1484 569 1498 c 2,10,-1
 578 1525 l 1,11,12
 581 1548 581 1548 584.5 1559.5 c 0,13,14
 588 1572 588 1572 592 1592 c 0,15,16
 602 1638 602 1638 616 1664 c 128,-1,17
 630 1690 630 1690 656.5 1690 c 128,-1,18
 683 1690 683 1690 698 1675 c 128,-1,19
 713 1660 713 1660 713 1638 c 1,20,-1
 680 1517 l 1,21,-1
 655 1414 l 1,22,-1
 655 1409 l 2,23,24
 655 1399 655 1399 651.5 1389 c 128,-1,25
 648 1379 648 1379 641 1345.5 c 128,-1,26
 634 1312 634 1312 628 1296 c 0,27,28
 610 1240 610 1240 610 1205.5 c 128,-1,29
 610 1171 610 1171 602 1139 c 128,-1,30
 594 1107 594 1107 594 1099 c 2,31,-1
 594 1088 l 2,32,33
 594 1053 594 1053 586 1021 c 128,-1,34
 578 989 578 989 578 954 c 2,35,-1
 569 839 l 1,36,-1
 569 823 l 1,37,38
 574 774 574 774 584 673 c 0,39,40
 606 457 606 457 606 340 c 1,41,-1
 610 296 l 1,42,43
 618 256 618 256 636 154.5 c 128,-1,44
 654 53 654 53 671.5 -25.5 c 128,-1,45
 689 -104 689 -104 771 -372 c 1,46,-1
 787 -411 l 2,47,48
 791 -423 791 -423 791 -437 c 128,-1,49
 791 -451 791 -451 776 -466 c 0,50,51
 760 -481 760 -481 742 -481 c 0,52,53
 703 -481 703 -481 692 -449 c 2,54,-1
 675 -408 l 2,55,56
 674 -407 674 -407 632 -265 c 128,-1,57
 590 -123 590 -123 572 -44.5 c 128,-1,58
 554 34 554 34 535 140.5 c 128,-1,59
 516 247 516 247 512 265.5 c 128,-1,60
 508 284 508 284 508 291 c 2,61,-1
 504 340 l 1,62,63
 504 449 504 449 488 610 c 0,64,65
 466 819 466 819 466 839 c 2,66,-1
 475 955 l 2,67,68
 475 1005 475 1005 483.5 1038 c 128,-1,69
 492 1071 492 1071 492 1090 c 2,70,-1
 492 1098 l 1,0,-1
EndSplineSet
Validated: 1
EndChar

StartChar: parenright
Encoding: 41 41 11
GlifName: parenright
Width: 1097
Flags: W
LayerCount: 2
Fore
SplineSet
765 111 m 1,0,-1
 749 16 l 1,1,2
 749 -49 749 -49 735 -90.5 c 128,-1,3
 721 -132 721 -132 714.5 -163 c 128,-1,4
 708 -194 708 -194 705.5 -211 c 128,-1,5
 703 -228 703 -228 697 -246 c 128,-1,6
 691 -264 691 -264 691 -266 c 2,7,-1
 691 -270 l 1,8,-1
 675 -338 l 2,9,10
 675 -343 675 -343 672.5 -352.5 c 128,-1,11
 670 -362 670 -362 665 -383 c 0,12,13
 655 -426 655 -426 640.5 -453.5 c 128,-1,14
 626 -481 626 -481 600 -481 c 128,-1,15
 574 -481 574 -481 559 -466 c 128,-1,16
 544 -451 544 -451 544 -430 c 1,17,-1
 577 -309 l 1,18,-1
 602 -206 l 1,19,-1
 601 -201 l 2,20,21
 601 -192 601 -192 605 -181 c 128,-1,22
 609 -170 609 -170 615.5 -136.5 c 0,23,24
 622 -102 622 -102 628 -86 c 0,25,26
 646 -30 646 -30 646 16 c 1,27,-1
 663 110 l 1,28,-1
 662 121 l 2,29,30
 662 151 662 151 670.5 185 c 128,-1,31
 679 219 679 219 679 254 c 2,32,-1
 688 369 l 1,33,-1
 688 385 l 1,34,35
 684 435 684 435 674 535 c 0,36,37
 650 759 650 759 650 868 c 1,38,-1
 646 912 l 1,39,40
 638 952 638 952 620 1053.5 c 128,-1,41
 602 1155 602 1155 584.5 1233.5 c 128,-1,42
 567 1312 567 1312 485 1580 c 1,43,-1
 470 1619 l 2,44,45
 466 1631 466 1631 466 1645.5 c 128,-1,46
 466 1660 466 1660 481 1675 c 128,-1,47
 496 1690 496 1690 514 1690 c 0,48,49
 553 1690 553 1690 565 1657 c 2,50,-1
 581 1616 l 2,51,52
 583 1614 583 1614 625 1472.5 c 128,-1,53
 667 1331 667 1331 685 1252.5 c 128,-1,54
 703 1174 703 1174 722 1067.5 c 128,-1,55
 741 961 741 961 745 943 c 128,-1,56
 749 925 749 925 749 918 c 2,57,-1
 753 868 l 1,58,59
 754 759 754 759 770 598 c 0,60,61
 792 389 792 389 791 369 c 2,62,-1
 782 254 l 2,63,64
 782 203 782 203 773.5 170 c 128,-1,65
 765 137 765 137 765 119 c 2,66,-1
 765 111 l 1,0,-1
EndSplineSet
Validated: 33
EndChar

StartChar: asterisk
Encoding: 42 42 12
GlifName: asterisk
Width: 860
Flags: W
LayerCount: 2
Fore
SplineSet
484 673 m 1,0,-1
 498 549 l 2,1,2
 498 528 498 528 483 513 c 128,-1,3
 468 498 468 498 447.5 498 c 128,-1,4
 427 498 427 498 412.5 511.5 c 128,-1,5
 398 525 398 525 396 547 c 128,-1,6
 394 569 394 569 390.5 598.5 c 128,-1,7
 387 628 387 628 382 663.5 c 128,-1,8
 377 699 377 699 375 719 c 1,9,10
 327 675 327 675 317.5 659.5 c 128,-1,11
 308 644 308 644 300 637 c 2,12,-1
 210 559 l 2,13,14
 195 547 195 547 175 547 c 128,-1,15
 155 547 155 547 140 562 c 128,-1,16
 125 577 125 577 125 599 c 128,-1,17
 125 621 125 621 143 637 c 2,18,-1
 225 708 l 1,19,20
 233 721 233 721 264 754 c 1,21,-1
 102 756 l 2,22,23
 81 756 81 756 66 771 c 128,-1,24
 51 786 51 786 51 807 c 128,-1,25
 51 828 51 828 66 843 c 128,-1,26
 81 858 81 858 102 858 c 2,27,-1
 253 857 l 1,28,29
 233 876 233 876 200 919 c 0,30,31
 168 962 168 962 158 972 c 0,32,33
 143 987 143 987 132 997 c 128,-1,34
 121 1007 121 1007 121 1028 c 128,-1,35
 121 1049 121 1049 136 1064 c 128,-1,36
 151 1079 151 1079 170.5 1079 c 128,-1,37
 190 1079 190 1079 211.5 1061 c 0,38,39
 233 1044 233 1044 268 998 c 0,40,41
 326 922 326 922 354 908 c 1,42,43
 346 994 346 994 346 1069 c 2,44,-1
 346 1085 l 2,45,46
 346 1107 346 1107 361 1122 c 128,-1,47
 376 1137 376 1137 397.5 1137 c 128,-1,48
 419 1137 419 1137 434 1122 c 128,-1,49
 449 1107 449 1107 449 1085 c 2,50,-1
 449 1069 l 2,51,52
 449 985 449 985 458 895 c 1,53,54
 555 960 555 960 605 1066 c 0,55,56
 620 1096 620 1096 651 1096 c 0,57,58
 660 1096 660 1096 677 1088 c 0,59,60
 711 1072 711 1072 711 1040.5 c 128,-1,61
 711 1009 711 1009 684 995 c 1,62,63
 642 916 642 916 573 855 c 1,64,65
 639 854 639 854 772 850 c 0,66,67
 791 850 791 850 806 835 c 128,-1,68
 821 820 821 820 821 799 c 128,-1,69
 821 778 821 778 806 763 c 128,-1,70
 791 748 791 748 770 748 c 2,71,-1
 768 748 l 1,72,73
 624 752 624 752 550 752 c 1,74,75
 591 710 591 710 675 626 c 0,76,77
 690 611 690 611 690 590 c 128,-1,78
 690 569 690 569 675 554 c 128,-1,79
 660 539 660 539 639 539 c 128,-1,80
 618 539 618 539 604 553 c 2,81,-1
 566 592 l 2,82,83
 542 616 542 616 521.5 635.5 c 128,-1,84
 501 655 501 655 484 673 c 1,0,-1
EndSplineSet
Validated: 1
EndChar

StartChar: plus
Encoding: 43 43 13
GlifName: plus
Width: 798
Flags: W
LayerCount: 2
Fore
SplineSet
439 697 m 1,0,-1
 442 566 l 2,1,2
 442 452 442 452 413 423 c 2,3,-1
 372 382 l 2,4,5
 357 367 357 367 336 367 c 128,-1,6
 315 367 315 367 300 382 c 128,-1,7
 285 397 285 397 285 418 c 128,-1,8
 285 439 285 439 300 454 c 2,9,-1
 331 486 l 1,10,11
 340 522 340 522 340 571 c 2,12,-1
 336 696 l 1,13,-1
 336 714 l 1,14,15
 270 711 270 711 215 694 c 1,16,-1
 108 642 l 2,17,18
 96 637 96 637 80.5 637 c 128,-1,19
 65 637 65 637 50 652 c 128,-1,20
 35 667 35 667 35 693.5 c 128,-1,21
 35 720 35 720 64 734 c 2,22,-1
 174 788 l 1,23,24
 256 811 256 811 326 816 c 1,25,-1
 310 922 l 1,26,27
 272 1055 272 1055 272 1068.5 c 128,-1,28
 272 1082 272 1082 287 1097 c 128,-1,29
 302 1112 302 1112 322 1112 c 0,30,31
 361 1112 361 1112 373 1075 c 0,32,33
 375 1068 375 1068 388 1021 c 128,-1,34
 401 974 401 974 406 959 c 128,-1,35
 411 944 411 944 411 941 c 2,36,-1
 430 817 l 1,37,38
 551 814 551 814 572 803 c 0,39,40
 672 752 672 752 704 736 c 0,41,42
 752 712 752 712 752 685.5 c 128,-1,43
 752 659 752 659 737 644 c 128,-1,44
 722 629 722 629 704.5 629 c 128,-1,45
 687 629 687 629 658.5 643.5 c 128,-1,46
 630 658 630 658 534 708 c 1,47,48
 497 712 497 712 439 714 c 1,49,-1
 439 697 l 1,0,-1
EndSplineSet
Validated: 1
EndChar

StartChar: comma
Encoding: 44 44 14
GlifName: comma
Width: 2048
Flags: W
LayerCount: 2
Fore
SplineSet
1006 541 m 2,0,1
 984 541 984 541 970 529.5 c 128,-1,2
 956 518 956 518 956 498 c 2,3,-1
 956 473 l 1,4,-1
 999 455 l 2,5,6
 999 454 999 454 995 447.5 c 128,-1,7
 991 441 991 441 990 439 c 128,-1,8
 989 437 989 437 985.5 431 c 128,-1,9
 982 425 982 425 979.5 423.5 c 128,-1,10
 977 422 977 422 973 417.5 c 128,-1,11
 969 413 969 413 965 412 c 128,-1,12
 961 411 961 411 955 409 c 128,-1,13
 949 407 949 407 932 412 c 1,14,15
 900 412 900 412 879 442.5 c 128,-1,16
 858 473 858 473 852 507.5 c 128,-1,17
 846 542 846 542 847 583.5 c 128,-1,18
 848 625 848 625 886.5 657 c 128,-1,19
 925 689 925 689 975 682 c 1,20,21
 1040 696 1040 696 1099 681 c 128,-1,22
 1158 666 1158 666 1197.5 630.5 c 128,-1,23
 1237 595 1237 595 1254.5 538.5 c 128,-1,24
 1272 482 1272 482 1257 418 c 1,25,26
 1258 402 1258 402 1259 356 c 128,-1,27
 1260 310 1260 310 1264 225.5 c 0,28,29
 1268 142 1268 142 1226 42 c 128,-1,30
 1184 -58 1184 -58 1061 -98 c 0,31,32
 1037 -108 1037 -108 968 -145.5 c 128,-1,33
 899 -183 899 -183 890 -183 c 0,34,35
 874 -184 874 -184 944 -117 c 0,36,37
 959 -102 959 -102 983.5 -80.5 c 128,-1,38
 1008 -59 1008 -59 1025 -43.5 c 128,-1,39
 1042 -28 1042 -28 1064 -7 c 128,-1,40
 1086 14 1086 14 1101 32.5 c 128,-1,41
 1116 51 1116 51 1132 74 c 128,-1,42
 1148 97 1148 97 1157 120 c 128,-1,43
 1166 143 1166 143 1172.5 169.5 c 128,-1,44
 1179 196 1179 196 1178.5 226 c 128,-1,45
 1178 256 1178 256 1171 286.5 c 128,-1,46
 1164 317 1164 317 1169 368 c 128,-1,47
 1174 419 1174 419 1164 474 c 0,48,49
 1154 535 1154 535 1079 535 c 1,50,-1
 1006 541 l 2,0,1
EndSplineSet
Validated: 33
EndChar

StartChar: hyphen
Encoding: 45 45 15
GlifName: hyphen
Width: 786
Flags: W
LayerCount: 2
Fore
SplineSet
378 740 m 0,0,1
 467 734 467 734 485.5 729 c 128,-1,2
 504 724 504 724 506.5 724 c 128,-1,3
 509 724 509 724 510 723 c 2,4,-1
 629 669 l 2,5,6
 630 668 630 668 631 668 c 128,-1,7
 632 668 632 668 633 667 c 2,8,-1
 699 630 l 2,9,10
 725 616 725 616 725 590.5 c 128,-1,11
 725 565 725 565 710 550 c 128,-1,12
 695 535 695 535 678 535 c 128,-1,13
 661 535 661 535 649 541 c 2,14,-1
 585 577 l 1,15,-1
 472 627 l 1,16,17
 443 634 443 634 389 637 c 2,18,-1
 378 637 l 2,19,20
 354 637 354 637 304.5 628 c 128,-1,21
 255 619 255 619 235 617.5 c 128,-1,22
 215 616 215 616 191 610 c 0,23,24
 156 600 156 600 142 600 c 128,-1,25
 128 600 128 600 113 615 c 128,-1,26
 98 630 98 630 98 649 c 128,-1,27
 98 668 98 668 109 682.5 c 128,-1,28
 120 697 120 697 131 700 c 0,29,30
 142 704 142 704 158 708 c 0,31,32
 194 718 194 718 217.5 719.5 c 128,-1,33
 241 721 241 721 291.5 730.5 c 128,-1,34
 342 740 342 740 378 740 c 0,0,1
EndSplineSet
Validated: 1
EndChar

StartChar: period
Encoding: 46 46 16
GlifName: period
Width: 274
Flags: W
LayerCount: 2
Fore
SplineSet
47 124 m 0,0,1
 29 175 29 175 62 213.5 c 128,-1,2
 95 252 95 252 146 245 c 128,-1,3
 197 238 197 238 215.5 187.5 c 128,-1,4
 234 137 234 137 201 98.5 c 128,-1,5
 168 60 168 60 117 67 c 128,-1,6
 66 74 66 74 47 124 c 0,0,1
EndSplineSet
Validated: 33
EndChar

StartChar: slash
Encoding: 47 47 17
GlifName: slash
Width: 1400
Flags: W
LayerCount: 2
Fore
SplineSet
1321 1579 m 2,0,1
 1342 1579 1342 1579 1357 1564 c 128,-1,2
 1372 1549 1372 1549 1372 1529 c 128,-1,3
 1372 1509 1372 1509 1358 1494 c 128,-1,4
 1344 1479 1344 1479 1330 1477.5 c 128,-1,5
 1316 1476 1316 1476 1291 1457.5 c 128,-1,6
 1266 1439 1266 1439 1246.5 1430 c 128,-1,7
 1227 1421 1227 1421 1172 1397 c 128,-1,8
 1117 1373 1117 1373 1102.5 1364.5 c 128,-1,9
 1088 1356 1088 1356 1087 1356 c 128,-1,10
 1086 1356 1086 1356 1053 1339.5 c 128,-1,11
 1020 1323 1020 1323 961.5 1281.5 c 128,-1,12
 903 1240 903 1240 852 1186.5 c 128,-1,13
 801 1133 801 1133 761 1084 c 128,-1,14
 721 1035 721 1035 676.5 964.5 c 128,-1,15
 632 894 632 894 603 844 c 128,-1,16
 574 794 574 794 528 714 c 0,17,18
 458 590 458 590 451 582 c 0,19,20
 224 310 224 310 146 7 c 0,21,22
 142 -9 142 -9 128 -20 c 128,-1,23
 114 -31 114 -31 94.5 -31 c 128,-1,24
 75 -31 75 -31 60 -16 c 128,-1,25
 45 -1 45 -1 45 12.5 c 128,-1,26
 45 26 45 26 47 34 c 0,27,28
 134 361 134 361 370 644 c 1,29,30
 396 688 396 688 459.5 800 c 0,31,32
 524 912 524 912 558 970 c 0,33,34
 760 1310 760 1310 1039 1446 c 0,35,36
 1071 1465 1071 1465 1127.5 1489.5 c 128,-1,37
 1184 1514 1184 1514 1194 1519 c 0,38,39
 1214 1529 1214 1529 1245 1552.5 c 128,-1,40
 1276 1576 1276 1576 1317 1579 c 2,41,-1
 1321 1579 l 2,0,1
EndSplineSet
Validated: 1
EndChar

StartChar: zero
Encoding: 48 48 18
GlifName: zero
Width: 630
Flags: W
LayerCount: 2
Fore
SplineSet
30 1069 m 1,0,-1
 28 1183 l 2,1,2
 28 1280 28 1280 91 1416 c 0,3,4
 122 1483 122 1483 163 1518 c 1,5,6
 183 1540 183 1540 195 1552 c 0,7,8
 238 1594 238 1594 288 1594 c 2,9,-1
 306 1594 l 2,10,11
 336 1594 336 1594 348 1568 c 0,12,13
 352 1564 352 1564 364 1554 c 0,14,15
 414 1516 414 1516 415 1456 c 0,16,17
 415 1449 415 1449 429 1418 c 0,18,19
 463 1342 463 1342 463 1224 c 0,20,21
 463 1192 463 1192 473 1131 c 128,-1,22
 483 1070 483 1070 487 1022.5 c 128,-1,23
 491 975 491 975 508 915 c 128,-1,24
 525 855 525 855 525 829.5 c 128,-1,25
 525 804 525 804 546.5 701.5 c 128,-1,26
 568 599 568 599 568 485 c 0,27,28
 568 255 568 255 454 93 c 0,29,30
 450 88 450 88 439.5 72.5 c 128,-1,31
 429 57 429 57 420.5 51 c 128,-1,32
 412 45 412 45 399.5 36 c 128,-1,33
 387 27 387 27 372.5 23.5 c 128,-1,34
 358 20 358 20 321 20 c 128,-1,35
 284 20 284 20 242 45 c 0,36,37
 122 116 122 116 96 235 c 0,38,39
 93 245 93 245 82.5 269 c 128,-1,40
 72 293 72 293 69 321 c 1,41,42
 61 343 61 343 43 446 c 128,-1,43
 25 549 25 549 25 734 c 2,44,-1
 30 1069 l 1,0,-1
117 736 m 2,45,46
 117 559 117 559 128.5 495.5 c 128,-1,47
 140 432 140 432 146.5 396.5 c 128,-1,48
 153 361 153 361 156.5 350 c 128,-1,49
 160 339 160 339 161 329 c 128,-1,50
 162 319 162 319 172 294 c 128,-1,51
 182 269 182 269 185 256 c 0,52,53
 201 175 201 175 289 124 c 0,54,55
 309 112 309 112 339 112 c 2,56,-1
 343 112 l 2,57,58
 351 112 351 112 359.5 120.5 c 128,-1,59
 368 129 368 129 404 187 c 0,60,61
 475 294 475 294 475 489 c 0,62,63
 474 594 474 594 450 707 c 0,64,65
 432 788 432 788 433 832 c 0,66,67
 430 848 430 848 414.5 902.5 c 128,-1,68
 399 957 399 957 395 1008 c 128,-1,69
 391 1059 391 1059 381 1121.5 c 128,-1,70
 371 1184 371 1184 370 1211.5 c 128,-1,71
 369 1239 369 1239 365.5 1280.5 c 128,-1,72
 362 1322 362 1322 360.5 1335.5 c 128,-1,73
 359 1349 359 1349 341.5 1387.5 c 128,-1,74
 324 1426 324 1426 319 1473 c 1,75,76
 304 1488 304 1488 282 1499 c 1,77,78
 269 1494 269 1494 247.5 1472 c 128,-1,79
 226 1450 226 1450 224 1449 c 0,80,81
 200 1430 200 1430 162.5 1351 c 128,-1,82
 125 1272 125 1272 120 1183 c 1,83,84
 122 1145 122 1145 122 1069 c 2,85,-1
 117 736 l 2,45,46
EndSplineSet
Validated: 33
EndChar

StartChar: one
Encoding: 49 49 19
GlifName: one
Width: 937
Flags: W
LayerCount: 2
Fore
SplineSet
537 1539 m 2,0,-1
 518 1538 l 1,1,-1
 506 1538 l 2,2,3
 486 1538 486 1538 472 1532 c 128,-1,4
 458 1526 458 1526 430 1504 c 0,5,6
 395 1475 395 1475 382.5 1468.5 c 128,-1,7
 370 1462 370 1462 362 1456.5 c 128,-1,8
 354 1451 354 1451 348.5 1446.5 c 128,-1,9
 343 1442 343 1442 335 1433 c 0,10,11
 328 1424 328 1424 324 1420 c 2,12,-1
 294 1387 l 2,13,14
 282 1375 282 1375 259.5 1344 c 128,-1,15
 237 1313 237 1313 224 1300 c 1,16,17
 184 1231 184 1231 133 1231 c 2,18,-1
 125 1231 l 2,19,20
 104 1231 104 1231 89 1246 c 128,-1,21
 74 1261 74 1261 74 1282 c 128,-1,22
 74 1303 74 1303 88 1317 c 128,-1,23
 102 1331 102 1331 122 1333 c 1,24,25
 127 1338 127 1338 134 1350.5 c 128,-1,26
 141 1363 141 1363 151.5 1373.5 c 128,-1,27
 162 1384 162 1384 183.5 1413 c 128,-1,28
 205 1442 205 1442 225 1464 c 2,29,-1
 255 1497 l 2,30,31
 288 1533 288 1533 312 1547 c 128,-1,32
 336 1561 336 1561 370 1588 c 0,33,34
 438 1641 438 1641 507 1641 c 2,35,-1
 537 1641 l 2,36,37
 628 1640 628 1640 678 1576 c 0,38,39
 686 1566 686 1566 703 1549 c 0,40,41
 745 1507 745 1507 745 1472 c 1,42,43
 754 1436 754 1436 754 1434 c 2,44,-1
 766 1360 l 1,45,-1
 770 1331 l 1,46,-1
 782 1184 l 1,47,-1
 782 1181 l 1,48,-1
 786 967 l 1,49,-1
 786 463 l 2,50,51
 786 449 786 449 783 443 c 2,52,-1
 619 46 l 2,53,54
 616 37 616 37 608 29 c 2,55,-1
 575 -3 l 2,56,57
 560 -18 560 -18 538.5 -18 c 128,-1,58
 517 -18 517 -18 502 -3 c 128,-1,59
 487 12 487 12 487 33 c 128,-1,60
 487 54 487 54 502 69 c 2,61,-1
 528 94 l 1,62,-1
 684 473 l 1,63,-1
 684 966 l 1,64,-1
 680 1177 l 1,65,-1
 668 1321 l 2,66,67
 664 1341 664 1341 664 1352.5 c 128,-1,68
 664 1364 664 1364 658 1385.5 c 128,-1,69
 652 1407 652 1407 651 1427 c 1,70,71
 644 1448 644 1448 643 1463 c 1,72,73
 637 1470 637 1470 621.5 1485 c 128,-1,74
 606 1500 606 1500 599 1510 c 0,75,76
 578 1539 578 1539 537 1539 c 2,0,-1
EndSplineSet
Validated: 1
EndChar

StartChar: two
Encoding: 50 50 20
GlifName: two
Width: 835
Flags: W
LayerCount: 2
Fore
SplineSet
454 1544 m 1,0,-1
 424 1542 l 1,1,-1
 397 1544 l 1,2,3
 332 1544 332 1544 280 1492 c 0,4,5
 253 1465 253 1465 237 1432 c 1,6,-1
 238 1430 l 1,7,8
 238 1408 238 1408 223 1393 c 128,-1,9
 208 1378 208 1378 186.5 1378 c 128,-1,10
 165 1378 165 1378 148 1395 c 128,-1,11
 131 1412 131 1412 131 1426 c 128,-1,12
 131 1440 131 1440 135 1452 c 0,13,14
 167 1534 167 1534 236.5 1590 c 128,-1,15
 306 1646 306 1646 397 1646 c 0,16,17
 425 1646 425 1646 453 1646 c 0,18,19
 568 1646 568 1646 651.5 1562.5 c 128,-1,20
 735 1479 735 1479 737 1327 c 2,21,-1
 737 1252 l 2,22,23
 738 1246 738 1246 738 1223 c 128,-1,24
 738 1200 738 1200 728.5 1169 c 128,-1,25
 719 1138 719 1138 702.5 1103 c 128,-1,26
 686 1068 686 1068 674 1031 c 128,-1,27
 662 994 662 994 626 928 c 0,28,29
 580 842 580 842 513 742.5 c 128,-1,30
 446 643 446 643 419.5 600.5 c 0,31,32
 392 558 392 558 360 494 c 0,33,34
 298 373 298 373 299 251 c 2,35,-1
 299 240 l 1,36,37
 307 217 307 217 329 190 c 1,38,-1
 418 162 l 1,39,-1
 591 169 l 1,40,-1
 662 205 l 1,41,-1
 668 260 l 2,42,43
 670 279 670 279 685 292 c 128,-1,44
 700 305 700 305 720 305 c 128,-1,45
 740 305 740 305 755 290 c 128,-1,46
 770 275 770 275 770 254 c 2,47,-1
 770 248 l 1,48,-1
 762 175 l 2,49,50
 760 157 760 157 742.5 139.5 c 128,-1,51
 725 122 725 122 717 118 c 2,52,-1
 627 73 l 2,53,54
 615 68 615 68 606 68 c 2,55,-1
 414 59 l 1,56,-1
 412 59 l 2,57,58
 404 59 404 59 397 62 c 2,59,-1
 299 92 l 1,60,61
 279 94 279 94 251 122 c 128,-1,62
 223 150 223 150 210 188 c 128,-1,63
 197 226 197 226 197 236 c 2,64,-1
 196 252 l 1,65,66
 196 420 196 420 293 588 c 0,67,68
 338 667 338 667 441.5 819 c 128,-1,69
 545 971 545 971 584 1085 c 0,70,71
 590 1099 590 1099 604 1131 c 0,72,73
 636 1203 636 1203 636 1235 c 2,74,-1
 635 1249 l 1,75,-1
 635 1327 l 2,76,77
 635 1434 635 1434 580 1489 c 128,-1,78
 525 1544 525 1544 454 1544 c 1,0,-1
EndSplineSet
Validated: 33
EndChar

StartChar: three
Encoding: 51 51 21
GlifName: three
Width: 901
Flags: W
LayerCount: 2
Fore
SplineSet
694 1129 m 2,0,-1
 692 1155 l 1,1,-1
 693 1180 l 2,2,3
 693 1181 693 1181 684 1286 c 1,4,-1
 684 1290 l 2,5,6
 684 1358 684 1358 644 1398 c 0,7,8
 632 1410 632 1410 581.5 1446.5 c 128,-1,9
 531 1483 531 1483 507 1509 c 1,10,-1
 410 1509 l 1,11,-1
 240 1466 l 2,12,13
 232 1464 232 1464 219 1464 c 128,-1,14
 206 1464 206 1464 191 1479 c 128,-1,15
 176 1494 176 1494 176 1514 c 0,16,17
 176 1555 176 1555 215 1565 c 2,18,-1
 391 1610 l 2,19,20
 399 1612 399 1612 403 1612 c 2,21,-1
 530 1612 l 2,22,23
 556 1612 556 1612 574 1588.5 c 128,-1,24
 592 1565 592 1565 645 1527 c 128,-1,25
 698 1489 698 1489 716 1471 c 0,26,27
 785 1402 785 1402 786 1293 c 1,28,29
 795 1182 795 1182 795 1180 c 2,30,-1
 795 1157 l 2,31,32
 796 1148 796 1148 796 1130 c 0,33,34
 796 1040 796 1040 734.5 974.5 c 128,-1,35
 673 909 673 909 591 888.5 c 128,-1,36
 509 868 509 868 498 857 c 128,-1,37
 487 846 487 846 487 845 c 2,38,-1
 487 844 l 1,39,-1
 476 754 l 1,40,-1
 479 696 l 2,41,42
 479 694 479 694 483.5 682.5 c 128,-1,43
 488 671 488 671 493 649 c 1,44,45
 498 646 498 646 509 641 c 0,46,47
 532 631 532 631 547 617 c 1,48,49
 576 604 576 604 612 571 c 128,-1,50
 648 538 648 538 661 528.5 c 128,-1,51
 674 519 674 519 710 483 c 128,-1,52
 746 447 746 447 773.5 401 c 128,-1,53
 801 355 801 355 803 319 c 1,54,55
 811 286 811 286 811 240 c 2,56,-1
 811 229 l 2,57,58
 814 210 814 210 814 193 c 0,59,60
 814 114 814 114 768 68 c 0,61,62
 694 -6 694 -6 568 -6 c 1,63,-1
 393 9 l 1,64,-1
 350 6 l 2,65,66
 342 6 342 6 333 9 c 2,67,-1
 263 34 l 2,68,69
 229 47 229 47 229 75 c 128,-1,70
 229 103 229 103 244 118 c 128,-1,71
 259 133 259 133 274 133 c 128,-1,72
 289 133 289 133 298 130 c 2,73,-1
 355 110 l 1,74,75
 377 112 377 112 411.5 112 c 128,-1,76
 446 112 446 112 496 104.5 c 128,-1,77
 546 97 546 97 567 97 c 0,78,79
 652 97 652 97 690 135 c 0,80,81
 712 157 712 157 712 179 c 128,-1,82
 712 201 712 201 709 216 c 2,83,-1
 709 245 l 1,84,-1
 700 311 l 2,85,86
 700 325 700 325 676 365.5 c 128,-1,87
 652 406 652 406 617 432.5 c 128,-1,88
 582 459 582 459 548.5 489 c 128,-1,89
 515 519 515 519 502.5 524 c 128,-1,90
 490 529 490 529 483 536 c 128,-1,91
 476 543 476 543 452 556 c 0,92,93
 394 587 394 587 393 627 c 0,94,95
 393 632 393 632 385 652.5 c 128,-1,96
 377 673 377 673 377 696 c 2,97,-1
 374 752 l 2,98,99
 374 778 374 778 377.5 788.5 c 128,-1,100
 381 799 381 799 382.5 820 c 128,-1,101
 384 841 384 841 385 849 c 0,102,103
 389 926 389 926 484 964 c 0,104,105
 521 978 521 978 568 989 c 128,-1,106
 615 1000 615 1000 654.5 1038.5 c 128,-1,107
 694 1077 694 1077 694 1129 c 2,0,-1
EndSplineSet
Validated: 1
EndChar

StartChar: four
Encoding: 52 52 22
GlifName: four
Width: 1196
Flags: W
LayerCount: 2
Fore
SplineSet
954 1107 m 2,0,-1
 953 1223 l 1,1,-1
 955 1285 l 2,2,3
 955 1373 955 1373 918 1452.5 c 128,-1,4
 881 1532 881 1532 823 1587 c 0,5,6
 804 1605 804 1605 804 1631.5 c 128,-1,7
 804 1658 804 1658 822 1676 c 128,-1,8
 840 1694 840 1694 864.5 1694 c 128,-1,9
 889 1694 889 1694 908 1677 c 0,10,11
 983 1606 983 1606 1031 1504 c 128,-1,12
 1079 1402 1079 1402 1079 1286 c 1,13,-1
 1076 1223 l 1,14,-1
 1078 1097 l 2,15,16
 1078 1021 1078 1021 1070 960 c 1,17,18
 1110 965 1110 965 1127 965 c 128,-1,19
 1144 965 1144 965 1162.5 946.5 c 128,-1,20
 1181 928 1181 928 1181 904 c 128,-1,21
 1181 880 1181 880 1165 862.5 c 128,-1,22
 1149 845 1149 845 1126 842 c 2,23,-1
 1043 832 l 1,24,25
 993 492 993 492 767 192 c 0,26,27
 758 180 758 180 698 111 c 0,28,29
 628 32 628 32 618 26 c 2,30,-1
 574 2 l 2,31,32
 560 -6 560 -6 539 -6 c 128,-1,33
 518 -6 518 -6 500 12 c 128,-1,34
 482 30 482 30 482 61 c 128,-1,35
 482 92 482 92 514 110 c 2,36,-1
 549 129 l 1,37,38
 559 140 559 140 607 195.5 c 128,-1,39
 655 251 655 251 668 266 c 0,40,41
 863 524 863 524 915 815 c 1,42,-1
 790 797 l 1,43,-1
 785 797 l 1,44,-1
 571 787 l 1,45,-1
 559 787 l 1,46,-1
 426 807 l 2,47,48
 374 816 374 816 304.5 852 c 128,-1,49
 235 888 235 888 191 926 c 0,50,51
 14 1081 14 1081 14 1258 c 0,52,53
 14 1269 14 1269 16 1293 c 2,54,-1
 13 1357 l 2,55,56
 13 1380 13 1380 16 1395 c 128,-1,57
 19 1410 19 1410 24 1470 c 128,-1,58
 29 1530 29 1530 41 1564 c 1,59,-1
 41 1597 l 2,60,61
 42 1612 42 1612 52 1637 c 0,62,63
 72 1684 72 1684 105 1684 c 128,-1,64
 138 1684 138 1684 156 1666 c 128,-1,65
 174 1648 174 1648 174 1629 c 128,-1,66
 174 1610 174 1610 165 1585 c 1,67,-1
 165 1553 l 2,68,69
 165 1541 165 1541 159 1526.5 c 128,-1,70
 153 1512 153 1512 147.5 1452 c 128,-1,71
 142 1392 142 1392 140 1382.5 c 128,-1,72
 138 1373 138 1373 138 1356 c 2,73,-1
 140 1290 l 1,74,-1
 138 1259 l 1,75,76
 138 1140 138 1140 272 1019 c 0,77,78
 301 994 301 994 353.5 966.5 c 128,-1,79
 406 939 406 939 447 929 c 1,80,-1
 572 911 l 1,81,-1
 776 920 l 1,82,-1
 942 944 l 1,83,84
 954 1011 954 1011 954 1107 c 2,0,-1
EndSplineSet
Validated: 1
EndChar

StartChar: five
Encoding: 53 53 23
GlifName: five
Width: 1060
Flags: W
LayerCount: 2
Fore
SplineSet
848 1509 m 1,0,-1
 847 1513 l 1,1,2
 847 1544 847 1544 865 1560 c 128,-1,3
 883 1576 883 1576 901.5 1576 c 128,-1,4
 920 1576 920 1576 934.5 1561.5 c 128,-1,5
 949 1547 949 1547 949 1531 c 128,-1,6
 949 1515 949 1515 945 1503 c 2,7,-1
 941 1465 l 2,8,9
 941 1439 941 1439 902 1400 c 0,10,11
 851 1349 851 1349 732 1349 c 0,12,13
 671 1349 671 1349 633 1367 c 128,-1,14
 595 1385 595 1385 567.5 1400.5 c 128,-1,15
 540 1416 540 1416 523 1424 c 128,-1,16
 506 1432 506 1432 500 1438 c 2,17,-1
 421 1517 l 1,18,-1
 297 1540 l 1,19,-1
 187 1537 l 1,20,21
 139 1476 139 1476 132 1395 c 0,22,23
 127 1375 127 1375 127 1337 c 0,24,25
 127 1181 127 1181 270 1038 c 0,26,27
 383 925 383 925 550 852 c 1,28,-1
 556 849 l 1,29,30
 594 825 594 825 675 789.5 c 128,-1,31
 756 754 756 754 781 742 c 0,32,33
 983 649 983 649 1014 489 c 0,34,35
 1034 389 1034 389 1034 305 c 2,36,-1
 1034 300 l 1,37,38
 998 -19 998 -19 820 -19 c 0,39,40
 789 -19 789 -19 767 -13 c 1,41,42
 743 -15 743 -15 671.5 -15 c 128,-1,43
 600 -15 600 -15 502.5 7.5 c 128,-1,44
 405 30 405 30 348 87 c 128,-1,45
 291 144 291 144 270 209 c 0,46,47
 268 214 268 214 268 229 c 128,-1,48
 268 244 268 244 282 258 c 128,-1,49
 296 272 296 272 314 272 c 0,50,51
 351 272 351 272 363 238 c 0,52,53
 396 134 396 134 544 98 c 0,54,55
 612 82 612 82 672 82 c 128,-1,56
 732 82 732 82 768 85 c 2,57,-1
 772 85 l 1,58,-1
 820 78 l 1,59,60
 915 78 915 78 937 308 c 1,61,62
 937 499 937 499 863 573 c 0,63,64
 809 627 809 627 679 683 c 128,-1,65
 549 739 549 739 508 764 c 1,66,67
 328 843 328 843 202 969 c 0,68,69
 29 1142 29 1142 29 1337 c 0,70,71
 29 1519 29 1519 130 1620 c 0,72,73
 144 1634 144 1634 163 1634 c 2,74,-1
 300 1638 l 1,75,-1
 301 1638 l 2,76,77
 307 1638 307 1638 310 1637 c 2,78,-1
 454 1610 l 2,79,80
 468 1607 468 1607 479 1596 c 2,81,-1
 563 1513 l 1,82,83
 583 1503 583 1503 611 1487 c 128,-1,84
 639 1471 639 1471 654 1464 c 0,85,86
 693 1446 693 1446 729 1446 c 0,87,88
 817 1446 817 1446 844 1480 c 1,89,-1
 848 1509 l 1,0,-1
EndSplineSet
Validated: 1
EndChar

StartChar: six
Encoding: 54 54 24
GlifName: six
Width: 942
Flags: W
LayerCount: 2
Fore
SplineSet
885 315 m 1,0,-1
 878 220 l 1,1,-1
 882 176 l 1,2,-1
 868 106 l 1,3,4
 868 66 868 66 837.5 33 c 128,-1,5
 807 -0 807 -0 796.5 -15.5 c 128,-1,6
 786 -31 786 -31 760 -31 c 2,7,-1
 481 -31 l 1,8,-1
 377 -18 l 2,9,10
 363 -16 363 -16 354 -10 c 2,11,-1
 276 44 l 2,12,13
 269 49 269 49 256.5 69 c 128,-1,14
 244 89 244 89 221.5 113.5 c 128,-1,15
 199 138 199 138 185.5 179.5 c 128,-1,16
 172 221 172 221 172 229 c 2,17,-1
 131 414 l 1,18,-1
 127 450 l 2,19,20
 123 462 123 462 123 470 c 2,21,-1
 119 660 l 1,22,-1
 103 826 l 2,23,24
 102 830 102 830 102 831 c 2,25,-1
 98 1147 l 1,26,-1
 99 1152 l 1,27,-1
 107 1242 l 2,28,29
 109 1258 109 1258 112.5 1286.5 c 0,30,31
 116 1316 116 1316 121 1334 c 0,32,33
 130 1368 130 1368 133.5 1378.5 c 128,-1,34
 137 1389 137 1389 139 1405 c 0,35,36
 139 1485 139 1485 213 1559 c 0,37,38
 248 1594 248 1594 298 1616 c 0,39,40
 362 1644 362 1644 385 1644.5 c 128,-1,41
 408 1645 408 1645 423 1630 c 128,-1,42
 438 1615 438 1615 438 1594.5 c 128,-1,43
 438 1574 438 1574 426 1560 c 128,-1,44
 414 1546 414 1546 397 1543 c 128,-1,45
 380 1540 380 1540 343.5 1524 c 128,-1,46
 307 1508 307 1508 274.5 1475.5 c 128,-1,47
 242 1443 242 1443 242 1405 c 1,48,-1
 238 1372 l 2,49,50
 238 1363 238 1363 235 1356 c 2,51,-1
 223 1316 l 2,52,53
 220 1305 220 1305 209 1231 c 1,54,-1
 201 1145 l 1,55,-1
 205 834 l 1,56,-1
 221 669 l 1,57,-1
 221 665 l 1,58,-1
 225 480 l 1,59,60
 230 470 230 470 230 460 c 2,61,-1
 229 455 l 1,62,-1
 233 420 l 1,63,64
 250 370 250 370 256.5 327 c 128,-1,65
 263 284 263 284 268 268 c 0,66,67
 272 252 272 252 274 243 c 0,68,69
 281 200 281 200 298 182 c 128,-1,70
 315 164 315 164 343 122 c 1,71,-1
 402 82 l 1,72,-1
 484 72 l 1,73,-1
 735 72 l 1,74,75
 738 76 738 76 747 85.5 c 128,-1,76
 756 95 756 95 766 110 c 1,77,78
 767 125 767 125 773 146.5 c 128,-1,79
 779 168 779 168 779 177 c 2,80,-1
 779 179 l 2,81,82
 776 193 776 193 776 220 c 2,83,-1
 782 315 l 1,84,-1
 770 419 l 2,85,86
 769 423 769 423 765.5 433.5 c 128,-1,87
 762 444 762 444 762 454 c 0,88,89
 760 465 760 465 759 469 c 0,90,91
 752 472 752 472 719.5 475 c 128,-1,92
 687 478 687 478 673 481 c 2,93,-1
 672 481 l 1,94,-1
 490 512 l 1,95,-1
 481 461 l 1,96,-1
 477 376 l 2,97,98
 475 356 475 356 461 342 c 128,-1,99
 447 328 447 328 426 328 c 128,-1,100
 405 328 405 328 390 343 c 128,-1,101
 375 358 375 358 375 379 c 2,102,-1
 379 461 l 2,103,104
 379 477 379 477 388 519 c 0,105,106
 387 523 387 523 387 545 c 128,-1,107
 387 567 387 567 406 586 c 0,108,109
 435 615 435 615 474.5 615 c 128,-1,110
 514 615 514 615 587.5 599.5 c 128,-1,111
 661 584 661 584 674 584 c 2,112,-1
 678 584 l 2,113,114
 681 584 681 584 691 582 c 128,-1,115
 701 580 701 580 732 578 c 0,116,117
 802 572 802 572 826 548 c 128,-1,118
 850 524 850 524 854 510 c 0,119,120
 861 488 861 488 864 463 c 1,121,122
 872 441 872 441 872 422 c 2,123,-1
 885 315 l 1,0,-1
EndSplineSet
Validated: 1
EndChar

StartChar: seven
Encoding: 55 55 25
GlifName: seven
Width: 897
Flags: W
LayerCount: 2
Fore
SplineSet
388 1345 m 2,0,-1
 310 1346 l 1,1,-1
 284 1345 l 1,2,3
 165 1345 165 1345 53 1457 c 0,4,5
 24 1486 24 1486 -30 1554 c 0,6,7
 -41 1568 -41 1568 -41 1587 c 128,-1,8
 -41 1606 -41 1606 -26 1621 c 128,-1,9
 -11 1636 -11 1636 13 1636 c 128,-1,10
 37 1636 37 1636 51 1617 c 0,11,12
 99 1556 99 1556 126 1529 c 0,13,14
 207 1448 207 1448 284 1448 c 2,15,-1
 310 1448 l 1,16,-1
 380 1447 l 2,17,18
 470 1447 470 1447 514 1476 c 0,19,20
 524 1483 524 1483 536 1485.5 c 128,-1,21
 548 1488 548 1488 586 1506 c 0,22,23
 630 1528 630 1528 689 1528 c 128,-1,24
 748 1528 748 1528 793 1485.5 c 128,-1,25
 838 1443 838 1443 845 1395.5 c 128,-1,26
 852 1348 852 1348 852 1294 c 2,27,-1
 852 1290 l 2,28,29
 849 1242 849 1242 833 1210 c 128,-1,30
 817 1178 817 1178 808 1161.5 c 128,-1,31
 799 1145 799 1145 792.5 1132 c 128,-1,32
 786 1119 786 1119 758 1067 c 0,33,34
 697 955 697 955 682 900 c 0,35,36
 602 593 602 593 602 391 c 2,37,-1
 602 336 l 1,38,-1
 601 293 l 2,39,40
 601 204 601 204 621.5 136 c 128,-1,41
 642 68 642 68 648 46 c 1,42,43
 664 24 664 24 664 5.5 c 128,-1,44
 664 -13 664 -13 649 -28 c 128,-1,45
 634 -43 634 -43 610.5 -43 c 128,-1,46
 587 -43 587 -43 569.5 -19.5 c 128,-1,47
 552 4 552 4 550 13 c 128,-1,48
 548 22 548 22 523 107.5 c 128,-1,49
 498 193 498 193 498 250.5 c 128,-1,50
 498 308 498 308 500 338 c 2,51,-1
 500 394 l 2,52,53
 500 615 500 615 583 927 c 0,54,55
 603 1001 603 1001 649 1083 c 128,-1,56
 695 1165 695 1165 701 1177 c 0,57,58
 707 1188 707 1188 709 1192 c 0,59,60
 746 1257 746 1257 750 1297 c 1,61,62
 750 1344 750 1344 746.5 1367.5 c 128,-1,63
 743 1391 743 1391 726 1408 c 128,-1,64
 709 1425 709 1425 687 1425 c 2,65,-1
 666 1423 l 2,66,67
 648 1423 648 1423 611.5 1406 c 128,-1,68
 575 1389 575 1389 563 1386 c 0,69,70
 497 1345 497 1345 388 1345 c 2,0,-1
EndSplineSet
Validated: 1
EndChar

StartChar: eight
Encoding: 56 56 26
GlifName: eight
Width: 1007
Flags: W
LayerCount: 2
Fore
SplineSet
889 494 m 1,0,-1
 885 542 l 2,1,2
 885 555 885 555 879 577 c 0,3,4
 830 761 830 761 732 836 c 1,5,6
 690 862 690 862 690 896 c 0,7,8
 690 918 690 918 706.5 935 c 128,-1,9
 723 952 723 952 775 967 c 0,10,11
 809 977 809 977 835 1003 c 0,12,13
 861 1029 861 1029 896 1124 c 0,14,15
 897 1129 897 1129 899 1138 c 2,16,-1
 910 1286 l 1,17,18
 910 1346 910 1346 880 1358 c 0,19,20
 874 1360 874 1360 860 1376 c 0,21,22
 854 1382 854 1382 855 1383 c 128,-1,23
 856 1384 856 1384 848 1396 c 128,-1,24
 840 1408 840 1408 815.5 1417 c 128,-1,25
 791 1426 791 1426 786 1430 c 2,26,-1
 754 1454 l 2,27,28
 752 1455 752 1455 704 1470.5 c 128,-1,29
 656 1486 656 1486 651 1491 c 0,30,31
 625 1518 625 1518 586 1516 c 0,32,33
 571 1516 571 1516 545 1513 c 128,-1,34
 519 1510 519 1510 503 1510 c 0,35,36
 400 1510 400 1510 242 1437 c 0,37,38
 230 1432 230 1432 192 1398 c 0,39,40
 176 1384 176 1384 169 1379 c 0,41,42
 127 1351 127 1351 127 1300 c 2,43,-1
 137 1152 l 2,44,45
 139 1143 139 1143 157 1093 c 128,-1,46
 175 1043 175 1043 201 1017 c 128,-1,47
 227 991 227 991 239.5 988.5 c 128,-1,48
 252 986 252 986 261 982 c 0,49,50
 266 980 266 980 282 975 c 128,-1,51
 298 970 298 970 309.5 964.5 c 128,-1,52
 321 959 321 959 333.5 946.5 c 128,-1,53
 346 934 346 934 346 905.5 c 128,-1,54
 346 877 346 877 304 850 c 1,55,56
 229 793 229 793 190 691.5 c 128,-1,57
 151 590 151 590 151 556 c 2,58,-1
 147 508 l 1,59,-1
 148 470 l 1,60,-1
 144 411 l 1,61,62
 144 316 144 316 226.5 233.5 c 128,-1,63
 309 151 309 151 363 140 c 2,64,-1
 547 113 l 1,65,-1
 675 126 l 1,66,-1
 680 126 l 2,67,68
 686 126 686 126 699 134 c 0,69,70
 892 253 892 253 892 397 c 1,71,-1
 888 456 l 1,72,-1
 889 494 l 1,0,-1
987 1136 m 2,73,74
 987 1124 987 1124 981 1100 c 0,75,76
 915 911 915 911 809 887 c 1,77,78
 884 825 884 825 934 696 c 0,79,80
 977 586 977 586 977 498 c 2,81,-1
 976 455 l 1,82,-1
 976 445 l 1,83,84
 980 424 980 424 980 397 c 0,85,86
 980 203 980 203 745 59 c 0,87,88
 710 38 710 38 682 38 c 2,89,-1
 546 24 l 1,90,-1
 540 25 l 1,91,-1
 353 53 l 1,92,93
 325 53 325 53 292 73 c 0,94,95
 56 217 56 217 56 411 c 0,96,97
 56 438 56 438 60 459 c 1,98,-1
 60 513 l 2,99,100
 60 555 60 555 72 613 c 0,101,102
 121 795 121 795 210 884 c 0,103,104
 219 893 219 893 221.5 896 c 128,-1,105
 224 899 224 899 227 901 c 1,106,107
 192 910 192 910 164 932 c 0,108,109
 103 980 103 980 55 1114 c 1,110,111
 49 1144 49 1144 49 1150 c 2,112,-1
 39 1299 l 1,113,114
 39 1392 39 1392 114 1447 c 0,115,116
 125 1455 125 1455 151 1479 c 128,-1,117
 177 1503 177 1503 205 1516 c 0,118,119
 385 1598 385 1598 488.5 1598 c 128,-1,120
 592 1598 592 1598 740 1539 c 0,121,122
 802 1514 802 1514 854 1478 c 128,-1,123
 906 1442 906 1442 915 1438 c 0,124,125
 998 1406 998 1406 998 1287 c 1,126,-1
 987 1136 l 2,73,74
EndSplineSet
Validated: 33
EndChar

StartChar: nine
Encoding: 57 57 27
GlifName: nine
Width: 942
Flags: W
LayerCount: 2
Fore
SplineSet
98 1298 m 1,0,-1
 105 1394 l 1,1,-1
 101 1437 l 1,2,-1
 115 1508 l 1,3,4
 115 1548 115 1548 145.5 1581 c 128,-1,5
 176 1614 176 1614 186.5 1629.5 c 128,-1,6
 197 1645 197 1645 223 1645 c 2,7,-1
 502 1645 l 1,8,-1
 606 1632 l 2,9,10
 619 1630 619 1630 629 1623 c 2,11,-1
 707 1570 l 2,12,13
 714 1565 714 1565 726.5 1545 c 128,-1,14
 739 1525 739 1525 761.5 1500.5 c 128,-1,15
 784 1476 784 1476 797.5 1434.5 c 128,-1,16
 811 1393 811 1393 811 1384 c 2,17,-1
 852 1200 l 1,18,-1
 856 1164 l 2,19,20
 860 1152 860 1152 860 1144 c 2,21,-1
 864 953 l 1,22,-1
 880 787 l 1,23,-1
 881 783 l 1,24,-1
 885 467 l 1,25,-1
 885 462 l 1,26,-1
 876 372 l 2,27,28
 874 356 874 356 870.5 327.5 c 128,-1,29
 867 299 867 299 862 280.5 c 0,30,31
 856 262 856 262 852 250 c 0,32,33
 847 236 847 236 844 209 c 0,34,35
 844 129 844 129 770 55 c 0,36,37
 734 20 734 20 684 -2 c 0,38,39
 620 -30 620 -30 597.5 -30.5 c 128,-1,40
 575 -31 575 -31 560 -16 c 128,-1,41
 545 -1 545 -1 545 19 c 128,-1,42
 545 39 545 39 557 53.5 c 128,-1,43
 569 68 569 68 586 71 c 128,-1,44
 603 74 603 74 640.5 90.5 c 128,-1,45
 678 107 678 107 709.5 138.5 c 128,-1,46
 741 170 741 170 741 209 c 1,47,-1
 745 242 l 2,48,49
 745 250 745 250 748 258 c 0,50,51
 764 303 764 303 775 383 c 1,52,-1
 782 469 l 1,53,-1
 778 779 l 1,54,-1
 762 945 l 1,55,-1
 762 949 l 1,56,-1
 758 1134 l 1,57,58
 753 1144 753 1144 753 1154 c 2,59,-1
 754 1159 l 1,60,-1
 750 1194 l 1,61,62
 733 1244 733 1244 726.5 1287 c 128,-1,63
 720 1330 720 1330 715 1346 c 128,-1,64
 710 1362 710 1362 708 1371 c 0,65,66
 700 1416 700 1416 684 1433 c 128,-1,67
 668 1450 668 1450 640 1492 c 1,68,-1
 581 1532 l 1,69,-1
 499 1542 l 1,70,-1
 248 1542 l 1,71,72
 245 1538 245 1538 236 1528.5 c 128,-1,73
 227 1519 227 1519 217 1504 c 1,74,75
 216 1489 216 1489 210 1467.5 c 128,-1,76
 204 1446 204 1446 204 1437 c 2,77,-1
 204 1434 l 2,78,79
 207 1420 207 1420 207 1393 c 2,80,-1
 201 1298 l 1,81,-1
 213 1194 l 1,82,-1
 221 1160 l 1,83,-1
 224 1145 l 1,84,85
 231 1142 231 1142 263.5 1139 c 128,-1,86
 296 1136 296 1136 310 1133 c 2,87,-1
 311 1133 l 1,88,-1
 493 1102 l 1,89,-1
 502 1153 l 1,90,-1
 506 1238 l 2,91,92
 508 1258 508 1258 522 1272 c 128,-1,93
 536 1286 536 1286 557 1286 c 128,-1,94
 578 1286 578 1286 593 1271 c 128,-1,95
 608 1256 608 1256 608 1235 c 2,96,-1
 604 1153 l 2,97,98
 604 1137 604 1137 595 1095 c 0,99,100
 596 1091 596 1091 596 1069 c 128,-1,101
 596 1047 596 1047 577 1028 c 0,102,103
 548 999 548 999 508.5 999 c 128,-1,104
 469 999 469 999 395.5 1014.5 c 128,-1,105
 322 1030 322 1030 309 1030 c 2,106,-1
 305 1030 l 2,107,108
 298 1030 298 1030 290.5 1031.5 c 0,109,110
 284 1033 284 1033 252 1036 c 0,111,112
 181 1043 181 1043 157 1066.5 c 0,113,114
 132 1090 132 1090 128 1104 c 0,115,116
 121 1126 121 1126 119 1151 c 1,117,118
 111 1173 111 1173 111 1192 c 2,119,-1
 98 1298 l 1,0,-1
EndSplineSet
Validated: 1
EndChar

StartChar: colon
Encoding: 58 58 28
GlifName: colon
Width: 274
Flags: W
LayerCount: 2
Fore
SplineSet
61 365 m 0,0,1
 94 403 94 403 145.5 395.5 c 128,-1,2
 197 388 197 388 216 339 c 0,3,4
 234 289 234 289 200.5 250 c 128,-1,5
 167 211 167 211 116.5 218 c 128,-1,6
 66 225 66 225 47 276 c 0,7,8
 29 327 29 327 61 365 c 0,0,1
47 861 m 0,9,10
 29 912 29 912 62 950.5 c 128,-1,11
 95 989 95 989 146 981.5 c 128,-1,12
 197 974 197 974 216 925 c 0,13,14
 234 875 234 875 200.5 836 c 128,-1,15
 167 797 167 797 116.5 804 c 128,-1,16
 66 811 66 811 47 861 c 0,9,10
EndSplineSet
Validated: 33
EndChar

StartChar: semicolon
Encoding: 59 59 29
GlifName: semicolon
Width: 901
Flags: W
LayerCount: 2
Fore
SplineSet
436 541 m 2,0,1
 387 541 387 541 387 498 c 2,2,-1
 387 473 l 1,3,-1
 430 455 l 1,4,5
 420 437 420 437 415.5 429.5 c 128,-1,6
 411 422 411 422 396 414 c 128,-1,7
 381 406 381 406 362 412 c 1,8,9
 330 412 330 412 309 442.5 c 128,-1,10
 288 473 288 473 282 507.5 c 128,-1,11
 276 542 276 542 277 583.5 c 128,-1,12
 278 625 278 625 317 657 c 128,-1,13
 356 689 356 689 406 682 c 1,14,15
 471 696 471 696 530 681 c 128,-1,16
 589 666 589 666 628.5 630.5 c 128,-1,17
 668 595 668 595 685.5 538.5 c 128,-1,18
 703 482 703 482 688 418 c 1,19,20
 689 402 689 402 690 356 c 128,-1,21
 691 310 691 310 695 225.5 c 0,22,23
 699 142 699 142 657 42 c 128,-1,24
 615 -58 615 -58 492 -98 c 0,25,26
 468 -108 468 -108 399 -145.5 c 128,-1,27
 330 -183 330 -183 321 -183 c 0,28,29
 305 -184 305 -184 375 -117 c 0,30,31
 390 -102 390 -102 414.5 -80.5 c 128,-1,32
 439 -59 439 -59 456 -43.5 c 128,-1,33
 473 -28 473 -28 495 -7 c 128,-1,34
 517 14 517 14 532 32.5 c 128,-1,35
 547 51 547 51 563 74 c 128,-1,36
 579 97 579 97 588 120 c 128,-1,37
 597 143 597 143 603.5 169.5 c 128,-1,38
 610 196 610 196 609.5 226 c 128,-1,39
 609 256 609 256 602 286.5 c 128,-1,40
 595 317 595 317 600 368 c 0,41,42
 606 419 606 419 596 474 c 0,43,44
 586 535 586 535 510 535 c 1,45,-1
 436 541 l 2,0,1
480 1193 m 0,46,47
 498 1143 498 1143 464.5 1104 c 128,-1,48
 431 1065 431 1065 380.5 1072 c 128,-1,49
 330 1079 330 1079 311.5 1129.5 c 128,-1,50
 293 1180 293 1180 326 1218.5 c 128,-1,51
 359 1257 359 1257 410 1249.5 c 128,-1,52
 461 1242 461 1242 480 1193 c 0,46,47
EndSplineSet
Validated: 33
EndChar

StartChar: less
Encoding: 60 60 30
GlifName: less
Width: 851
Flags: W
LayerCount: 2
Fore
SplineSet
335 844.5 m 128,-1,1
 369 853 369 853 475 874 c 128,-1,2
 581 895 581 895 615.5 913.5 c 128,-1,3
 650 932 650 932 667.5 932 c 128,-1,4
 685 932 685 932 700 917 c 128,-1,5
 715 902 715 902 715 875.5 c 128,-1,6
 715 849 715 849 687 835 c 0,7,8
 617 798 617 798 489.5 772.5 c 128,-1,9
 362 747 362 747 318.5 731 c 128,-1,10
 275 715 275 715 248.5 688.5 c 128,-1,11
 222 662 222 662 222 607 c 128,-1,12
 222 552 222 552 258 516 c 128,-1,13
 294 480 294 480 427 424 c 128,-1,14
 560 368 560 368 597 343.5 c 128,-1,15
 634 319 634 319 652 305 c 128,-1,16
 670 291 670 291 670 268 c 128,-1,17
 670 245 670 245 655 230 c 128,-1,18
 640 215 640 215 620.5 215 c 128,-1,19
 601 215 601 215 587 226 c 0,20,21
 533 269 533 269 402.5 324 c 128,-1,22
 272 379 272 379 226 411 c 0,23,24
 120 486 120 486 120 595 c 0,25,26
 120 755 120 755 256 816 c 0,27,0
 301 836 301 836 335 844.5 c 128,-1,1
EndSplineSet
Validated: 1
EndChar

StartChar: equal
Encoding: 61 61 31
GlifName: equal
Width: 768
Flags: W
LayerCount: 2
Fore
SplineSet
210 496 m 1,0,-1
 137 479 l 1,1,2
 116 479 116 479 101 494 c 128,-1,3
 86 509 86 509 86 528 c 128,-1,4
 86 547 86 547 97 561.5 c 128,-1,5
 108 576 108 576 119 579 c 128,-1,6
 130 582 130 582 146 586 c 0,7,8
 182 596 182 596 205.5 598 c 128,-1,9
 229 600 229 600 279.5 609.5 c 128,-1,10
 330 619 330 619 366 619 c 0,11,12
 472 612 472 612 484.5 607 c 128,-1,13
 497 602 497 602 498 602 c 2,14,-1
 617 548 l 1,15,-1
 687 510 l 2,16,17
 713 496 713 496 713 470 c 128,-1,18
 713 444 713 444 698 429 c 128,-1,19
 683 414 683 414 665.5 414 c 128,-1,20
 648 414 648 414 636 420 c 2,21,-1
 573 456 l 1,22,-1
 460 507 l 1,23,24
 436 513 436 513 376 516 c 2,25,-1
 366 516 l 2,26,27
 337 516 337 516 285.5 506.5 c 128,-1,28
 234 497 234 497 210 496 c 1,0,-1
210 754 m 1,29,-1
 137 737 l 1,30,31
 116 737 116 737 101 752 c 128,-1,32
 86 767 86 767 86 786 c 128,-1,33
 86 805 86 805 97 819.5 c 128,-1,34
 108 834 108 834 119 837 c 128,-1,35
 130 840 130 840 146 844 c 0,36,37
 182 854 182 854 205.5 856 c 128,-1,38
 229 858 229 858 279.5 867.5 c 128,-1,39
 330 877 330 877 366 877 c 0,40,41
 472 870 472 870 484.5 865 c 128,-1,42
 497 860 497 860 498 860 c 2,43,-1
 617 807 l 2,44,45
 620 804 620 804 621 804 c 2,46,-1
 687 768 l 2,47,48
 713 754 713 754 713 728 c 128,-1,49
 713 702 713 702 698 687 c 128,-1,50
 683 672 683 672 665.5 672 c 128,-1,51
 648 672 648 672 636 678 c 2,52,-1
 573 714 l 1,53,-1
 460 765 l 1,54,55
 436 771 436 771 376 774 c 2,56,-1
 366 774 l 2,57,58
 337 774 337 774 285.5 764.5 c 128,-1,59
 234 755 234 755 210 754 c 1,29,-1
EndSplineSet
Validated: 1
EndChar

StartChar: greater
Encoding: 62 62 32
GlifName: greater
Width: 851
Flags: W
LayerCount: 2
Fore
SplineSet
195 926 m 0,0,1
 254 895 254 895 385.5 869 c 128,-1,2
 517 843 517 843 579 816 c 0,3,4
 715 756 715 756 715 595 c 0,5,6
 715 485 715 485 609 411 c 0,7,8
 563 379 563 379 432.5 324 c 128,-1,9
 302 269 302 269 248 226 c 0,10,11
 234 215 234 215 214.5 215 c 128,-1,12
 195 215 195 215 180 230 c 128,-1,13
 165 245 165 245 165 268 c 128,-1,14
 165 291 165 291 183 305 c 128,-1,15
 201 319 201 319 238 343.5 c 128,-1,16
 275 368 275 368 408 424 c 128,-1,17
 541 480 541 480 576.5 515.5 c 128,-1,18
 612 551 612 551 612 607 c 128,-1,19
 612 663 612 663 586 689 c 128,-1,20
 560 715 560 715 516.5 731 c 128,-1,21
 473 747 473 747 345.5 772.5 c 128,-1,22
 218 798 218 798 148 835 c 0,23,24
 120 849 120 849 120 875.5 c 128,-1,25
 120 902 120 902 135 917 c 128,-1,26
 150 932 150 932 167 932 c 128,-1,27
 184 932 184 932 195 926 c 0,0,1
EndSplineSet
Validated: 1
EndChar

StartChar: question
Encoding: 63 63 33
GlifName: question
Width: 688
Flags: W
LayerCount: 2
Fore
SplineSet
570 69 m 2,0,-1
 569 51 l 2,1,2
 571 35 571 35 571 24 c 2,3,-1
 571 15 l 2,4,5
 569 -14 569 -14 550.5 -32.5 c 128,-1,6
 532 -51 532 -51 500 -51 c 0,7,8
 452 -51 452 -51 436 -11 c 1,9,10
 406 4 406 4 406 46 c 2,11,-1
 406 49 l 2,12,13
 406 87 406 87 430 111 c 0,14,15
 457 138 457 138 495 138 c 0,16,17
 562 138 562 138 569 81 c 0,18,19
 570 76 570 76 570 69 c 2,0,-1
262 1373 m 1,20,-1
 267 1339 l 1,21,-1
 267 1330 l 2,22,23
 268 1325 268 1325 272 1315 c 0,24,25
 280 1294 280 1294 279 1274 c 2,26,-1
 279 1266 l 2,27,28
 279 1244 279 1244 264 1229 c 128,-1,29
 249 1214 249 1214 227.5 1214 c 128,-1,30
 206 1214 206 1214 191 1229 c 128,-1,31
 176 1244 176 1244 176 1266 c 2,32,-1
 176 1273 l 2,33,34
 176 1278 176 1278 172 1288 c 0,35,36
 164 1310 164 1310 164 1331 c 2,37,-1
 164 1339 l 1,38,39
 160 1359 160 1359 160 1372 c 2,40,-1
 156 1454 l 2,41,42
 156 1462 156 1462 165 1499.5 c 0,43,44
 174 1536 174 1536 202 1584 c 0,45,46
 245 1656 245 1656 327 1657 c 0,47,48
 339 1657 339 1657 363 1653 c 1,49,-1
 378 1653 l 2,50,51
 522 1652 522 1652 604 1566 c 0,52,53
 648 1520 648 1520 648 1454 c 2,54,-1
 648 1439 l 2,55,56
 649 1430 649 1430 649 1410 c 128,-1,57
 649 1390 649 1390 645.5 1371.5 c 128,-1,58
 642 1353 642 1353 634.5 1330 c 128,-1,59
 627 1307 627 1307 625 1298.5 c 128,-1,60
 623 1290 623 1290 618.5 1277.5 c 128,-1,61
 614 1265 614 1265 608.5 1252 c 128,-1,62
 603 1239 603 1239 602 1235 c 2,63,-1
 598 1204 l 2,64,65
 598 1197 598 1197 597 1193 c 0,66,67
 571 1079 571 1079 511 994 c 0,68,69
 505 986 505 986 452 916 c 0,70,71
 348 780 348 780 348 730 c 2,72,-1
 348 722 l 2,73,74
 348 711 348 711 340 652 c 1,75,-1
 340 553 l 1,76,-1
 348 475 l 2,77,78
 350 467 350 467 355 447 c 128,-1,79
 360 427 360 427 360 415.5 c 128,-1,80
 360 404 360 404 366.5 384.5 c 128,-1,81
 373 365 373 365 373 343 c 128,-1,82
 373 321 373 321 387 293 c 1,83,84
 400 305 400 305 421 305 c 128,-1,85
 442 305 442 305 456.5 290.5 c 0,86,87
 470 276 470 276 474 262 c 0,88,89
 478 245 478 245 479 229 c 1,90,91
 483 221 483 221 483 209 c 2,92,-1
 483 206 l 2,93,94
 483 183 483 183 467.5 167.5 c 128,-1,95
 452 152 452 152 430 152 c 2,96,-1
 419 154 l 1,97,98
 337 154 337 154 291 258 c 0,99,100
 270 305 270 305 270 344 c 1,101,-1
 258 406 l 1,102,-1
 246 475 l 1,103,-1
 238 553 l 1,104,-1
 238 655 l 1,105,-1
 246 723 l 1,106,-1
 246 729 l 2,107,108
 246 785 246 785 277 838.5 c 128,-1,109
 308 892 308 892 331 925 c 128,-1,110
 354 958 354 958 383.5 996 c 128,-1,111
 413 1034 413 1034 427 1054 c 0,112,113
 477 1126 477 1126 496 1211 c 0,114,115
 497 1218 497 1218 498.5 1226 c 128,-1,116
 500 1234 500 1234 500 1245.5 c 128,-1,117
 500 1257 500 1257 512.5 1287 c 128,-1,118
 525 1317 525 1317 526.5 1324.5 c 128,-1,119
 528 1332 528 1332 534 1351 c 0,120,121
 547 1392 547 1392 547 1411 c 2,122,-1
 545 1438 l 1,123,-1
 546 1456 l 2,124,125
 546 1480 546 1480 524 1502 c 0,126,127
 475 1551 475 1551 377 1551 c 1,128,-1
 358 1550 l 1,129,-1
 327 1554 l 2,130,131
 310 1554 310 1554 293.5 1537.5 c 128,-1,132
 277 1521 277 1521 258 1448 c 1,133,-1
 262 1373 l 1,20,-1
EndSplineSet
Validated: 1
EndChar

StartChar: at
Encoding: 64 64 34
GlifName: at
Width: 1380
Flags: W
LayerCount: 2
Fore
SplineSet
1044 471 m 1,0,1
 1047 489 1047 489 1047 521 c 0,2,3
 1047 690 1047 690 896 836 c 0,4,5
 894 840 894 840 893 840 c 0,6,7
 828 918 828 918 733 976 c 0,8,9
 592 1062 592 1062 468.5 1062 c 128,-1,10
 345 1062 345 1062 253 964 c 128,-1,11
 161 866 161 866 161 734 c 0,12,13
 161 704 161 704 164 689 c 0,14,15
 174 266 174 266 362 180 c 1,16,17
 519 148 519 148 669 148 c 128,-1,18
 819 148 819 148 1007 158 c 1,19,20
 1092 177 1092 177 1179 219 c 0,21,22
 1181 223 1181 223 1183 225 c 2,23,-1
 1224 274 l 2,24,25
 1240 293 1240 293 1262.5 293 c 128,-1,26
 1285 293 1285 293 1300 278 c 128,-1,27
 1315 263 1315 263 1315 243.5 c 128,-1,28
 1315 224 1315 224 1303 209 c 2,29,-1
 1270 169 l 1,30,31
 1252 124 1252 124 1057 66 c 0,32,33
 1051 64 1051 64 1042 62 c 128,-1,34
 1033 60 1033 60 1027 58 c 128,-1,35
 1021 56 1021 56 931.5 51 c 128,-1,36
 842 46 842 46 672 46 c 128,-1,37
 502 46 502 46 336 81 c 0,38,39
 333 84 333 84 326 84 c 0,40,41
 161 158 161 158 100 380 c 0,42,43
 68 493 68 493 62 685 c 1,44,-1
 59 734 l 1,45,46
 59 848 59 848 113.5 947 c 128,-1,47
 168 1046 168 1046 264.5 1105 c 128,-1,48
 361 1164 361 1164 475 1164 c 0,49,50
 522 1164 522 1164 558 1156 c 0,51,52
 783 1107 783 1107 966.5 909 c 128,-1,53
 1150 711 1150 711 1150 521 c 0,54,55
 1150 496 1150 496 1149 479 c 128,-1,56
 1148 462 1148 462 1148 444 c 0,57,58
 1148 364 1148 364 1108 310 c 128,-1,59
 1068 256 1068 256 996 256 c 0,60,61
 980 256 980 256 963 259 c 1,62,63
 940 257 940 257 922 257 c 0,64,65
 860 257 860 257 824 292.5 c 128,-1,66
 788 328 788 328 786 379 c 1,67,68
 778 411 778 411 778 418 c 2,69,-1
 778 432 l 1,70,71
 687 286 687 286 572 286 c 0,72,73
 485 286 485 286 429.5 341.5 c 128,-1,74
 374 397 374 397 360 463 c 128,-1,75
 346 529 346 529 346 571 c 128,-1,76
 346 613 346 613 348 657 c 2,77,-1
 348 661 l 2,78,79
 348 753 348 753 395 800 c 128,-1,80
 442 847 442 847 506 847 c 0,81,82
 517 847 517 847 523 846 c 2,83,-1
 537 847 l 1,84,85
 594 847 594 847 663 799 c 0,86,87
 735 747 735 747 745 683 c 1,88,-1
 745 673 l 2,89,90
 746 670 746 670 746 667 c 0,91,92
 746 645 746 645 730 629 c 128,-1,93
 714 613 714 613 691 613 c 128,-1,94
 668 613 668 613 653.5 628 c 128,-1,95
 639 643 639 643 639 656 c 128,-1,96
 639 669 639 669 641 677 c 1,97,98
 630 698 630 698 596.5 721 c 128,-1,99
 563 744 563 744 539 744 c 2,100,-1
 522 743 l 1,101,-1
 504 745 l 1,102,103
 450 745 450 745 450 660 c 1,104,-1
 451 655 l 1,105,106
 448 640 448 640 448 592 c 0,107,108
 448 434 448 434 527 399 c 0,109,110
 552 388 552 388 568 388 c 0,111,112
 608 388 608 388 640 420 c 128,-1,113
 672 452 672 452 704.5 508 c 128,-1,114
 737 564 737 564 755 582 c 128,-1,115
 773 600 773 600 800 600 c 0,116,117
 849 600 849 600 862 526 c 0,118,119
 864 510 864 510 868 504 c 0,120,121
 880 481 880 481 881 423 c 1,122,123
 889 396 889 396 889.5 383.5 c 128,-1,124
 890 371 890 371 896 365 c 128,-1,125
 902 359 902 359 921 359 c 128,-1,126
 940 359 940 359 957 362 c 2,127,-1
 965 362 l 1,128,-1
 999 358 l 2,129,130
 1013 358 1013 358 1029.5 374.5 c 128,-1,131
 1046 391 1046 391 1046 444 c 2,132,-1
 1044 471 l 1,0,1
EndSplineSet
Validated: 1
EndChar

StartChar: A
Encoding: 65 65 35
GlifName: A_
Width: 1490
Flags: W
LayerCount: 2
Fore
SplineSet
948 854 m 0,0,1
 915 857 915 857 884 857 c 128,-1,2
 853 857 853 857 750.5 832 c 128,-1,3
 648 807 648 807 631 804 c 0,4,5
 448 772 448 772 374 684 c 0,6,7
 328 631 328 631 297 600 c 2,8,-1
 196 508 l 2,9,10
 184 497 184 497 155 488 c 1,11,-1
 154 373 l 1,12,-1
 161 299 l 1,13,-1
 180 220 l 2,14,15
 182 208 182 208 182 203 c 2,16,-1
 182 199 l 1,17,-1
 190 178 l 1,18,19
 214 134 214 134 230 114 c 1,20,21
 274 93 274 93 274 55 c 128,-1,22
 274 17 274 17 250.5 -5 c 128,-1,23
 227 -27 227 -27 197 -27 c 2,24,-1
 188 -27 l 2,25,26
 158 -27 158 -27 128 3 c 0,27,28
 98 34 98 34 72 80 c 0,29,30
 31 153 31 153 31 194 c 1,31,-1
 12 269 l 2,32,33
 11 272 11 272 11 279 c 2,34,-1
 2 363 l 1,35,-1
 2 370 l 1,36,-1
 4 525 l 2,37,38
 2 535 2 535 2 541 c 128,-1,39
 2 547 2 547 4 557 c 2,40,-1
 6 768 l 2,41,42
 6 797 6 797 13 818 c 2,43,-1
 38 906 l 2,44,45
 38 909 38 909 39 911 c 2,46,-1
 87 1042 l 1,47,-1
 123 1186 l 2,48,49
 124 1188 124 1188 127 1198 c 128,-1,50
 130 1208 130 1208 142 1247.5 c 128,-1,51
 154 1287 154 1287 162.5 1315 c 0,52,53
 172 1344 172 1344 188 1388 c 0,54,55
 208 1440 208 1440 252 1478 c 0,56,57
 258 1484 258 1484 267.5 1492 c 128,-1,58
 277 1500 277 1500 292.5 1510.5 c 128,-1,59
 308 1521 308 1521 327.5 1531.5 c 128,-1,60
 347 1542 347 1542 364 1553 c 128,-1,61
 381 1564 381 1564 416 1577 c 128,-1,62
 451 1590 451 1590 460 1591 c 2,63,-1
 560 1607 l 2,64,65
 564 1608 564 1608 573 1608 c 2,66,-1
 821 1604 l 2,67,68
 828 1604 828 1604 832 1603 c 2,69,-1
 962 1583 l 2,70,71
 973 1577 973 1577 1015 1571 c 0,72,73
 1090 1559 1090 1559 1134 1532 c 1,74,75
 1176 1511 1176 1511 1188.5 1503.5 c 128,-1,76
 1201 1496 1201 1496 1220 1485 c 128,-1,77
 1239 1474 1239 1474 1250 1466 c 0,78,79
 1334 1409 1334 1409 1366 1333 c 128,-1,80
 1398 1257 1398 1257 1402 1236 c 2,81,-1
 1422 1112 l 1,82,-1
 1423 1110 l 1,83,-1
 1472 748 l 1,84,-1
 1472 742 l 2,85,86
 1474 696 1474 696 1474 618 c 128,-1,87
 1474 540 1474 540 1460 442 c 128,-1,88
 1446 344 1446 344 1444 318 c 0,89,90
 1440 271 1440 271 1431 252 c 2,91,-1
 1370 136 l 2,92,93
 1366 132 1366 132 1366 130 c 2,94,-1
 1303 34 l 1,95,-1
 1268 -34 l 2,96,97
 1247 -76 1247 -76 1199 -76 c 2,98,-1
 1186 -76 l 2,99,100
 1152 -76 1152 -76 1129 -54 c 128,-1,101
 1106 -32 1106 -32 1106 4 c 128,-1,102
 1106 40 1106 40 1143 62 c 1,103,-1
 1166 105 l 2,104,105
 1168 109 1168 109 1170 111 c 2,106,-1
 1237 208 l 1,107,-1
 1290 308 l 2,108,109
 1291 317 1291 317 1292.5 332 c 128,-1,110
 1294 347 1294 347 1295.5 360.5 c 128,-1,111
 1297 374 1297 374 1297 377 c 0,112,113
 1305 428 1305 428 1339 462 c 0,114,115
 1350 474 1350 474 1350 481 c 128,-1,116
 1350 488 1350 488 1343.5 500 c 128,-1,117
 1337 512 1337 512 1330.5 530 c 128,-1,118
 1324 548 1324 548 1308.5 615.5 c 128,-1,119
 1293 683 1293 683 1287 702 c 1,120,121
 1208 800 1208 800 1152 814 c 0,122,123
 1021 854 1021 854 948 854 c 0,0,1
554.5 942.5 m 128,-1,125
 607 952 607 952 719.5 980.5 c 128,-1,126
 832 1009 832 1009 879.5 1009 c 128,-1,127
 927 1009 927 1009 956.5 1007.5 c 128,-1,128
 986 1006 986 1006 1023.5 1000 c 128,-1,129
 1061 994 1061 994 1080 990 c 0,130,131
 1117 981 1117 981 1200 957 c 0,132,133
 1232 949 1232 949 1261.5 916.5 c 128,-1,134
 1291 884 1291 884 1324 837 c 1,135,136
 1289 1120 1289 1120 1254 1215 c 0,137,138
 1231 1284 1231 1284 1224 1298.5 c 128,-1,139
 1217 1313 1217 1313 1189.5 1339 c 128,-1,140
 1162 1365 1162 1365 1100.5 1399 c 128,-1,141
 1039 1433 1039 1433 1027 1436 c 128,-1,142
 1015 1439 1015 1439 980 1446.5 c 128,-1,143
 945 1454 945 1454 930 1458 c 2,144,-1
 812 1477 l 1,145,-1
 580 1481 l 1,146,-1
 491 1466 l 1,147,148
 457 1453 457 1453 449.5 1448 c 0,149,150
 442 1442 442 1442 424 1432 c 0,151,152
 383 1409 383 1409 375.5 1400.5 c 128,-1,153
 368 1392 368 1392 362 1388 c 0,154,155
 336 1369 336 1369 304 1266.5 c 128,-1,156
 272 1164 272 1164 271 1160 c 2,157,-1
 233 1010 l 2,158,159
 232 1009 232 1009 232 1006.5 c 128,-1,160
 232 1004 232 1004 231 1003 c 2,161,-1
 183 866 l 1,162,-1
 161 784 l 2,163,164
 160 776 160 776 157 671 c 1,165,-1
 186 699 l 2,166,167
 189 702 189 702 203 718.5 c 128,-1,168
 217 735 217 735 229.5 749.5 c 128,-1,169
 242 764 242 764 258 784 c 0,170,171
 322 862 322 862 412 897.5 c 128,-1,124
 502 933 502 933 554.5 942.5 c 128,-1,125
EndSplineSet
Validated: 1
EndChar

StartChar: B
Encoding: 66 66 36
GlifName: B_
Width: 1540
Flags: W
LayerCount: 2
Fore
SplineSet
1439 140 m 1,0,-1
 1428 120 l 2,1,2
 1417 98 1417 98 1385 71 c 0,3,4
 1300 2 1300 2 1221 -3 c 0,5,6
 1177 -6 1177 -6 957 -6 c 2,7,-1
 948 -6 l 1,8,9
 932 -29 932 -29 928 -29 c 128,-1,10
 924 -29 924 -29 908 -6 c 1,11,-1
 899 -6 l 2,12,13
 586 -6 586 -6 524 1 c 0,14,15
 498 4 498 4 498 18 c 0,16,17
 498 24 498 24 502 30 c 0,18,19
 505 32 505 32 509 35 c 128,-1,20
 513 38 513 38 524 46 c 128,-1,21
 535 54 535 54 577 82.5 c 128,-1,22
 619 111 619 111 631 120 c 1,23,-1
 668 116 l 2,24,25
 704 112 704 112 997 112 c 2,26,-1
 1280 112 l 1,27,-1
 1280 212 l 2,28,29
 1280 326 1280 326 1274 349 c 128,-1,30
 1268 372 1268 372 1247 392 c 0,31,32
 1176 455 1176 455 1106 472 c 0,33,34
 967 508 967 508 946.5 511 c 128,-1,35
 926 514 926 514 902 519 c 128,-1,36
 878 524 878 524 858.5 526.5 c 128,-1,37
 839 529 839 529 768 533 c 128,-1,38
 697 537 697 537 637 562 c 0,39,40
 482 628 482 628 482 694 c 0,41,42
 482 726 482 726 505 746.5 c 128,-1,43
 528 767 528 767 581 798.5 c 128,-1,44
 634 830 634 830 675.5 848.5 c 128,-1,45
 717 867 717 867 792 876 c 0,46,47
 833 881 833 881 879.5 887.5 c 128,-1,48
 926 894 926 894 964.5 898.5 c 128,-1,49
 1003 903 1003 903 1069.5 905.5 c 128,-1,50
 1136 908 1136 908 1196 920 c 1,51,52
 1199 970 1199 970 1199 1088 c 128,-1,53
 1199 1206 1199 1206 1194 1230.5 c 128,-1,54
 1189 1255 1189 1255 1172 1277.5 c 128,-1,55
 1155 1300 1155 1300 1095.5 1345.5 c 128,-1,56
 1036 1391 1036 1391 965 1431.5 c 128,-1,57
 894 1472 894 1472 866 1482 c 0,58,59
 778 1514 778 1514 619 1514 c 0,60,61
 524 1514 524 1514 457 1507 c 1,62,63
 440 1482 440 1482 380 1322 c 0,64,65
 324 1172 324 1172 319 1124 c 128,-1,66
 314 1076 314 1076 314 816 c 128,-1,67
 314 556 314 556 317.5 497 c 128,-1,68
 321 438 321 438 323 203 c 1,69,70
 186 133 186 133 179.5 133 c 128,-1,71
 173 133 173 133 168.5 137.5 c 128,-1,72
 164 142 164 142 164 146 c 2,73,-1
 164 148 l 1,74,-1
 163 213 l 1,75,-1
 164 305 l 2,76,77
 164 373 164 373 159 436 c 128,-1,78
 154 499 154 499 154 634 c 2,79,-1
 155 846 l 2,80,81
 156 1028 156 1028 160 1069.5 c 128,-1,82
 164 1111 164 1111 215 1259 c 128,-1,83
 266 1407 266 1407 291 1457 c 128,-1,84
 316 1507 316 1507 333 1525 c 128,-1,85
 350 1543 350 1543 398 1574 c 128,-1,86
 446 1605 446 1605 464.5 1611.5 c 128,-1,87
 483 1618 483 1618 530 1622.5 c 128,-1,88
 577 1627 577 1627 594 1629.5 c 128,-1,89
 611 1632 611 1632 734.5 1632 c 128,-1,90
 858 1632 858 1632 872.5 1628 c 128,-1,91
 887 1624 887 1624 929 1616 c 0,92,93
 1034 1598 1034 1598 1222 1458 c 0,94,95
 1304 1398 1304 1398 1326 1369 c 128,-1,96
 1348 1340 1348 1340 1354.5 1298.5 c 128,-1,97
 1361 1257 1361 1257 1362 1119 c 2,98,-1
 1362 1030 l 2,99,100
 1362 974 1362 974 1355.5 958.5 c 128,-1,101
 1349 943 1349 943 1326 928 c 0,102,103
 1196 849 1196 849 1147.5 826 c 128,-1,104
 1099 803 1099 803 1061.5 800.5 c 128,-1,105
 1024 798 1024 798 1001 795.5 c 128,-1,106
 978 793 978 793 917.5 790 c 128,-1,107
 857 787 857 787 830.5 781.5 c 128,-1,108
 804 776 804 776 762 772 c 128,-1,109
 720 768 720 768 639 758 c 1,110,111
 663 726 663 726 680 713 c 128,-1,112
 697 700 697 700 753.5 673 c 128,-1,113
 810 646 810 646 891 643.5 c 128,-1,114
 972 641 972 641 999 634.5 c 128,-1,115
 1026 628 1026 628 1060.5 621.5 c 128,-1,116
 1095 615 1095 615 1121.5 609 c 128,-1,117
 1148 603 1148 603 1178.5 594 c 128,-1,118
 1209 585 1209 585 1248.5 576 c 128,-1,119
 1288 567 1288 567 1347 521 c 128,-1,120
 1406 475 1406 475 1423 444.5 c 128,-1,121
 1440 414 1440 414 1440 309 c 2,122,-1
 1439 140 l 1,0,-1
EndSplineSet
Validated: 1
EndChar

StartChar: C
Encoding: 67 67 37
GlifName: C_
Width: 921
Flags: W
LayerCount: 2
Fore
SplineSet
837 1382 m 2,0,1
 837 1381 l 2,2,3
 837 1376 837 1376 775 1341.5 c 128,-1,4
 713 1307 713 1307 702 1307 c 0,5,6
 690 1307 690 1307 674 1342 c 0,7,8
 662 1369 662 1369 638.5 1406.5 c 128,-1,9
 615 1444 615 1444 606 1453 c 0,10,11
 566 1484 566 1484 455 1484 c 2,12,-1
 406 1484 l 1,13,14
 364 1444 364 1444 333.5 1386.5 c 0,15,16
 302 1330 302 1330 294 1286 c 0,17,18
 288 1252 288 1252 277.5 1204.5 c 128,-1,19
 267 1157 267 1157 267 1083 c 1,20,-1
 268 1067 l 1,21,-1
 268 1063 l 2,22,23
 268 1054 268 1054 264 1011.5 c 128,-1,24
 260 969 260 969 260 821 c 2,25,-1
 260 678 l 2,26,27
 260 397 260 397 268 375 c 0,28,29
 274 358 274 358 303 307 c 128,-1,30
 332 256 332 256 349 236 c 0,31,32
 388 187 388 187 469 164 c 0,33,34
 507 153 507 153 531.5 151 c 128,-1,35
 556 149 556 149 663 149 c 2,36,-1
 846 149 l 1,37,-1
 866 144 l 1,38,-1
 874 144 l 2,39,40
 890 144 890 144 890 130 c 128,-1,41
 890 116 890 116 832 84 c 0,42,43
 818 76 818 76 804 68.5 c 128,-1,44
 790 61 790 61 750 36 c 1,45,-1
 592 36 l 2,46,47
 466 36 466 36 426 39 c 0,48,49
 268 51 268 51 196 154 c 0,50,51
 141 239 141 239 116 307 c 2,52,-1
 107 331 l 1,53,-1
 106 741 l 2,54,55
 106 917 106 917 109 943 c 128,-1,56
 112 969 112 969 114.5 1059 c 128,-1,57
 117 1149 117 1149 127.5 1182.5 c 128,-1,58
 138 1216 138 1216 145 1254 c 128,-1,59
 152 1292 152 1292 180 1353 c 128,-1,60
 208 1414 208 1414 257 1461.5 c 128,-1,61
 306 1509 306 1509 383.5 1548.5 c 128,-1,62
 461 1588 461 1588 467 1588 c 2,63,-1
 480 1588 l 2,64,65
 502 1589 502 1589 586.5 1589 c 128,-1,66
 671 1589 671 1589 706 1571.5 c 128,-1,67
 741 1554 741 1554 757 1536.5 c 128,-1,68
 773 1519 773 1519 804.5 1459.5 c 128,-1,69
 836 1400 836 1400 836 1388 c 2,70,-1
 836 1385 l 2,71,72
 836 1384 836 1384 837 1382 c 2,0,1
EndSplineSet
Validated: 1
EndChar

StartChar: D
Encoding: 68 68 38
GlifName: D_
Width: 1568
Flags: W
LayerCount: 2
Fore
SplineSet
1366 722 m 2,0,1
 1366 790 1366 790 1346 878 c 0,2,3
 1338 912 1338 912 1337 932 c 0,4,5
 1330 1015 1330 1015 1288 1111 c 0,6,7
 1268 1158 1268 1158 1253.5 1174 c 128,-1,8
 1239 1190 1239 1190 1169 1242.5 c 128,-1,9
 1099 1295 1099 1295 1022 1325 c 128,-1,10
 945 1355 945 1355 808.5 1390 c 128,-1,11
 672 1425 672 1425 621.5 1430.5 c 128,-1,12
 571 1436 571 1436 433 1436 c 128,-1,13
 295 1436 295 1436 259 1418 c 0,14,15
 253 1415 253 1415 235 1395.5 c 128,-1,16
 217 1376 217 1376 208.5 1347 c 128,-1,17
 200 1318 200 1318 197.5 1310.5 c 128,-1,18
 195 1303 195 1303 194 1299 c 2,19,-1
 194 545 l 1,20,21
 211 461 211 461 215.5 417 c 128,-1,22
 220 373 220 373 222.5 355.5 c 128,-1,23
 225 338 225 338 229 209 c 128,-1,24
 233 80 233 80 235 67 c 128,-1,25
 237 54 237 54 237 51 c 2,26,-1
 237 48 l 2,27,28
 237 46 237 46 238 45 c 2,29,-1
 233 38 l 1,30,31
 120 -30 120 -30 97 -30 c 2,32,-1
 94 -30 l 2,33,34
 91 -30 91 -30 87.5 -26.5 c 128,-1,35
 84 -23 84 -23 84 -21.5 c 128,-1,36
 84 -20 84 -20 83 -15 c 128,-1,37
 82 -10 82 -10 77.5 34 c 128,-1,38
 73 78 73 78 73 201 c 128,-1,39
 73 324 73 324 38 481 c 1,40,-1
 38 1250 l 1,41,-1
 48 1282 l 2,42,43
 64 1333 64 1333 86 1364 c 128,-1,44
 108 1395 108 1395 155 1430 c 128,-1,45
 202 1465 202 1465 230 1481 c 0,46,47
 349 1548 349 1548 524 1548 c 2,48,-1
 717 1546 l 1,49,-1
 767 1536 l 2,50,51
 875 1514 875 1514 1001 1478.5 c 128,-1,52
 1127 1443 1127 1443 1186.5 1416 c 128,-1,53
 1246 1389 1246 1389 1323 1331 c 128,-1,54
 1400 1273 1400 1273 1417 1241 c 0,55,56
 1475 1130 1475 1130 1493 998 c 0,57,58
 1498 962 1498 962 1510 910 c 128,-1,59
 1522 858 1522 858 1522 782 c 128,-1,60
 1522 706 1522 706 1520 580 c 1,61,62
 1473 440 1473 440 1457.5 387 c 128,-1,63
 1442 334 1442 334 1408 259 c 0,64,65
 1356 140 1356 140 1241 74 c 128,-1,66
 1126 8 1126 8 1098 0 c 0,67,68
 1082 -4 1082 -4 838 -4 c 0,69,70
 642 -4 642 -4 501 -3 c 1,71,-1
 658 108 l 1,72,-1
 1169 108 l 1,73,74
 1219 158 1219 158 1251 221.5 c 128,-1,75
 1283 285 1283 285 1317 393 c 128,-1,76
 1351 501 1351 501 1357.5 518.5 c 128,-1,77
 1364 536 1364 536 1364 540 c 2,78,-1
 1366 722 l 2,0,1
EndSplineSet
Validated: 1
EndChar

StartChar: E
Encoding: 69 69 39
GlifName: E_
Width: 1048
Flags: W
LayerCount: 2
Fore
SplineSet
323 1464 m 2,0,1
 317 1464 l 1,2,3
 214 1346 214 1346 214 1146 c 1,4,-1
 215 1113 l 2,5,6
 216 1058 216 1058 221 1050 c 0,7,8
 248 1004 248 1004 288 964 c 0,9,10
 306 946 306 946 340 930.5 c 128,-1,11
 374 915 374 915 459 894 c 128,-1,12
 544 873 544 873 606.5 869.5 c 0,13,14
 670 866 670 866 784 830 c 0,15,16
 824 818 824 818 866.5 792.5 c 128,-1,17
 909 767 909 767 926.5 746.5 c 128,-1,18
 944 726 944 726 944 693 c 128,-1,19
 944 660 944 660 934 643.5 c 128,-1,20
 924 627 924 627 894 605 c 128,-1,21
 864 583 864 583 821 572 c 128,-1,22
 778 561 778 561 701 560 c 2,23,-1
 675 560 l 2,24,25
 629 560 629 560 509.5 591 c 128,-1,26
 390 622 390 622 251 631 c 1,27,28
 160 495 160 495 160 414 c 2,29,-1
 160 412 l 2,30,31
 160 406 160 406 167.5 393 c 128,-1,32
 175 380 175 380 265 311 c 0,33,34
 286 295 286 295 331 249 c 0,35,36
 418 156 418 156 486 136 c 0,37,38
 516 126 516 126 528.5 122.5 c 128,-1,39
 541 119 541 119 548 117 c 2,40,-1
 1016 115 l 1,41,-1
 882 23 l 1,42,-1
 685 23 l 2,43,44
 493 23 493 23 466 26 c 0,45,46
 337 38 337 38 222 158 c 0,47,48
 155 228 155 228 97.5 275 c 128,-1,49
 40 322 40 322 30 342 c 0,50,51
 24 354 24 354 24.5 374 c 128,-1,52
 25 394 25 394 40.5 455.5 c 128,-1,53
 56 517 56 517 94 569 c 0,54,55
 100 578 100 578 121.5 613 c 128,-1,56
 143 648 143 648 177 672 c 0,57,58
 260 730 260 730 348 730 c 0,59,60
 404 730 404 730 459 718 c 128,-1,61
 514 706 514 706 578.5 692.5 c 128,-1,62
 643 679 643 679 681.5 670 c 128,-1,63
 720 661 720 661 766 660 c 2,64,-1
 823 659 l 1,65,-1
 778 690 l 2,66,67
 732 724 732 724 685.5 739 c 128,-1,68
 639 754 639 754 573.5 767 c 128,-1,69
 508 780 508 780 483 782 c 128,-1,70
 458 784 458 784 347.5 807.5 c 128,-1,71
 237 831 237 831 180 877 c 0,72,73
 160 893 160 893 131.5 928 c 128,-1,74
 103 963 103 963 91 986 c 2,75,-1
 80 1007 l 1,76,-1
 81 1095 l 2,77,78
 81 1200 81 1200 99 1279.5 c 0,79,80
 118 1358 118 1358 178 1436 c 0,81,82
 206 1472 206 1472 265.5 1510 c 128,-1,83
 325 1548 325 1548 384 1557 c 0,84,85
 394 1559 394 1559 458 1559 c 2,86,-1
 490 1559 l 2,87,88
 698 1559 698 1559 731 1556.5 c 128,-1,89
 764 1554 764 1554 849.5 1546 c 128,-1,90
 935 1538 935 1538 943 1534 c 0,91,92
 950 1531 950 1531 950 1521 c 128,-1,93
 950 1511 950 1511 914 1488 c 0,94,95
 897 1477 897 1477 876 1463 c 128,-1,96
 855 1449 855 1449 844 1442 c 1,97,98
 685 1457 685 1457 615 1460.5 c 128,-1,99
 545 1464 545 1464 323 1464 c 2,0,1
EndSplineSet
Validated: 1
EndChar

StartChar: F
Encoding: 70 70 40
GlifName: F_
Width: 987
Flags: W
LayerCount: 2
Fore
SplineSet
192 36 m 0,0,1
 186 36 186 36 179.5 42.5 c 128,-1,2
 173 49 173 49 146.5 95.5 c 128,-1,3
 120 142 120 142 111.5 179 c 128,-1,4
 103 216 103 216 90 256 c 128,-1,5
 77 296 77 296 52 407 c 1,6,-1
 52 518 l 2,7,8
 52 630 52 630 59 664.5 c 128,-1,9
 66 699 66 699 77 720 c 128,-1,10
 88 741 88 741 120.5 772.5 c 128,-1,11
 153 804 153 804 196.5 823 c 128,-1,12
 240 842 240 842 260 845 c 128,-1,13
 280 848 280 848 329 848 c 2,14,-1
 523 848 l 1,15,-1
 375 886 l 2,16,17
 298 905 298 905 226.5 910 c 128,-1,18
 155 915 155 915 104 933 c 0,19,20
 87 939 87 939 80 945 c 128,-1,21
 73 951 73 951 61 975 c 1,22,-1
 62 1123 l 2,23,24
 63 1235 63 1235 65 1261 c 128,-1,25
 67 1287 67 1287 75 1310 c 128,-1,26
 83 1333 83 1333 96 1378.5 c 128,-1,27
 109 1424 109 1424 143 1468.5 c 128,-1,28
 177 1513 177 1513 228.5 1546 c 128,-1,29
 280 1579 280 1579 303 1584.5 c 128,-1,30
 326 1590 326 1590 657 1590 c 2,31,-1
 676 1590 l 2,32,33
 819 1590 819 1590 887 1589 c 2,34,-1
 917 1588 l 2,35,36
 931 1588 931 1588 931 1577.5 c 128,-1,37
 931 1567 931 1567 909.5 1552 c 128,-1,38
 888 1537 888 1537 846 1508 c 1,39,-1
 272 1508 l 1,40,41
 228 1464 228 1464 206 1394 c 0,42,43
 198 1366 198 1366 187 1332 c 128,-1,44
 176 1298 176 1298 176 1200 c 2,45,-1
 179 1011 l 1,46,47
 255 992 255 992 319 987 c 128,-1,48
 383 982 383 982 464.5 962 c 128,-1,49
 546 942 546 942 564.5 932.5 c 128,-1,50
 583 923 583 923 618.5 895.5 c 128,-1,51
 654 868 654 868 666.5 855.5 c 128,-1,52
 679 843 679 843 679 835 c 128,-1,53
 679 827 679 827 677 822 c 0,54,55
 651 796 651 796 599 773 c 0,56,57
 574 762 574 762 203 762 c 1,58,59
 184 738 184 738 174.5 701.5 c 128,-1,60
 165 665 165 665 165 551 c 2,61,-1
 165 451 l 1,62,63
 172 422 172 422 179.5 387 c 128,-1,64
 187 352 187 352 201.5 306 c 128,-1,65
 216 260 216 260 226.5 218.5 c 128,-1,66
 237 177 237 177 263.5 136.5 c 128,-1,67
 290 96 290 96 290 94 c 2,68,-1
 290 92 l 2,69,70
 290 89 290 89 250.5 66 c 128,-1,71
 211 43 211 43 192 36 c 0,0,1
EndSplineSet
Validated: 1
EndChar

StartChar: G
Encoding: 71 71 41
GlifName: G_
Width: 1490
Flags: W
LayerCount: 2
Fore
SplineSet
722 735 m 1,0,1
 712 719 712 719 706 703 c 1,2,3
 597 656 597 656 592 653.5 c 128,-1,4
 587 651 587 651 583 651 c 0,5,6
 565 651 565 651 565 666 c 2,7,-1
 565 667 l 2,8,9
 565 674 565 674 609 759 c 1,10,11
 658 795 658 795 704 820 c 2,12,-1
 734 835 l 1,13,14
 782 836 782 836 878.5 836 c 0,15,16
 974 836 974 836 1034 818 c 0,17,18
 1064 808 1064 808 1113.5 795.5 c 128,-1,19
 1163 783 1163 783 1193 774 c 0,20,21
 1340 712 1340 712 1399 595 c 0,22,23
 1456 486 1456 486 1456 408 c 0,24,25
 1456 253 1456 253 1348 148 c 0,26,27
 1262 64 1262 64 1160 43 c 2,28,-1
 1106 33 l 1,29,-1
 950 33 l 2,30,31
 786 33 786 33 745.5 39 c 128,-1,32
 705 45 705 45 622 54 c 0,33,34
 460 72 460 72 378 122 c 0,35,36
 342 144 342 144 260.5 220.5 c 128,-1,37
 179 297 179 297 125 412 c 128,-1,38
 71 527 71 527 28 666 c 2,39,-1
 14 710 l 1,40,-1
 14 872 l 2,41,42
 14 1007 14 1007 17.5 1041.5 c 128,-1,43
 21 1076 21 1076 39 1129 c 0,44,45
 80 1250 80 1250 150 1328.5 c 128,-1,46
 220 1407 220 1407 274.5 1446 c 0,47,48
 329 1486 329 1486 496 1564 c 0,49,50
 567 1598 567 1598 628 1616.5 c 0,51,52
 690 1635 690 1635 796 1635 c 0,53,54
 858 1635 858 1635 899.5 1630.5 c 128,-1,55
 941 1626 941 1626 1031 1606.5 c 128,-1,56
 1121 1587 1121 1587 1168 1579 c 128,-1,57
 1215 1571 1215 1571 1294 1552 c 0,58,59
 1319 1546 1319 1546 1319 1533 c 0,60,61
 1319 1526 1319 1526 1299 1511.5 c 128,-1,62
 1279 1497 1279 1497 1209 1449 c 1,63,64
 1131 1476 1131 1476 1037 1492 c 0,65,66
 980 1502 980 1502 975 1502 c 0,67,68
 827 1536 827 1536 718 1536 c 128,-1,69
 609 1536 609 1536 559 1520 c 0,70,71
 439 1480 439 1480 387 1447 c 0,72,73
 365 1433 365 1433 320.5 1390.5 c 128,-1,74
 276 1348 276 1348 249 1311 c 0,75,76
 134 1150 134 1150 134 902 c 0,77,78
 134 829 134 829 140.5 793.5 c 128,-1,79
 147 758 147 758 184 654 c 128,-1,80
 221 550 221 550 255.5 479.5 c 128,-1,81
 290 409 290 409 359.5 331 c 128,-1,82
 429 253 429 253 479.5 220.5 c 128,-1,83
 530 188 530 188 587.5 173 c 128,-1,84
 645 158 645 158 863 134 c 0,85,86
 896 131 896 131 1030 131 c 2,87,-1
 1207 131 l 1,88,-1
 1232 145 l 1,89,90
 1302 218 1302 218 1320 325 c 0,91,92
 1324 345 1324 345 1324 360 c 128,-1,93
 1324 375 1324 375 1308.5 435.5 c 128,-1,94
 1293 496 1293 496 1242 572 c 1,95,96
 1205 601 1205 601 1120 632 c 1,97,98
 1067 670 1067 670 1033 688 c 0,99,100
 942 736 942 736 823 736 c 2,101,-1
 722 735 l 1,0,1
EndSplineSet
Validated: 1
EndChar

StartChar: H
Encoding: 72 72 42
GlifName: H_
Width: 1777
Flags: W
LayerCount: 2
Fore
SplineSet
1675 486 m 1,0,-1
 1647 354 l 1,1,-1
 1636 270 l 2,2,3
 1635 259 1635 259 1614.5 231.5 c 128,-1,4
 1594 204 1594 204 1530 119 c 128,-1,5
 1466 34 1466 34 1433 5 c 0,6,7
 1356 -62 1356 -62 1314 -21 c 0,8,9
 1298 -6 1298 -6 1298 22 c 0,10,11
 1298 56 1298 56 1360 77 c 1,12,13
 1406 119 1406 119 1536 297 c 1,14,-1
 1546 370 l 1,15,-1
 1546 374 l 1,16,-1
 1573 499 l 1,17,-1
 1584 616 l 1,18,-1
 1588 716 l 1,19,20
 1536 688 1536 688 1434 665 c 128,-1,21
 1332 642 1332 642 1314.5 634.5 c 128,-1,22
 1297 627 1297 627 1219.5 607.5 c 128,-1,23
 1142 588 1142 588 1081 588 c 2,24,-1
 1076 588 l 1,25,-1
 822 596 l 1,26,-1
 817 596 l 1,27,-1
 612 621 l 1,28,-1
 610 621 l 1,29,-1
 459 646 l 2,30,31
 449 648 449 648 381 678 c 0,32,33
 312 708 312 708 284 724 c 2,34,-1
 246 746 l 2,35,36
 236 752 236 752 233 754 c 1,37,-1
 238 616 l 1,38,-1
 250 499 l 1,39,-1
 276 374 l 1,40,-1
 287 297 l 1,41,42
 314 260 314 260 347.5 216.5 c 0,43,44
 381 174 381 174 399 142 c 0,45,46
 432 83 432 83 453 75 c 0,47,48
 494 60 494 60 494 31.5 c 128,-1,49
 494 3 494 3 479 -12 c 128,-1,50
 464 -27 464 -27 449 -27 c 128,-1,51
 434 -27 434 -27 416.5 -21 c 0,52,53
 399 -16 399 -16 371 12 c 0,54,55
 337 45 337 45 314.5 82.5 c 128,-1,56
 292 120 292 120 282 133 c 128,-1,57
 272 146 272 146 240 189.5 c 128,-1,58
 208 233 208 233 198 246 c 128,-1,59
 188 259 188 259 187 270 c 2,60,-1
 176 354 l 1,61,-1
 149 481 l 1,62,-1
 136 607 l 1,63,-1
 136 610 l 1,64,-1
 129 804 l 1,65,66
 56 833 56 833 9 869 c 0,67,68
 -10 883 -10 883 -10 907 c 128,-1,69
 -10 931 -10 931 5 946 c 128,-1,70
 20 961 20 961 39.5 961 c 128,-1,71
 59 961 59 961 75.5 948 c 128,-1,72
 92 935 92 935 136 914 c 1,73,-1
 136 920 l 1,74,-1
 174 1034 l 1,75,-1
 183 1052 l 1,76,-1
 229 1182 l 2,77,78
 229 1184 229 1184 230 1185 c 2,79,-1
 276 1288 l 1,80,-1
 330 1446 l 2,81,82
 330 1448 330 1448 333 1454 c 2,83,-1
 392 1559 l 2,84,85
 406 1585 406 1585 432 1585 c 128,-1,86
 458 1585 458 1585 473 1570 c 128,-1,87
 488 1555 488 1555 488 1539 c 128,-1,88
 488 1523 488 1523 481 1509 c 2,89,-1
 425 1408 l 1,90,-1
 372 1253 l 2,91,92
 372 1251 372 1251 370 1249 c 2,93,-1
 324 1146 l 1,94,-1
 278 1015 l 2,95,96
 277 1010 277 1010 270 997 c 2,97,-1
 238 905 l 1,98,-1
 235 868 l 1,99,100
 265 854 265 854 312.5 827 c 128,-1,101
 360 800 360 800 482 746 c 1,102,-1
 626 722 l 1,103,-1
 827 698 l 1,104,-1
 1078 690 l 1,105,-1
 1081 690 l 2,106,107
 1128 690 1128 690 1266 725 c 1,108,109
 1302 740 1302 740 1376 757 c 128,-1,110
 1450 774 1450 774 1478 782 c 0,111,112
 1555 804 1555 804 1589 845 c 1,113,-1
 1585 905 l 1,114,-1
 1553 997 l 1,115,-1
 1544 1015 l 1,116,-1
 1498 1146 l 1,117,-1
 1452 1249 l 2,118,119
 1451 1250 1451 1250 1451 1253 c 2,120,-1
 1398 1408 l 1,121,-1
 1344 1506 l 1,122,-1
 1319 1538 l 2,123,124
 1308 1552 1308 1552 1308 1571 c 128,-1,125
 1308 1590 1308 1590 1323 1605 c 128,-1,126
 1338 1620 1338 1620 1362 1620 c 128,-1,127
 1386 1620 1386 1620 1400 1601 c 2,128,-1
 1427 1566 l 2,129,130
 1428 1565 1428 1565 1431 1559 c 2,131,-1
 1490 1454 l 2,132,133
 1490 1449 1490 1449 1493 1446 c 2,134,-1
 1547 1288 l 1,135,-1
 1593 1185 l 2,136,137
 1594 1184 1594 1184 1594 1182 c 2,138,-1
 1640 1052 l 1,139,-1
 1649 1034 l 1,140,-1
 1671 969 l 1,141,142
 1686 981 1686 981 1705.5 981 c 128,-1,143
 1725 981 1725 981 1740 966 c 128,-1,144
 1755 951 1755 951 1755 932.5 c 128,-1,145
 1755 914 1755 914 1747 901.5 c 128,-1,146
 1739 889 1739 889 1722.5 862.5 c 128,-1,147
 1706 836 1706 836 1695 819 c 1,148,-1
 1695 818 l 1,149,-1
 1694 817 l 1,150,-1
 1694 812 l 1,151,-1
 1687 610 l 2,152,153
 1686 608 1686 608 1686 607 c 2,154,-1
 1675 486 l 1,0,-1
EndSplineSet
Validated: 33
EndChar

StartChar: I
Encoding: 73 73 43
GlifName: I_
Width: 565
Flags: W
LayerCount: 2
Fore
SplineSet
462 685 m 2,0,1
 462 599 462 599 461 581.5 c 128,-1,2
 460 564 460 564 445 502.5 c 128,-1,3
 430 441 430 441 418.5 406.5 c 128,-1,4
 407 372 407 372 349.5 283 c 128,-1,5
 292 194 292 194 271.5 144.5 c 0,6,7
 250 95 250 95 226 72 c 0,8,9
 210 56 210 56 162.5 38 c 128,-1,10
 115 20 115 20 102 15 c 1,11,-1
 82 15 l 1,12,13
 84 29 84 29 99 50 c 1,14,15
 122 72 122 72 142.5 123 c 128,-1,16
 163 174 163 174 226 269 c 128,-1,17
 289 364 289 364 299 415.5 c 128,-1,18
 309 467 309 467 325 536 c 1,19,-1
 325 921 l 1,20,21
 312 974 312 974 303.5 1027 c 128,-1,22
 295 1080 295 1080 260.5 1176 c 128,-1,23
 226 1272 226 1272 166 1356 c 0,24,25
 133 1402 133 1402 55 1528 c 1,26,-1
 55 1605 l 1,27,28
 87 1623 87 1623 118.5 1623 c 128,-1,29
 150 1623 150 1623 184 1601 c 1,30,-1
 200 1582 l 1,31,32
 225 1535 225 1535 292 1437 c 0,33,34
 358 1338 358 1338 380 1274 c 0,35,36
 390 1246 390 1246 408 1202.5 c 128,-1,37
 426 1159 426 1159 433.5 1115 c 128,-1,38
 441 1071 441 1071 463 959 c 1,39,-1
 462 685 l 2,0,1
EndSplineSet
Validated: 1
EndChar

StartChar: J
Encoding: 74 74 44
GlifName: J_
Width: 966
Flags: W
LayerCount: 2
Fore
SplineSet
709 1620 m 1,0,1
 719 1620 l 2,2,3
 733 1620 733 1620 737 1619 c 0,4,5
 737 1617 737 1617 738.5 1613.5 c 128,-1,6
 740 1610 740 1610 744.5 1596 c 128,-1,7
 749 1582 749 1582 788 1489 c 1,8,9
 853 1351 853 1351 868 1262 c 0,10,11
 871 1248 871 1248 881 1204 c 128,-1,12
 891 1160 891 1160 893.5 1135.5 c 128,-1,13
 896 1111 896 1111 908 1022 c 128,-1,14
 920 933 920 933 920 706 c 2,15,-1
 920 661 l 2,16,17
 920 567 920 567 915 532 c 128,-1,18
 910 497 910 497 820 369 c 0,19,20
 698 199 698 199 507 118 c 0,21,22
 387 67 387 67 331 67 c 128,-1,23
 275 67 275 67 171 128 c 0,24,25
 98 171 98 171 54 202 c 0,26,27
 39 210 39 210 30 217 c 1,28,29
 32 237 32 237 48 252 c 0,30,31
 93 283 93 283 108.5 291 c 128,-1,32
 124 299 124 299 127 302 c 128,-1,33
 130 305 130 305 132.5 306.5 c 128,-1,34
 135 308 135 308 138 308 c 128,-1,35
 141 308 141 308 149 301.5 c 128,-1,36
 157 295 157 295 173.5 282.5 c 128,-1,37
 190 270 190 270 246 237 c 0,38,39
 384 164 384 164 415 164 c 0,40,41
 498 164 498 164 586 233 c 0,42,43
 636 273 636 273 650 291.5 c 128,-1,44
 664 310 664 310 680 330 c 2,45,-1
 704 360 l 2,46,47
 764 437 764 437 788 506 c 1,48,-1
 787 685 l 2,49,50
 786 930 786 930 774 1004 c 0,51,52
 766 1056 766 1056 765 1073 c 128,-1,53
 764 1090 764 1090 762 1110 c 1,54,55
 752 1128 752 1128 734 1236 c 0,56,57
 724 1296 724 1296 672 1395 c 0,58,59
 608 1530 608 1530 597 1564 c 1,60,61
 610 1564 610 1564 610 1574 c 0,62,63
 610 1578 610 1578 709 1620 c 1,0,1
EndSplineSet
Validated: 1
EndChar

StartChar: K
Encoding: 75 75 45
GlifName: K_
Width: 1421
Flags: W
LayerCount: 2
Fore
SplineSet
60 28 m 1,0,1
 50 24 50 24 44 24 c 0,2,3
 29 24 29 24 29 38 c 0,4,5
 29 46 29 46 34 49.5 c 128,-1,6
 39 53 39 53 67.5 69.5 c 128,-1,7
 96 86 96 86 122 122 c 0,8,9
 127 129 127 129 130 132 c 0,10,11
 180 188 180 188 200 283 c 0,12,13
 208 323 208 323 213 346.5 c 128,-1,14
 218 370 218 370 228 409.5 c 128,-1,15
 238 449 238 449 242.5 497 c 128,-1,16
 247 545 247 545 252.5 560.5 c 128,-1,17
 258 576 258 576 258 658 c 2,18,-1
 258 733 l 1,19,20
 250 743 250 743 236 754 c 1,21,-1
 251 769 l 1,22,23
 246 808 246 808 244 830 c 128,-1,24
 242 852 242 852 236 879.5 c 128,-1,25
 230 907 230 907 222 950 c 128,-1,26
 214 993 214 993 210 1006.5 c 128,-1,27
 206 1020 206 1020 201 1044 c 128,-1,28
 196 1068 196 1068 172.5 1147.5 c 128,-1,29
 149 1227 149 1227 127.5 1305.5 c 128,-1,30
 106 1384 106 1384 92 1407 c 0,31,32
 55 1474 55 1474 55 1553 c 2,33,-1
 55 1598 l 1,34,35
 147 1649 147 1649 156.5 1649 c 128,-1,36
 166 1649 166 1649 174 1634 c 1,37,-1
 174 1591 l 2,38,39
 174 1520 174 1520 204 1465 c 0,40,41
 222 1432 222 1432 241 1365 c 128,-1,42
 260 1298 260 1298 277 1248.5 c 128,-1,43
 294 1199 294 1199 313 1126 c 1,44,45
 387 1226 387 1226 403 1241 c 128,-1,46
 419 1256 419 1256 435 1274 c 0,47,48
 512 1363 512 1363 598 1415 c 0,49,50
 735 1491 735 1491 813 1499 c 0,51,52
 851 1503 851 1503 877 1505.5 c 128,-1,53
 903 1508 903 1508 913.5 1510 c 128,-1,54
 924 1512 924 1512 981 1512 c 2,55,-1
 1101 1512 l 2,56,57
 1187 1512 1187 1512 1282 1484 c 0,58,59
 1297 1480 1297 1480 1297 1470.5 c 128,-1,60
 1297 1461 1297 1461 1260 1431 c 128,-1,61
 1223 1401 1223 1401 1202 1401 c 2,62,-1
 1198 1401 l 2,63,64
 1197 1401 1197 1401 1158 1411.5 c 128,-1,65
 1119 1422 1119 1422 1106.5 1425 c 128,-1,66
 1094 1428 1094 1428 990 1428 c 2,67,-1
 972 1428 l 2,68,69
 907 1428 907 1428 849 1427 c 2,70,-1
 847 1427 l 1,71,72
 821 1421 821 1421 776 1418 c 2,73,-1
 775 1418 l 1,74,75
 721 1412 721 1412 668 1394 c 128,-1,76
 615 1376 615 1376 559 1298 c 0,77,78
 554 1291 554 1291 549.5 1286 c 128,-1,79
 545 1281 545 1281 522 1257 c 128,-1,80
 499 1233 499 1233 447 1164 c 0,81,82
 370 1067 370 1067 355 995 c 1,83,-1
 355 993 l 2,84,85
 355 984 355 984 349 976 c 1,86,87
 357 938 357 938 361.5 917 c 128,-1,88
 366 896 366 896 370 853 c 128,-1,89
 374 810 374 810 377 794 c 1,90,91
 440 731 440 731 505.5 660 c 128,-1,92
 571 589 571 589 592.5 571 c 128,-1,93
 614 553 614 553 651.5 530.5 c 128,-1,94
 689 508 689 508 714 486 c 0,95,96
 804 411 804 411 1008 344 c 0,97,98
 1088 318 1088 318 1111.5 312.5 c 128,-1,99
 1135 307 1135 307 1153.5 303.5 c 128,-1,100
 1172 300 1172 300 1189 296 c 128,-1,101
 1206 292 1206 292 1232 285 c 128,-1,102
 1258 278 1258 278 1298.5 274.5 c 128,-1,103
 1339 271 1339 271 1349.5 268.5 c 128,-1,104
 1360 266 1360 266 1374 252 c 1,105,106
 1366 247 1366 247 1324 218.5 c 128,-1,107
 1282 190 1282 190 1272 184 c 1,108,-1
 1272 186 l 1,109,-1
 1260 186 l 2,110,111
 1200 186 1200 186 1169 196 c 128,-1,112
 1138 206 1138 206 1068 222 c 0,113,114
 755 291 755 291 598 421 c 0,115,116
 596 423 596 423 534 465.5 c 128,-1,117
 472 508 472 508 400 584 c 2,118,-1
 380 605 l 1,119,120
 366 545 366 545 359.5 490.5 c 128,-1,121
 353 436 353 436 323.5 322 c 128,-1,122
 294 208 294 208 261 170 c 0,123,124
 190 87 190 87 160 69 c 0,125,126
 140 57 140 57 67 17 c 1,127,-1
 60 28 l 1,0,1
EndSplineSet
Validated: 1
EndChar

StartChar: L
Encoding: 76 76 46
GlifName: L_
Width: 1064
Flags: W
LayerCount: 2
Fore
SplineSet
504 -31 m 2,0,1
 502 -31 502 -31 495 -29.5 c 128,-1,2
 488 -28 488 -28 464 -23 c 128,-1,3
 440 -18 440 -18 386 4 c 0,4,5
 321 32 321 32 249 104 c 1,6,7
 152 212 152 212 106 348 c 0,8,9
 88 402 88 402 79.5 421 c 128,-1,10
 71 440 71 440 53 514 c 2,11,-1
 38 567 l 2,12,13
 35 576 35 576 35 759 c 2,14,-1
 35 961 l 2,15,16
 35 990 35 990 41 1024 c 0,17,18
 44 1041 44 1041 51.5 1113.5 c 0,19,20
 60 1186 60 1186 78 1273 c 0,21,22
 86 1308 86 1308 89.5 1330.5 c 128,-1,23
 93 1353 93 1353 104 1394.5 c 128,-1,24
 115 1436 115 1436 118 1448 c 0,25,26
 150 1582 150 1582 174 1614 c 0,27,28
 188 1632 188 1632 228.5 1651.5 c 128,-1,29
 269 1671 269 1671 270 1671 c 2,30,-1
 274 1671 l 2,31,32
 280 1671 280 1671 287 1661.5 c 128,-1,33
 294 1652 294 1652 294 1633.5 c 128,-1,34
 294 1615 294 1615 278 1600 c 0,35,36
 270 1592 270 1592 262 1580 c 128,-1,37
 254 1568 254 1568 229.5 1465.5 c 128,-1,38
 205 1363 205 1363 198.5 1329.5 c 128,-1,39
 192 1296 192 1296 188 1280.5 c 128,-1,40
 184 1265 184 1265 168 1147.5 c 128,-1,41
 152 1030 152 1030 152 1018 c 2,42,-1
 152 1012 l 2,43,44
 150 972 150 972 150 776 c 2,45,-1
 150 767 l 1,46,-1
 151 663 l 1,47,-1
 149 631 l 2,48,49
 149 609 149 609 163 569 c 128,-1,50
 177 529 177 529 184 507 c 2,51,-1
 210 429 l 2,52,53
 234 357 234 357 280 288.5 c 128,-1,54
 326 220 326 220 357 194 c 0,55,56
 377 177 377 177 384.5 169 c 128,-1,57
 392 161 392 161 398 157 c 128,-1,58
 404 153 404 153 418.5 145.5 c 128,-1,59
 433 138 433 138 449 128.5 c 128,-1,60
 465 119 465 119 485 112.5 c 128,-1,61
 505 106 505 106 523 102 c 0,62,63
 539 98 539 98 551 95 c 128,-1,64
 563 92 563 92 782 90 c 2,65,-1
 1022 90 l 2,66,67
 1047 90 1047 90 1047 52 c 0,68,69
 1047 36 1047 36 1030 20.5 c 0,70,71
 1013 4 1013 4 978 -28 c 0,72,73
 970 -36 970 -36 963 -35 c 0,74,75
 754 -35 754 -35 544 -35 c 1,76,-1
 504 -31 l 2,0,1
EndSplineSet
Validated: 1
EndChar

StartChar: M
Encoding: 77 77 47
GlifName: M_
Width: 2322
Flags: W
LayerCount: 2
Fore
SplineSet
1518 1546 m 2,0,1
 1574 1548 1574 1548 1613 1548 c 2,2,-1
 1636 1548 l 2,3,4
 1704 1548 1704 1548 1728.5 1544.5 c 128,-1,5
 1753 1541 1753 1541 1783 1528.5 c 128,-1,6
 1813 1516 1813 1516 1847 1507 c 128,-1,7
 1881 1498 1881 1498 1958.5 1455.5 c 128,-1,8
 2036 1413 2036 1413 2066 1384 c 0,9,10
 2084 1366 2084 1366 2142.5 1295 c 128,-1,11
 2201 1224 2201 1224 2220 1190 c 128,-1,12
 2239 1156 2239 1156 2258.5 1061.5 c 128,-1,13
 2278 967 2278 967 2278 874 c 128,-1,14
 2278 781 2278 781 2260 655 c 0,15,16
 2256 627 2256 627 2253 596 c 128,-1,17
 2250 565 2250 565 2236 487 c 1,18,19
 2231 431 2231 431 2212 371.5 c 128,-1,20
 2193 312 2193 312 2186.5 280 c 128,-1,21
 2180 248 2180 248 2169 228.5 c 128,-1,22
 2158 209 2158 209 2139 209 c 2,23,-1
 2130 210 l 1,24,25
 2084 168 2084 168 2032.5 142.5 c 128,-1,26
 1981 117 1981 117 1949 89 c 128,-1,27
 1917 61 1917 61 1906.5 55 c 128,-1,28
 1896 49 1896 49 1863 37.5 c 128,-1,29
 1830 26 1830 26 1728 -13 c 1,30,-1
 1810 64 l 2,31,32
 1874 121 1874 121 1943 155.5 c 128,-1,33
 2012 190 2012 190 2032 227 c 0,34,35
 2077 314 2077 314 2083.5 375.5 c 128,-1,36
 2090 437 2090 437 2094.5 460.5 c 128,-1,37
 2099 484 2099 484 2104.5 527.5 c 128,-1,38
 2110 571 2110 571 2112 583 c 128,-1,39
 2114 595 2114 595 2115 615 c 128,-1,40
 2116 635 2116 635 2125 695 c 128,-1,41
 2134 755 2134 755 2134 810 c 0,42,43
 2134 971 2134 971 2093 1085 c 0,44,45
 2072 1144 2072 1144 1980 1246 c 0,46,47
 1934 1297 1934 1297 1918 1311 c 0,48,49
 1823 1369 1823 1369 1780 1389 c 0,50,51
 1769 1394 1769 1394 1762 1396.5 c 128,-1,52
 1755 1399 1755 1399 1748.5 1401 c 128,-1,53
 1742 1403 1742 1403 1723.5 1407.5 c 128,-1,54
 1705 1412 1705 1412 1632 1440 c 1,55,-1
 1538 1442 l 1,56,57
 1493 1466 1493 1466 1448 1442 c 1,58,59
 1424 1384 1424 1384 1418 1275 c 128,-1,60
 1412 1166 1412 1166 1399.5 1120.5 c 128,-1,61
 1387 1075 1387 1075 1382.5 1051.5 c 128,-1,62
 1378 1028 1378 1028 1371 1009.5 c 128,-1,63
 1364 991 1364 991 1332 897 c 0,64,65
 1320 861 1320 861 1302 837 c 128,-1,66
 1284 813 1284 813 1208 772 c 2,67,-1
 1170 751 l 1,68,69
 1159 769 1159 769 1141.5 769 c 128,-1,70
 1124 769 1124 769 1112 745 c 1,71,-1
 1103 745 l 2,72,73
 1052 745 1052 745 1027 799 c 0,74,75
 992 871 992 871 990 951 c 2,76,-1
 990 952 l 2,77,78
 990 989 990 989 986 1006 c 0,79,80
 984 1015 984 1015 980 1058 c 0,81,82
 976 1132 976 1132 940 1180 c 0,83,84
 920 1206 920 1206 863.5 1258.5 c 128,-1,85
 807 1311 807 1311 786 1326 c 128,-1,86
 765 1341 765 1341 749 1346.5 c 128,-1,87
 733 1352 733 1352 674 1352 c 2,88,-1
 534 1351 l 2,89,90
 449 1350 449 1350 392 1335 c 0,91,92
 390 1332 390 1332 382 1324 c 2,93,-1
 359 1300 l 2,94,95
 344 1284 344 1284 304 1218 c 128,-1,96
 264 1152 264 1152 236 1092 c 1,97,98
 212 1031 212 1031 196.5 1002 c 128,-1,99
 181 973 181 973 177.5 951 c 128,-1,100
 174 929 174 929 174 808.5 c 128,-1,101
 174 688 174 688 178 656 c 128,-1,102
 182 624 182 624 182 584.5 c 128,-1,103
 182 545 182 545 188 517.5 c 128,-1,104
 194 490 194 490 202.5 433.5 c 128,-1,105
 211 377 211 377 218 347.5 c 128,-1,106
 225 318 225 318 261 214 c 128,-1,107
 297 110 297 110 329 78 c 1,108,109
 348 73 348 73 348 57 c 0,110,111
 348 47 348 47 312 24 c 0,112,113
 290 10 290 10 236 -26 c 0,114,115
 224 -38 224 -38 192 -10 c 0,116,117
 180 0 180 0 157 53 c 0,118,119
 81 224 81 224 62 354 c 0,120,121
 53 414 53 414 45.5 448.5 c 0,122,123
 38 484 38 484 36 548 c 0,124,125
 36 560 36 560 32.5 613 c 128,-1,126
 29 666 29 666 29 727 c 2,127,-1
 29 799 l 2,128,129
 31 881 31 881 35.5 909.5 c 128,-1,130
 40 938 40 938 53.5 967 c 128,-1,131
 67 996 67 996 80.5 1026.5 c 128,-1,132
 94 1057 94 1057 102 1074.5 c 128,-1,133
 110 1092 110 1092 149 1161 c 128,-1,134
 188 1230 188 1230 207 1256 c 0,135,136
 252 1318 252 1318 321.5 1363.5 c 128,-1,137
 391 1409 391 1409 423 1423 c 128,-1,138
 455 1437 455 1437 511 1448 c 2,139,-1
 565 1458 l 1,140,141
 757 1461 757 1461 790.5 1461 c 128,-1,142
 824 1461 824 1461 850 1453 c 0,143,144
 910 1435 910 1435 1031 1314 c 0,145,146
 1120 1222 1120 1222 1126 1145 c 0,147,148
 1128 1109 1128 1109 1132 1085 c 128,-1,149
 1136 1061 1136 1061 1138 1002.5 c 128,-1,150
 1140 944 1140 944 1149 920.5 c 128,-1,151
 1158 897 1158 897 1180 849 c 1,152,-1
 1193 885 l 2,153,154
 1224 969 1224 969 1243.5 1045 c 128,-1,155
 1263 1121 1263 1121 1267 1232.5 c 128,-1,156
 1271 1344 1271 1344 1295.5 1395 c 128,-1,157
 1320 1446 1320 1446 1386.5 1491.5 c 128,-1,158
 1453 1537 1453 1537 1489 1544 c 1,159,-1
 1518 1546 l 2,0,1
EndSplineSet
Validated: 33
EndChar

StartChar: N
Encoding: 78 78 48
GlifName: N_
Width: 2002
Flags: W
LayerCount: 2
Fore
SplineSet
1866 1628 m 1,0,1
 1886 1575 1886 1575 1896.5 1536 c 128,-1,2
 1907 1497 1907 1497 1935.5 1432 c 128,-1,3
 1964 1367 1964 1367 1970 1327 c 0,4,5
 1975 1294 1975 1294 1975 1189 c 2,6,-1
 1974 1040 l 2,7,8
 1972 831 1972 831 1968 724 c 128,-1,9
 1964 617 1964 617 1908 386 c 0,10,11
 1902 366 1902 366 1884 334 c 0,12,13
 1876 322 1876 322 1864.5 301.5 c 128,-1,14
 1853 281 1853 281 1841 260 c 128,-1,15
 1829 239 1829 239 1757 134 c 0,16,17
 1728 93 1728 93 1679.5 64.5 c 128,-1,18
 1631 36 1631 36 1580.5 31 c 128,-1,19
 1530 26 1530 26 1520.5 26 c 128,-1,20
 1511 26 1511 26 1478.5 29 c 128,-1,21
 1446 32 1446 32 1399.5 34 c 128,-1,22
 1353 36 1353 36 1286 58 c 128,-1,23
 1219 80 1219 80 1195 99.5 c 128,-1,24
 1171 119 1171 119 1136.5 179.5 c 128,-1,25
 1102 240 1102 240 1081 314 c 2,26,-1
 1058 393 l 2,27,28
 1041 450 1041 450 1037 494 c 128,-1,29
 1033 538 1033 538 1027 563.5 c 128,-1,30
 1021 589 1021 589 1012 647.5 c 128,-1,31
 1003 706 1003 706 993.5 759.5 c 128,-1,32
 984 813 984 813 984 975 c 2,33,-1
 984 1014 l 2,34,35
 984 1120 984 1120 981 1146.5 c 128,-1,36
 978 1173 978 1173 965 1212 c 128,-1,37
 952 1251 952 1251 927 1302 c 128,-1,38
 902 1353 902 1353 886.5 1375 c 128,-1,39
 871 1397 871 1397 838.5 1425 c 128,-1,40
 806 1453 806 1453 791 1459.5 c 128,-1,41
 776 1466 776 1466 766 1473 c 1,42,-1
 310 1473 l 1,43,44
 204 1346 204 1346 182 1238 c 0,45,46
 176 1213 176 1213 176 1049.5 c 128,-1,47
 176 886 176 886 178.5 870.5 c 128,-1,48
 181 855 181 855 186 795.5 c 128,-1,49
 191 736 191 736 199.5 705 c 128,-1,50
 208 674 208 674 211 652 c 0,51,52
 231 532 231 532 298 382 c 0,53,54
 333 303 333 303 346.5 232 c 128,-1,55
 360 161 360 161 361 158 c 2,56,-1
 358 152 l 2,57,58
 358 151 358 151 360 149 c 1,59,60
 354 144 354 144 301 114 c 128,-1,61
 248 84 248 84 229 84 c 2,62,-1
 218 84 l 1,63,64
 214 98 214 98 207.5 150 c 128,-1,65
 201 202 201 202 170 273.5 c 128,-1,66
 139 345 139 345 126 383 c 2,67,-1
 99 464 l 2,68,69
 83 510 83 510 73.5 557 c 128,-1,70
 64 604 64 604 57.5 635.5 c 128,-1,71
 51 667 51 667 46 692.5 c 128,-1,72
 41 718 41 718 39.5 734 c 128,-1,73
 38 750 38 750 36 777.5 c 128,-1,74
 34 805 34 805 32.5 815 c 128,-1,75
 31 825 31 825 31 921 c 2,76,-1
 31 999 l 2,77,78
 31 1134 31 1134 34 1170.5 c 128,-1,79
 37 1207 37 1207 54 1254 c 0,80,81
 96 1377 96 1377 193 1471 c 0,82,83
 233 1511 233 1511 296.5 1542 c 128,-1,84
 360 1573 360 1573 398.5 1576 c 128,-1,85
 437 1579 437 1579 615 1579 c 2,86,-1
 682 1579 l 2,87,88
 805 1579 805 1579 856.5 1577.5 c 128,-1,89
 908 1576 908 1576 968 1517 c 0,90,91
 1015 1471 1015 1471 1025 1456 c 0,92,93
 1069 1400 1069 1400 1112 1270 c 0,94,95
 1129 1220 1129 1220 1132.5 1182.5 c 128,-1,96
 1136 1145 1136 1145 1136 1001 c 2,97,-1
 1136 986 l 2,98,99
 1136 800 1136 800 1146 754 c 0,100,101
 1152 726 1152 726 1160 671 c 128,-1,102
 1168 616 1168 616 1175 584.5 c 128,-1,103
 1182 553 1182 553 1187 502 c 128,-1,104
 1192 451 1192 451 1205 408.5 c 128,-1,105
 1218 366 1218 366 1230.5 314.5 c 128,-1,106
 1243 263 1243 263 1280.5 198.5 c 128,-1,107
 1318 134 1318 134 1340 123 c 0,108,109
 1410 89 1410 89 1527 89 c 0,110,111
 1582 89 1582 89 1608.5 97.5 c 128,-1,112
 1635 106 1635 106 1664 138 c 0,113,114
 1752 237 1752 237 1770.5 310 c 128,-1,115
 1789 383 1789 383 1792 411.5 c 128,-1,116
 1795 440 1795 440 1797.5 455 c 128,-1,117
 1800 470 1800 470 1809 509 c 128,-1,118
 1818 548 1818 548 1820.5 619 c 128,-1,119
 1823 690 1823 690 1827 730.5 c 128,-1,120
 1831 771 1831 771 1831 987 c 2,121,-1
 1831 1005 l 2,122,123
 1831 1188 1831 1188 1827.5 1231 c 128,-1,124
 1824 1274 1824 1274 1805 1322 c 0,125,126
 1719 1543 1719 1543 1719 1578 c 0,127,128
 1718 1586 1718 1586 1732 1592 c 0,129,130
 1736 1594 1736 1594 1777 1617.5 c 128,-1,131
 1818 1641 1818 1641 1849 1651 c 0,132,133
 1853 1651 1853 1651 1859.5 1646 c 128,-1,134
 1866 1641 1866 1641 1866 1638 c 2,135,-1
 1866 1628 l 1,0,1
EndSplineSet
Validated: 1
EndChar

StartChar: O
Encoding: 79 79 49
GlifName: O_
Width: 1347
Flags: W
LayerCount: 2
Fore
SplineSet
1188 512 m 1,0,-1
 1190 684 l 1,1,-1
 1190 839 l 2,2,3
 1190 889 1190 889 1186 908 c 0,4,5
 1140 1144 1140 1144 1098 1226 c 0,6,7
 1078 1264 1078 1264 1021.5 1324 c 0,8,9
 966 1384 966 1384 894 1390 c 0,10,11
 864 1392 864 1392 832 1404.5 c 128,-1,12
 800 1417 800 1417 800 1425 c 2,13,-1
 798 1434 l 1,14,15
 629 1510 629 1510 541 1516 c 0,16,17
 512 1518 512 1518 436.5 1518 c 128,-1,18
 361 1518 361 1518 330 1510 c 1,19,20
 291 1477 291 1477 245 1427 c 1,21,22
 186 1347 186 1347 159 1240 c 0,23,24
 146 1188 146 1188 144.5 1158.5 c 128,-1,25
 143 1129 143 1129 143 898 c 2,26,-1
 145 664 l 1,27,28
 154 623 154 623 168 549 c 0,29,30
 186 418 186 418 218 372 c 0,31,32
 230 354 230 354 277 297.5 c 128,-1,33
 324 241 324 241 367 213 c 128,-1,34
 410 185 410 185 495 158 c 128,-1,35
 580 131 580 131 616 127.5 c 128,-1,36
 652 124 652 124 677.5 122 c 128,-1,37
 703 120 703 120 713.5 118.5 c 128,-1,38
 724 117 724 117 790.5 117 c 128,-1,39
 857 117 857 117 889 123 c 128,-1,40
 921 129 921 129 972.5 151 c 128,-1,41
 1024 173 1024 173 1063.5 213.5 c 128,-1,42
 1103 254 1103 254 1123 299 c 128,-1,43
 1143 344 1143 344 1187 478 c 1,44,-1
 1188 512 l 1,0,-1
673 1614 m 1,45,-1
 735 1594 l 2,46,47
 927 1532 927 1532 950 1500 c 1,48,49
 966 1496 966 1496 994 1493 c 0,50,51
 1076 1482 1076 1482 1150 1402 c 0,52,53
 1189 1360 1189 1360 1206.5 1333.5 c 128,-1,54
 1224 1307 1224 1307 1244 1258.5 c 128,-1,55
 1264 1210 1264 1210 1282 1131 c 128,-1,56
 1300 1052 1300 1052 1312 1006 c 128,-1,57
 1324 960 1324 960 1327 947 c 2,58,-1
 1327 697 l 2,59,60
 1327 572 1327 572 1322 535.5 c 128,-1,61
 1317 499 1317 499 1288.5 413.5 c 128,-1,62
 1260 328 1260 328 1237.5 288.5 c 128,-1,63
 1215 249 1215 249 1150.5 189.5 c 128,-1,64
 1086 130 1086 130 969.5 80.5 c 128,-1,65
 853 31 853 31 812.5 23.5 c 128,-1,66
 772 16 772 16 654 16 c 128,-1,67
 536 16 536 16 428 48.5 c 128,-1,68
 320 81 320 81 289 97 c 0,69,70
 212 135 212 135 140 227 c 0,71,72
 99 279 99 279 86.5 299 c 128,-1,73
 74 319 74 319 58 367 c 128,-1,74
 42 415 42 415 36.5 457 c 128,-1,75
 31 499 31 499 22 545 c 128,-1,76
 13 591 13 591 10 611 c 2,77,-1
 10 1148 l 1,78,-1
 21 1195 l 2,79,80
 40 1277 40 1277 66 1328 c 0,81,82
 88 1372 88 1372 104 1395 c 128,-1,83
 120 1418 120 1418 157 1455 c 128,-1,84
 194 1492 194 1492 228 1516 c 128,-1,85
 262 1540 262 1540 319.5 1570.5 c 128,-1,86
 377 1601 377 1601 403.5 1608.5 c 128,-1,87
 430 1616 430 1616 543 1616 c 2,88,-1
 549 1616 l 2,89,90
 591 1616 591 1616 673 1614 c 1,45,-1
EndSplineSet
Validated: 1
EndChar

StartChar: P
Encoding: 80 80 50
GlifName: P_
Width: 1294
Flags: W
LayerCount: 2
Fore
SplineSet
157 1002 m 2,0,-1
 158 991 l 1,1,-1
 158 948 l 1,2,-1
 156 874 l 2,3,4
 156 783 156 783 168 681 c 128,-1,5
 180 579 180 579 186.5 558 c 128,-1,6
 193 537 193 537 208.5 493.5 c 128,-1,7
 224 450 224 450 228.5 433 c 128,-1,8
 233 416 233 416 256 370 c 0,9,10
 296 291 296 291 322 263 c 0,11,12
 446 126 446 126 516 74 c 0,13,14
 537 58 537 58 537 31 c 128,-1,15
 537 4 537 4 513 -11 c 2,16,-1
 474 -35 l 2,17,18
 461 -43 461 -43 444.5 -43 c 128,-1,19
 428 -43 428 -43 401.5 -19 c 128,-1,20
 375 5 375 5 313 67 c 128,-1,21
 251 129 251 129 233 145.5 c 128,-1,22
 215 162 215 162 205.5 173.5 c 128,-1,23
 196 185 196 185 190.5 193 c 128,-1,24
 185 201 185 201 176 215 c 0,25,26
 167 230 167 230 164 234 c 0,27,28
 104 324 104 324 84 398 c 1,29,30
 28 545 28 545 22 695 c 0,31,32
 20 734 20 734 19 750 c 2,33,-1
 19 752 l 2,34,35
 16 803 16 803 16 853 c 2,36,-1
 16 856 l 1,37,-1
 14 928 l 1,38,-1
 14 971 l 2,39,40
 14 1052 14 1052 72 1214 c 1,41,42
 93 1285 93 1285 151 1375 c 0,43,44
 159 1389 159 1389 174.5 1407 c 128,-1,45
 190 1425 190 1425 201.5 1442 c 128,-1,46
 213 1459 213 1459 245.5 1491.5 c 128,-1,47
 278 1524 278 1524 329.5 1554.5 c 128,-1,48
 381 1585 381 1585 391.5 1589 c 128,-1,49
 402 1593 402 1593 411.5 1596.5 c 128,-1,50
 421 1600 421 1600 424 1602 c 0,51,52
 457 1619 457 1619 548.5 1630.5 c 128,-1,53
 640 1642 640 1642 677 1642 c 2,54,-1
 817 1642 l 1,55,-1
 839 1641 l 2,56,57
 885 1638 885 1638 913 1628.5 c 128,-1,58
 941 1619 941 1619 989 1584 c 1,59,60
 1010 1563 1010 1563 1039 1545 c 0,61,62
 1110 1501 1110 1501 1134 1477 c 0,63,64
 1177 1434 1177 1434 1198 1381 c 128,-1,65
 1219 1328 1219 1328 1228.5 1299.5 c 128,-1,66
 1238 1271 1238 1271 1242 1244.5 c 128,-1,67
 1246 1218 1246 1218 1251 1198.5 c 128,-1,68
 1256 1179 1256 1179 1256 1136 c 2,69,-1
 1255 1102 l 1,70,-1
 1257 993 l 1,71,-1
 1257 911 l 1,72,-1
 1258 882 l 2,73,74
 1258 836 1258 836 1237.5 818.5 c 128,-1,75
 1217 801 1217 801 1208.5 791.5 c 128,-1,76
 1200 782 1200 782 1206 775 c 0,77,78
 1221 758 1221 758 1168 737 c 0,79,80
 1118 717 1118 717 1098 713 c 128,-1,81
 1078 709 1078 709 1036 690 c 128,-1,82
 994 671 994 671 989.5 669.5 c 128,-1,83
 985 668 985 668 969.5 662 c 128,-1,84
 954 656 954 656 946 654 c 0,85,86
 885 610 885 610 828 610 c 2,87,-1
 817 610 l 1,88,-1
 770 612 l 1,89,-1
 727 611 l 2,90,91
 674 611 674 611 634 623.5 c 128,-1,92
 594 636 594 636 563 645.5 c 128,-1,93
 532 655 532 655 486.5 669 c 128,-1,94
 441 683 441 683 436 686.5 c 128,-1,95
 431 690 431 690 441 691 c 0,96,97
 468 694 468 694 467.5 696.5 c 128,-1,98
 467 699 467 699 417.5 707 c 128,-1,99
 368 715 368 715 358 718.5 c 128,-1,100
 348 722 348 722 326 731 c 128,-1,101
 304 740 304 740 297.5 742.5 c 128,-1,102
 291 745 291 745 261 761.5 c 128,-1,103
 231 778 231 778 222 787 c 128,-1,104
 213 796 213 796 213 820 c 128,-1,105
 213 844 213 844 236 860 c 2,106,-1
 273 884 l 2,107,108
 286 893 286 893 300.5 893 c 128,-1,109
 315 893 315 893 324 888 c 2,110,-1
 366 866 l 1,111,112
 511 815 511 815 543 800 c 0,113,114
 634 758 634 758 671 752 c 128,-1,115
 708 746 708 746 724 744 c 2,116,-1
 748 741 l 2,117,118
 767 739 767 739 807 739 c 2,119,-1
 854 739 l 2,120,121
 870 739 870 739 872 740 c 0,122,123
 921 775 921 775 968 786 c 0,124,125
 973 788 973 788 991 794 c 0,126,127
 1041 812 1041 812 1059.5 821.5 c 128,-1,128
 1078 831 1078 831 1102 837 c 1,129,130
 1116 853 1116 853 1116 858 c 2,131,-1
 1116 1083 l 2,132,133
 1116 1128 1116 1128 1111.5 1149.5 c 128,-1,134
 1107 1171 1107 1171 1102.5 1197 c 128,-1,135
 1098 1223 1098 1223 1096 1229 c 0,136,137
 1094 1234 1094 1234 1092 1240 c 0,138,139
 1073 1308 1073 1308 1049.5 1343.5 c 0,140,141
 1026 1380 1026 1380 1024 1380 c 0,142,143
 1021 1381 1021 1381 1009 1390.5 c 128,-1,144
 997 1400 997 1400 959.5 1424 c 128,-1,145
 922 1448 922 1448 888 1476 c 128,-1,146
 854 1504 854 1504 837 1510 c 128,-1,147
 820 1516 820 1516 782 1516 c 2,148,-1
 696 1513 l 2,149,150
 637 1513 637 1513 614 1510 c 128,-1,151
 591 1507 591 1507 556 1504 c 128,-1,152
 521 1501 521 1501 507.5 1497.5 c 128,-1,153
 494 1494 494 1494 466.5 1488 c 128,-1,154
 439 1482 439 1482 429.5 1478.5 c 0,155,156
 420 1474 420 1474 412 1472 c 0,157,158
 368 1458 368 1458 303 1371 c 0,159,160
 294 1360 294 1360 281.5 1340 c 128,-1,161
 269 1320 269 1320 250.5 1293 c 128,-1,162
 232 1266 232 1266 222 1229 c 0,163,164
 208 1180 208 1180 194.5 1149 c 128,-1,165
 181 1118 181 1118 174 1081.5 c 128,-1,166
 167 1045 167 1045 162 1028.5 c 128,-1,167
 157 1012 157 1012 157 1002 c 2,0,-1
EndSplineSet
Validated: 1
EndChar

StartChar: Q
Encoding: 81 81 51
GlifName: Q_
Width: 1359
Flags: W
LayerCount: 2
Fore
SplineSet
924 175 m 2,0,-1
 905 175 l 2,1,2
 878 174 878 174 850 180 c 0,3,4
 800 190 800 190 663 290 c 1,5,6
 664 284 664 284 684 238 c 0,7,8
 719 154 719 154 808.5 66 c 128,-1,9
 898 -22 898 -22 929 -48 c 0,10,11
 1014 -119 1014 -119 1182 -121 c 2,12,-1
 1259 -121 l 2,13,14
 1267 -121 1267 -121 1279.5 -79.5 c 128,-1,15
 1292 -38 1292 -38 1295 -37.5 c 128,-1,16
 1298 -37 1298 -37 1301.5 -40.5 c 128,-1,17
 1305 -44 1305 -44 1309.5 -97 c 128,-1,18
 1314 -150 1314 -150 1314 -174.5 c 128,-1,19
 1314 -199 1314 -199 1292 -214 c 2,20,-1
 1263 -235 l 2,21,22
 1250 -245 1250 -245 1229 -245 c 0,23,24
 1030 -245 1030 -245 925 -201 c 0,25,26
 877 -182 877 -182 799 -113 c 0,27,28
 702 -27 702 -27 620 82 c 1,29,30
 563 53 563 53 516 47 c 128,-1,31
 469 41 469 41 440.5 36.5 c 128,-1,32
 412 32 412 32 397 29.5 c 128,-1,33
 382 27 382 27 364 27 c 0,34,35
 286 27 286 27 185 153 c 0,36,37
 120 230 120 230 48 454 c 0,38,39
 40 482 40 482 34.5 527 c 0,40,41
 28 572 28 572 24 604 c 0,42,43
 12 694 12 694 12 794 c 2,44,-1
 12 885 l 2,45,46
 12 958 12 958 14 978 c 0,47,48
 21 1078 21 1078 48 1204 c 128,-1,49
 75 1330 75 1330 82 1347 c 0,50,51
 108 1410 108 1410 126.5 1432.5 c 128,-1,52
 145 1455 145 1455 146.5 1457 c 128,-1,53
 148 1459 148 1459 154 1465 c 128,-1,54
 160 1471 160 1471 173.5 1480.5 c 128,-1,55
 187 1490 187 1490 194 1494 c 128,-1,56
 201 1498 201 1498 219 1507 c 2,57,-1
 241 1518 l 2,58,59
 363 1583 363 1583 531 1583 c 2,60,-1
 577 1583 l 2,61,62
 716 1583 716 1583 893 1469 c 0,63,64
 972 1422 972 1422 1024 1357 c 0,65,66
 1034 1346 1034 1346 1052 1324 c 0,67,68
 1094 1274 1094 1274 1157 1050 c 0,69,70
 1173 997 1173 997 1183 908.5 c 128,-1,71
 1193 820 1193 820 1193 759 c 2,72,-1
 1194 670 l 1,73,-1
 1194 584 l 2,74,75
 1194 440 1194 440 1085 284 c 0,76,77
 1039 219 1039 219 1026 212 c 0,78,79
 974 175 974 175 924 175 c 2,0,-1
948 299 m 1,80,81
 1061 455 1061 455 1061 569 c 2,82,-1
 1061 718 l 2,83,84
 1061 892 1061 892 1024 1021 c 0,85,86
 969 1211 969 1211 927.5 1261.5 c 128,-1,87
 886 1312 886 1312 873 1321 c 2,88,-1
 810 1363 l 2,89,90
 662 1460 662 1460 562 1460 c 0,91,92
 358 1460 358 1460 255 1402 c 1,93,94
 219 1360 219 1360 205.5 1308 c 128,-1,95
 192 1256 192 1256 184 1222 c 0,96,97
 167 1150 167 1150 163.5 1123 c 128,-1,98
 160 1096 160 1096 154 1058 c 0,99,100
 144 984 144 984 144 900 c 0,101,102
 144 720 144 720 148.5 692 c 0,103,104
 152 664 152 664 156 628 c 0,105,106
 165 539 165 539 173 514 c 0,107,108
 192 448 192 448 199 434 c 128,-1,109
 206 420 206 420 209 410 c 128,-1,110
 212 400 212 400 234 349 c 0,111,112
 286 229 286 229 348 177 c 0,113,114
 379 151 379 151 391.5 151 c 0,115,116
 404 150 404 150 413 152 c 0,117,118
 440 156 440 156 492 164 c 128,-1,119
 544 172 544 172 562 179 c 1,120,121
 525 235 525 235 525 298 c 2,122,-1
 525 388 l 2,123,124
 524 418 524 418 538 432 c 0,125,126
 578 472 578 472 616 472 c 0,127,128
 635 472 635 472 651 462 c 0,129,130
 682 444 682 444 710 423 c 0,131,132
 856 308 856 308 911 299 c 1,133,-1
 948 299 l 1,80,81
EndSplineSet
Validated: 1
EndChar

StartChar: R
Encoding: 82 82 52
GlifName: R_
Width: 1675
Flags: W
LayerCount: 2
Fore
SplineSet
1147 744 m 1,0,-1
 1158 769 l 1,1,-1
 1147 772 l 1,2,-1
 1147 744 l 1,0,-1
139 872 m 1,3,-1
 140 791 l 1,4,-1
 139 762 l 1,5,-1
 138 669 l 1,6,-1
 143 486 l 2,7,8
 148 405 148 405 171 341 c 0,9,10
 236 159 236 159 238 67 c 2,11,-1
 238 66 l 2,12,13
 238 41 238 41 210 36 c 0,14,15
 204 35 204 35 202 34 c 0,16,17
 177 24 177 24 161 24 c 0,18,19
 137 24 137 24 128 41 c 0,20,21
 79 135 79 135 52 295 c 0,22,23
 44 343 44 343 34.5 379 c 128,-1,24
 25 415 25 415 21 478 c 2,25,-1
 11 692 l 1,26,-1
 13 793 l 1,27,-1
 12 870 l 1,28,-1
 12 901 l 2,29,30
 15 953 15 953 30.5 1000.5 c 128,-1,31
 46 1048 46 1048 62.5 1096.5 c 128,-1,32
 79 1145 79 1145 87.5 1164.5 c 128,-1,33
 96 1184 96 1184 102 1195 c 128,-1,34
 108 1206 108 1206 121.5 1228 c 128,-1,35
 135 1250 135 1250 139 1258 c 0,36,37
 188 1346 188 1346 287 1432 c 1,38,39
 331 1464 331 1464 349.5 1472.5 c 128,-1,40
 368 1481 368 1481 380 1489 c 0,41,42
 431 1521 431 1521 508.5 1547 c 128,-1,43
 586 1573 586 1573 663 1579 c 1,44,45
 729 1589 729 1589 857 1589 c 2,46,-1
 863 1589 l 2,47,48
 932 1586 932 1586 1058 1532 c 0,49,50
 1088 1520 1088 1520 1118 1508 c 0,51,52
 1166 1488 1166 1488 1212 1447 c 1,53,54
 1257 1415 1257 1415 1278.5 1386.5 c 128,-1,55
 1300 1358 1300 1358 1308 1312 c 1,56,-1
 1308 1305 l 1,57,58
 1318 1279 1318 1279 1318 1278 c 2,59,-1
 1329 1223 l 2,60,61
 1336 1188 1336 1188 1336 1146 c 2,62,-1
 1336 1124 l 1,63,64
 1344 1068 1344 1068 1344 1050 c 2,65,-1
 1344 947 l 1,66,-1
 1338 869 l 1,67,-1
 1338 826 l 2,68,69
 1338 775 1338 775 1283 733 c 128,-1,70
 1228 691 1228 691 1176 670 c 1,71,-1
 1171 670 l 2,72,73
 1165 668 1165 668 1156 668 c 2,74,-1
 1130 668 l 2,75,76
 1116 668 1116 668 1102 675 c 1,77,78
 1077 670 1077 670 981 670 c 2,79,-1
 847 674 l 1,80,-1
 723 670 l 2,81,82
 683 670 683 670 605 674 c 1,83,-1
 599 674 l 1,84,-1
 589 673 l 1,85,-1
 582 673 l 1,86,87
 555 659 555 659 548.5 657 c 128,-1,88
 542 655 542 655 539 653.5 c 128,-1,89
 536 652 536 652 533.5 651 c 0,90,91
 532 650 532 650 530 649 c 0,92,93
 526 646 526 646 513 635 c 128,-1,94
 500 624 500 624 487 615 c 1,95,96
 497 593 497 593 497 578 c 128,-1,97
 497 563 497 563 495 549 c 1,98,99
 501 544 501 544 509 528 c 0,100,101
 555 469 555 469 575 448 c 0,102,103
 640 396 640 396 665 363.5 c 128,-1,104
 690 331 690 331 707 321.5 c 128,-1,105
 724 312 724 312 735.5 305.5 c 0,106,107
 748 299 748 299 768 290 c 0,108,109
 815 269 815 269 840.5 253 c 128,-1,110
 866 237 866 237 877.5 230.5 c 128,-1,111
 889 224 889 224 906 219 c 128,-1,112
 923 214 923 214 947.5 208.5 c 128,-1,113
 972 203 972 203 989.5 198.5 c 128,-1,114
 1007 194 1007 194 1020 190 c 128,-1,115
 1033 186 1033 186 1059.5 180.5 c 128,-1,116
 1086 175 1086 175 1132 165 c 128,-1,117
 1178 155 1178 155 1200 151 c 0,118,119
 1214 152 1214 152 1243 156.5 c 128,-1,120
 1272 161 1272 161 1286 162.5 c 128,-1,121
 1300 164 1300 164 1339.5 166.5 c 128,-1,122
 1379 169 1379 169 1390.5 170.5 c 128,-1,123
 1402 172 1402 172 1441 175.5 c 128,-1,124
 1480 179 1480 179 1520 185 c 128,-1,125
 1560 191 1560 191 1566.5 192 c 128,-1,126
 1573 193 1573 193 1574 193 c 2,127,-1
 1583 195 l 1,128,129
 1609 195 1609 195 1642 138 c 0,130,131
 1643 137 1643 137 1643.5 135 c 128,-1,132
 1644 133 1644 133 1647.5 124 c 128,-1,133
 1651 115 1651 115 1651 104 c 128,-1,134
 1651 93 1651 93 1636 84 c 2,135,-1
 1609 66 l 1,136,137
 1583 57 1583 57 1538.5 43 c 128,-1,138
 1494 29 1494 29 1398 29 c 1,139,-1
 1223 37 l 1,140,-1
 1156 34 l 1,141,142
 1003 34 1003 34 805 127 c 0,143,144
 790 136 790 136 738 162 c 128,-1,145
 686 188 686 188 639.5 217 c 128,-1,146
 593 246 593 246 559 293 c 0,147,148
 546 308 546 308 519 333.5 c 128,-1,149
 492 359 492 359 459 389 c 0,150,151
 409 434 409 434 398.5 459 c 128,-1,152
 388 484 388 484 383 494 c 0,153,154
 372 517 372 517 372 530.5 c 128,-1,155
 372 544 372 544 377 566 c 1,156,157
 354 612 354 612 353 615 c 2,158,-1
 353 637 l 2,159,160
 356 658 356 658 369.5 677.5 c 128,-1,161
 383 697 383 697 391 703 c 2,162,-1
 419 724 l 2,163,164
 427 732 427 732 434 735.5 c 128,-1,165
 441 739 441 739 452.5 745.5 c 128,-1,166
 464 752 464 752 469.5 755 c 128,-1,167
 475 758 475 758 485.5 763 c 128,-1,168
 496 768 496 768 504 771 c 0,169,170
 522 778 522 778 545 782 c 2,171,-1
 582 791 l 1,172,-1
 593 791 l 1,173,174
 669 795 669 795 713.5 795 c 128,-1,175
 758 795 758 795 862 791 c 1,176,-1
 961 795 l 2,177,178
 977 796 977 796 1015.5 796 c 128,-1,179
 1054 796 1054 796 1144 781 c 1,180,181
 1151 785 1151 785 1166 798 c 128,-1,182
 1181 811 1181 811 1189.5 815.5 c 128,-1,183
 1198 820 1198 820 1213 834 c 0,184,185
 1216 839 1216 839 1217 840 c 2,186,-1
 1217 875 l 1,187,-1
 1210 956 l 1,188,-1
 1215 1059 l 2,189,190
 1215 1105 1215 1105 1210 1131 c 0,191,192
 1205 1213 1205 1213 1195 1262.5 c 128,-1,193
 1185 1312 1185 1312 1182.5 1327.5 c 128,-1,194
 1180 1343 1180 1343 1172.5 1351 c 128,-1,195
 1165 1359 1165 1359 1128 1389 c 0,196,197
 1109 1400 1109 1400 1068 1415 c 128,-1,198
 1027 1430 1027 1430 1017 1435 c 128,-1,199
 1007 1440 1007 1440 990.5 1447.5 c 128,-1,200
 974 1455 974 1455 969.5 1457 c 128,-1,201
 965 1459 965 1459 949.5 1465.5 c 128,-1,202
 934 1472 934 1472 927 1474 c 128,-1,203
 920 1476 920 1476 907 1480.5 c 128,-1,204
 894 1485 894 1485 885 1487 c 0,205,206
 858 1493 858 1493 826 1493 c 0,207,208
 657 1493 657 1493 569 1464 c 1,209,210
 495 1444 495 1444 471 1427 c 1,211,212
 449 1417 449 1417 389 1366 c 1,213,214
 242 1224 242 1224 212 1150 c 0,215,216
 210 1145 210 1145 202 1123.5 c 128,-1,217
 194 1102 194 1102 190.5 1091.5 c 128,-1,218
 187 1081 187 1081 174 1046.5 c 128,-1,219
 161 1012 161 1012 157 999.5 c 0,220,221
 152 987 152 987 148 967 c 0,222,223
 138 925 138 925 139 901 c 2,224,-1
 139 872 l 1,3,-1
EndSplineSet
Validated: 33
EndChar

StartChar: S
Encoding: 83 83 53
GlifName: S_
Width: 995
Flags: W
LayerCount: 2
Fore
SplineSet
73 1203 m 2,0,-1
 73 1220 l 1,1,2
 77 1282 77 1282 92 1323 c 128,-1,3
 107 1364 107 1364 113.5 1387 c 128,-1,4
 120 1410 120 1410 122 1415 c 0,5,6
 138 1453 138 1453 181 1478 c 0,7,8
 193 1485 193 1485 219 1509 c 1,9,10
 269 1542 269 1542 364 1549 c 1,11,-1
 481 1549 l 2,12,13
 516 1548 516 1548 583 1544 c 1,14,-1
 592 1544 l 2,15,16
 633 1544 633 1544 650 1538 c 0,17,18
 668 1532 668 1532 684 1528 c 0,19,20
 730 1515 730 1515 770 1481 c 0,21,22
 843 1420 843 1420 870 1327 c 0,23,24
 872 1321 872 1321 872 1313 c 0,25,26
 872 1304 872 1304 866 1298 c 0,27,28
 853 1283 853 1283 830 1275 c 128,-1,29
 807 1267 807 1267 800 1267 c 2,30,-1
 798 1267 l 2,31,32
 765 1267 765 1267 720 1375 c 0,33,34
 715 1383 715 1383 715 1386 c 0,35,36
 708 1389 708 1389 700 1396 c 0,37,38
 689 1407 689 1407 664.5 1414.5 c 128,-1,39
 640 1422 640 1422 609 1435 c 0,40,41
 605 1434 605 1434 588 1434 c 2,42,-1
 554 1433 l 1,43,-1
 551 1433 l 1,44,-1
 463 1440 l 2,45,46
 436 1440 436 1440 372.5 1432 c 128,-1,47
 309 1424 309 1424 293 1418.5 c 128,-1,48
 277 1413 277 1413 271.5 1408 c 128,-1,49
 266 1403 266 1403 262.5 1400.5 c 128,-1,50
 259 1398 259 1398 245.5 1389.5 c 128,-1,51
 232 1381 232 1381 226 1375 c 1,52,53
 223 1365 223 1365 219 1344 c 128,-1,54
 215 1323 215 1323 212.5 1311.5 c 128,-1,55
 210 1300 210 1300 199.5 1265 c 128,-1,56
 189 1230 189 1230 188.5 1211.5 c 128,-1,57
 188 1193 188 1193 192 1158 c 128,-1,58
 196 1123 196 1123 197 1107 c 2,59,-1
 200 1047 l 2,60,61
 205 1009 205 1009 305 906 c 0,62,63
 317 898 317 898 330.5 882 c 128,-1,64
 344 866 344 866 348 863 c 128,-1,65
 352 860 352 860 354.5 858 c 128,-1,66
 357 856 357 856 360 853 c 128,-1,67
 363 850 363 850 377 841.5 c 128,-1,68
 391 833 391 833 442.5 804.5 c 128,-1,69
 494 776 494 776 538.5 748.5 c 0,70,71
 583 720 583 720 648 684 c 0,72,73
 762 620 762 620 860 515 c 0,74,75
 894 482 894 482 902 408 c 0,76,77
 904 396 904 396 904 389 c 2,78,-1
 908 298 l 1,79,80
 908 195 908 195 847 93 c 0,81,82
 836 78 836 78 819.5 62 c 128,-1,83
 803 46 803 46 785 32 c 128,-1,84
 767 18 767 18 721.5 1.5 c 128,-1,85
 676 -15 676 -15 613 -18 c 2,86,-1
 588 -19 l 2,87,88
 550 -19 550 -19 480 -13 c 1,89,-1
 423 -13 l 1,90,-1
 387 -14 l 2,91,92
 339 -14 339 -14 292 -14 c 0,93,94
 223 -10 223 -10 212 -7 c 0,95,96
 186 0 186 0 129 67 c 1,97,98
 86 126 86 126 60 234 c 0,99,100
 56 248 56 248 56 262 c 2,101,-1
 56 264 l 2,102,103
 56 303 56 303 132 303 c 0,104,105
 159 303 159 303 165 285 c 0,106,107
 172 267 172 267 182 234 c 0,108,109
 220 114 220 114 251 98 c 0,110,111
 252 98 252 98 257.5 97.5 c 128,-1,112
 263 97 263 97 297.5 97 c 128,-1,113
 332 97 332 97 353 96 c 2,114,-1
 409 96 l 1,115,-1
 479 98 l 1,116,-1
 499 97 l 1,117,-1
 532 98 l 1,118,-1
 618 94 l 2,119,120
 655 94 655 94 729 125 c 1,121,122
 734 136 734 136 739 139 c 128,-1,123
 744 142 744 142 749 154.5 c 128,-1,124
 754 167 754 167 769.5 202 c 128,-1,125
 785 237 785 237 788 258 c 128,-1,126
 791 279 791 279 791 304 c 128,-1,127
 791 329 791 329 792 339 c 2,128,-1
 792 348 l 2,129,130
 792 396 792 396 787 427 c 1,131,132
 770 444 770 444 735 473 c 128,-1,133
 700 502 700 502 676 524 c 128,-1,134
 652 546 652 546 643.5 551 c 128,-1,135
 635 556 635 556 616.5 563 c 128,-1,136
 598 570 598 570 575 580 c 0,137,138
 513 607 513 607 409 671.5 c 128,-1,139
 305 736 305 736 284 760.5 c 128,-1,140
 263 785 263 785 257.5 790.5 c 128,-1,141
 252 796 252 796 237 806 c 0,142,143
 213 823 213 823 176 863.5 c 128,-1,144
 139 904 139 904 116 947 c 128,-1,145
 93 990 93 990 87 1010 c 128,-1,146
 81 1030 81 1030 79 1057.5 c 128,-1,147
 77 1085 77 1085 76.5 1120 c 128,-1,148
 76 1155 76 1155 74.5 1169.5 c 128,-1,149
 73 1184 73 1184 73 1203 c 2,0,-1
EndSplineSet
Validated: 1
EndChar

StartChar: T
Encoding: 84 84 54
GlifName: T_
Width: 1536
Flags: W
LayerCount: 2
Fore
SplineSet
647 779 m 1,0,-1
 646 692 l 2,1,2
 646 616 646 616 660 551.5 c 128,-1,3
 674 487 674 487 677 435 c 128,-1,4
 680 383 680 383 693 343 c 128,-1,5
 706 303 706 303 717 260 c 128,-1,6
 728 217 728 217 729.5 212.5 c 128,-1,7
 731 208 731 208 733.5 201 c 128,-1,8
 736 194 736 194 742 186 c 0,9,10
 784 131 784 131 795 76 c 1,11,-1
 795 74 l 2,12,13
 795 51 795 51 764 40.5 c 128,-1,14
 733 30 733 30 715 30 c 2,15,-1
 711 30 l 2,16,17
 692 30 692 30 684.5 44.5 c 128,-1,18
 677 59 677 59 651.5 96.5 c 128,-1,19
 626 134 626 134 612 176 c 0,20,21
 556 345 556 345 553 412.5 c 128,-1,22
 550 480 550 480 536 524 c 1,23,24
 520 622 520 622 520 657 c 2,25,-1
 514 810 l 1,26,-1
 514 811 l 1,27,-1
 513 868 l 1,28,29
 513 1104 513 1104 602 1282 c 0,30,31
 609 1297 609 1297 621 1327 c 0,32,33
 644 1384 644 1384 663 1418 c 1,34,35
 638 1417 638 1417 589 1417 c 2,36,-1
 474 1421 l 2,37,38
 438 1425 438 1425 421 1425 c 128,-1,39
 404 1425 404 1425 388.5 1420.5 c 128,-1,40
 373 1416 373 1416 308 1402 c 1,41,42
 252 1384 252 1384 228 1369.5 c 128,-1,43
 204 1355 204 1355 171.5 1335.5 c 128,-1,44
 139 1316 139 1316 110 1297 c 128,-1,45
 81 1278 81 1278 70 1278 c 0,46,47
 46 1278 46 1278 16 1323 c 0,48,49
 10 1333 10 1333 10 1342.5 c 128,-1,50
 10 1352 10 1352 18 1361 c 0,51,52
 102 1461 102 1461 211 1496 c 0,53,54
 245 1507 245 1507 282 1511.5 c 128,-1,55
 319 1516 319 1516 365.5 1531 c 128,-1,56
 412 1546 412 1546 527 1546 c 2,57,-1
 529 1546 l 1,58,-1
 711 1536 l 1,59,-1
 790 1537 l 2,60,61
 819 1537 819 1537 859 1532 c 1,62,-1
 860 1532 l 1,63,64
 1053 1511 1053 1511 1120 1480 c 0,65,66
 1144 1469 1144 1469 1152 1464.5 c 128,-1,67
 1160 1460 1160 1460 1184 1450 c 0,68,69
 1279 1411 1279 1411 1363 1333 c 0,70,71
 1377 1319 1377 1319 1385.5 1309.5 c 128,-1,72
 1394 1300 1394 1300 1399.5 1295.5 c 128,-1,73
 1405 1291 1405 1291 1419.5 1277.5 c 128,-1,74
 1434 1264 1434 1264 1440 1259 c 128,-1,75
 1446 1254 1446 1254 1455.5 1246.5 c 128,-1,76
 1465 1239 1465 1239 1470 1234 c 2,77,-1
 1488 1216 l 2,78,79
 1497 1207 1497 1207 1497 1195 c 0,80,81
 1498 1177 1498 1177 1472 1157 c 0,82,83
 1440 1132 1440 1132 1427 1132 c 128,-1,84
 1414 1132 1414 1132 1407 1138.5 c 128,-1,85
 1400 1145 1400 1145 1392.5 1152.5 c 128,-1,86
 1385 1160 1385 1160 1382 1162.5 c 128,-1,87
 1379 1165 1379 1165 1371.5 1171.5 c 128,-1,88
 1364 1178 1364 1178 1352 1187 c 128,-1,89
 1340 1196 1340 1196 1317 1219.5 c 128,-1,90
 1294 1243 1294 1243 1278.5 1254.5 c 128,-1,91
 1263 1266 1263 1266 1238.5 1281 c 128,-1,92
 1214 1296 1214 1296 1183 1313 c 128,-1,93
 1152 1330 1152 1330 1128.5 1345 c 128,-1,94
 1105 1360 1105 1360 1085 1369 c 128,-1,95
 1065 1378 1065 1378 990 1391 c 2,96,-1
 832 1415 l 2,97,98
 814 1418 814 1418 801 1418 c 1,99,100
 781 1370 781 1370 752.5 1319 c 128,-1,101
 724 1268 724 1268 716 1248 c 0,102,103
 646 1084 646 1084 646.5 1004 c 128,-1,104
 647 924 647 924 647 812 c 2,105,-1
 647 779 l 1,0,-1
EndSplineSet
Validated: 33
EndChar

StartChar: U
Encoding: 85 85 55
GlifName: U_
Width: 1705
Flags: W
LayerCount: 2
Fore
SplineSet
1651 977 m 1,0,-1
 1647 874 l 1,1,-1
 1647 872 l 2,2,3
 1647 756 1647 756 1637 699 c 0,4,5
 1611 552 1611 552 1567 354 c 1,6,7
 1553 318 1553 318 1538.5 299.5 c 128,-1,8
 1524 281 1524 281 1501 249.5 c 128,-1,9
 1478 218 1478 218 1425.5 168.5 c 128,-1,10
 1373 119 1373 119 1319 87.5 c 128,-1,11
 1265 56 1265 56 1209.5 42.5 c 0,12,13
 1154 28 1154 28 1137 24 c 0,14,15
 1015 -8 1015 -8 651 37 c 0,16,17
 513 54 513 54 469 78 c 1,18,19
 378 117 378 117 279 274 c 1,20,21
 241 326 241 326 202 416 c 128,-1,22
 163 506 163 506 145 580 c 1,23,24
 72 814 72 814 72 1001 c 2,25,-1
 74 1098 l 1,26,-1
 66 1257 l 2,27,28
 66 1291 66 1291 68 1307 c 0,29,30
 81 1426 81 1426 111 1485 c 0,31,32
 112 1487 112 1487 113 1492 c 0,33,34
 118 1516 118 1516 137 1546 c 1,35,36
 144 1577 144 1577 193 1634 c 1,37,-1
 197 1634 l 2,38,39
 201 1636 201 1636 212 1636 c 128,-1,40
 223 1636 223 1636 229.5 1630 c 128,-1,41
 236 1624 236 1624 242.5 1618.5 c 0,42,43
 249 1614 249 1614 253 1610 c 0,44,45
 276 1590 276 1590 276 1573 c 0,46,47
 276 1554 276 1554 268 1546 c 0,48,49
 250 1528 250 1528 247.5 1522 c 128,-1,50
 245 1516 245 1516 240 1511 c 1,51,52
 240 1501 240 1501 232 1481 c 0,53,54
 214 1440 214 1440 211.5 1415 c 128,-1,55
 209 1390 209 1390 205 1382 c 0,56,57
 204 1367 204 1367 203 1337 c 128,-1,58
 202 1307 202 1307 201 1292 c 2,59,-1
 188 1122 l 1,60,-1
 193 1001 l 1,61,-1
 188 915 l 1,62,-1
 190 893 l 2,63,64
 192 885 192 885 204 840.5 c 128,-1,65
 216 796 216 796 232 729 c 0,66,67
 293 474 293 474 379 352 c 0,68,69
 467 234 467 234 535 193 c 0,70,71
 538 192 538 192 549 185 c 128,-1,72
 560 178 560 178 565 178 c 2,73,-1
 569 178 l 1,74,75
 619 164 619 164 689 163.5 c 0,76,77
 760 162 760 162 786 162 c 0,78,79
 842 161 842 161 899 156.5 c 128,-1,80
 956 152 956 152 1040 152 c 1,81,-1
 1081 150 l 2,82,83
 1095 150 1095 150 1130 159 c 0,84,85
 1164 168 1164 168 1188 174 c 0,86,87
 1236 186 1236 186 1255.5 197 c 128,-1,88
 1275 208 1275 208 1300 231.5 c 128,-1,89
 1325 255 1325 255 1360.5 282.5 c 128,-1,90
 1396 310 1396 310 1414.5 334 c 128,-1,91
 1433 358 1433 358 1458 387 c 1,92,93
 1462 434 1462 434 1491 575 c 2,94,-1
 1509 668 l 1,95,96
 1516 769 1516 769 1522 807.5 c 128,-1,97
 1528 846 1528 846 1529 857.5 c 128,-1,98
 1530 869 1530 869 1530 884 c 0,99,100
 1531 909 1531 909 1536 928 c 1,101,-1
 1536 1024 l 2,102,103
 1536 1093 1536 1093 1530 1146.5 c 128,-1,104
 1524 1200 1524 1200 1509 1256 c 0,105,106
 1483 1354 1483 1354 1478.5 1366 c 128,-1,107
 1474 1378 1474 1378 1455.5 1439.5 c 0,108,109
 1438 1500 1438 1500 1436 1510 c 0,110,111
 1434 1523 1434 1523 1428 1529 c 0,112,113
 1415 1542 1415 1542 1415 1560 c 128,-1,114
 1415 1578 1415 1578 1436.5 1595.5 c 128,-1,115
 1458 1613 1458 1613 1467.5 1617.5 c 128,-1,116
 1477 1622 1477 1622 1489 1622 c 0,117,118
 1500 1622 1500 1622 1518 1600 c 0,119,120
 1542 1570 1542 1570 1565 1485 c 128,-1,121
 1588 1400 1588 1400 1600 1367 c 0,122,123
 1647 1243 1647 1243 1651 1139 c 2,124,-1
 1651 1137 l 1,125,-1
 1649 1049 l 1,126,-1
 1651 977 l 1,0,-1
EndSplineSet
Validated: 33
EndChar

StartChar: V
Encoding: 86 86 56
GlifName: V_
Width: 1544
Flags: W
LayerCount: 2
Fore
SplineSet
51 1377 m 1,0,-1
 50 1415 l 1,1,-1
 50 1458 l 2,2,3
 50 1522 50 1522 60.5 1542 c 128,-1,4
 71 1562 71 1562 88 1570 c 2,5,-1
 113 1581 l 1,6,-1
 146 1577 l 1,7,8
 204 1562 204 1562 204 1533 c 2,9,-1
 204 1529 l 2,10,11
 202 1506 202 1506 194 1462 c 0,12,13
 180 1384 180 1384 180 1329 c 0,14,15
 180 1116 180 1116 215 1040 c 128,-1,16
 250 964 250 964 274 886 c 128,-1,17
 298 808 298 808 311 771 c 128,-1,18
 324 734 324 734 331 715 c 0,19,20
 356 647 356 647 366 629 c 128,-1,21
 376 611 376 611 403 560 c 128,-1,22
 430 509 430 509 441 494 c 128,-1,23
 452 479 452 479 476 453.5 c 128,-1,24
 500 428 500 428 512 413 c 128,-1,25
 524 398 524 398 536 380 c 128,-1,26
 548 362 548 362 556.5 350 c 128,-1,27
 565 338 565 338 577.5 316 c 128,-1,28
 590 294 590 294 595 284 c 0,29,30
 672 138 672 138 679.5 115 c 128,-1,31
 687 92 687 92 688 92 c 2,32,-1
 678 81 l 1,33,-1
 698 52 l 1,34,-1
 700 52 l 1,35,-1
 698 81 l 1,36,37
 778 90 778 90 861 153 c 0,38,39
 876 165 876 165 906 213.5 c 128,-1,40
 936 262 936 262 1018 353 c 0,41,42
 1038 372 1038 372 1074 411.5 c 128,-1,43
 1110 451 1110 451 1130 468.5 c 128,-1,44
 1150 486 1150 486 1163 511.5 c 128,-1,45
 1176 537 1176 537 1192.5 566 c 128,-1,46
 1209 595 1209 595 1213 609 c 128,-1,47
 1217 623 1217 623 1256 725 c 0,48,49
 1271 774 1271 774 1295 837 c 128,-1,50
 1319 900 1319 900 1326 952.5 c 0,51,52
 1334 1006 1334 1006 1344 1052 c 0,53,54
 1362 1134 1362 1134 1362 1187 c 2,55,-1
 1359 1254 l 1,56,-1
 1359 1255 l 1,57,-1
 1356 1378 l 1,58,-1
 1356 1394 l 1,59,-1
 1361 1530 l 1,60,-1
 1362 1578 l 2,61,62
 1362 1612 1362 1612 1421 1612 c 2,63,-1
 1433 1612 l 2,64,65
 1486 1612 1486 1612 1486 1580 c 2,66,-1
 1491 1433 l 1,67,-1
 1488 1341 l 1,68,-1
 1497 1191 l 2,69,70
 1497 1135 1497 1135 1480 1068.5 c 128,-1,71
 1463 1002 1463 1002 1460.5 989.5 c 128,-1,72
 1458 977 1458 977 1456 956 c 0,73,74
 1449 881 1449 881 1383 716 c 0,75,76
 1342 621 1342 621 1328 583 c 0,77,78
 1297 497 1297 497 1238 433 c 0,79,80
 1231 425 1231 425 1194 381 c 128,-1,81
 1157 337 1157 337 1140.5 321 c 0,82,83
 1124 306 1124 306 1102 286 c 0,84,85
 1054 243 1054 243 1041 227 c 0,86,87
 1028 210 1028 210 1016 188 c 0,88,89
 991 142 991 142 966 120 c 0,90,91
 888 47 888 47 791 31 c 0,92,93
 767 28 767 28 765 28 c 2,94,-1
 756 29 l 1,95,96
 723 20 723 20 683 20 c 0,97,98
 620 20 620 20 580 80 c 1,99,100
 538 108 538 108 472 225 c 0,101,102
 451 261 451 261 434 304 c 128,-1,103
 417 347 417 347 406 363 c 128,-1,104
 395 379 395 379 362.5 409.5 c 128,-1,105
 330 440 330 440 317 455 c 128,-1,106
 304 470 304 470 295 483.5 c 128,-1,107
 286 497 286 497 277 514.5 c 128,-1,108
 268 532 268 532 263.5 541.5 c 0,109,110
 259 552 259 552 249 574 c 0,111,112
 155 785 155 785 129.5 884 c 128,-1,113
 104 983 104 983 82 1036 c 0,114,115
 47 1120 47 1120 47 1249 c 1,116,-1
 51 1377 l 1,0,-1
698 81 m 2,117,118
 697 81 697 81 696 81 c 2,119,-1
 696 80 l 1,120,121
 691 81 691 81 688 92 c 1,122,-1
 697 102 l 1,123,-1
 698 81 l 2,117,118
EndSplineSet
Validated: 5
EndChar

StartChar: W
Encoding: 87 87 57
GlifName: W_
Width: 1931
Flags: W
LayerCount: 2
Fore
SplineSet
717 68 m 1,0,-1
 631 60 l 1,1,2
 508 60 508 60 463.5 72.5 c 128,-1,3
 419 85 419 85 392.5 109 c 128,-1,4
 366 133 366 133 338.5 170.5 c 128,-1,5
 311 208 311 208 302.5 216.5 c 128,-1,6
 294 225 294 225 276 245 c 128,-1,7
 258 265 258 265 234 289 c 0,8,9
 181 342 181 342 161 379 c 0,10,11
 93 494 93 494 85.5 569 c 128,-1,12
 78 644 78 644 78 737 c 2,13,-1
 78 816 l 2,14,15
 78 1066 78 1066 139 1190 c 0,16,17
 148 1209 148 1209 188 1290 c 128,-1,18
 228 1371 228 1371 253 1425.5 c 128,-1,19
 278 1480 278 1480 346 1589 c 0,20,21
 356 1604 356 1604 374 1604 c 2,22,-1
 375 1604 l 2,23,24
 397 1604 397 1604 449 1576 c 0,25,26
 469 1564 469 1564 469 1546 c 2,27,-1
 469 1539 l 1,28,29
 458 1486 458 1486 429.5 1427 c 128,-1,30
 401 1368 401 1368 374 1305.5 c 128,-1,31
 347 1243 347 1243 269 1124 c 0,32,33
 249 1091 249 1091 243 1033 c 128,-1,34
 237 975 237 975 228.5 905.5 c 128,-1,35
 220 836 220 836 220 799 c 2,36,-1
 220 795 l 1,37,38
 232 598 232 598 236 572 c 0,39,40
 243 523 243 523 281 460.5 c 128,-1,41
 319 398 319 398 374 348 c 0,42,43
 427 300 427 300 488 208 c 0,44,45
 493 200 493 200 496 198 c 2,46,-1
 563 198 l 1,47,-1
 613 200 l 1,48,-1
 690 196 l 1,49,-1
 699 196 l 2,50,51
 717 198 717 198 800 200 c 1,52,53
 768 320 768 320 768 392 c 1,54,55
 763 436 763 436 737 492 c 0,56,57
 692 588 692 588 692 657 c 1,58,-1
 703 760 l 1,59,-1
 703 763 l 2,60,61
 705 822 705 822 778 852 c 0,62,63
 811 865 811 865 857 865 c 128,-1,64
 903 865 903 865 936 854 c 1,65,66
 951 859 951 859 970 859 c 2,67,-1
 980 859 l 2,68,69
 1068 859 1068 859 1110 811 c 0,70,71
 1129 789 1129 789 1145 750 c 1,72,73
 1159 700 1159 700 1160.5 652.5 c 0,74,75
 1162 606 1162 606 1168 584 c 0,76,77
 1180 540 1180 540 1183 508 c 2,78,-1
 1183 507 l 2,79,80
 1184 494 1184 494 1190 469 c 0,81,82
 1200 428 1200 428 1204 387 c 0,83,84
 1215 292 1215 292 1266 165 c 0,85,86
 1273 154 1273 154 1282 145 c 1,87,-1
 1293 145 l 1,88,89
 1327 153 1327 153 1359 155 c 0,90,91
 1457 163 1457 163 1507 194 c 0,92,93
 1513 198 1513 198 1569 232.5 c 128,-1,94
 1625 267 1625 267 1653 286 c 0,95,96
 1683 312 1683 312 1685.5 318 c 128,-1,97
 1688 324 1688 324 1692 336 c 0,98,99
 1703 370 1703 370 1713 468.5 c 128,-1,100
 1723 567 1723 567 1751 669 c 1,101,-1
 1752 676 l 2,102,103
 1752 682 1752 682 1744.5 742 c 128,-1,104
 1737 802 1737 802 1737 851 c 2,105,-1
 1744 1038 l 2,106,107
 1744 1118 1744 1118 1736.5 1151 c 128,-1,108
 1729 1184 1729 1184 1694 1258 c 0,109,110
 1642 1367 1642 1367 1642 1392 c 1,111,112
 1634 1396 1634 1396 1626 1403 c 0,113,114
 1554 1458 1554 1458 1520 1532 c 0,115,116
 1510 1554 1510 1554 1507 1561 c 0,117,118
 1492 1570 1492 1570 1492 1585 c 0,119,120
 1492 1610 1492 1610 1553 1648 c 0,121,122
 1573 1658 1573 1658 1585.5 1658 c 128,-1,123
 1598 1658 1598 1658 1608 1646.5 c 128,-1,124
 1618 1635 1618 1635 1627.5 1620.5 c 0,125,126
 1638 1606 1638 1606 1648 1588 c 0,127,128
 1675 1543 1675 1543 1691 1527 c 128,-1,129
 1707 1511 1707 1511 1716.5 1500.5 c 128,-1,130
 1726 1490 1726 1490 1727.5 1489 c 128,-1,131
 1729 1488 1729 1488 1731 1486 c 128,-1,132
 1733 1484 1733 1484 1745 1473.5 c 128,-1,133
 1757 1463 1757 1463 1773 1430 c 2,134,-1
 1842 1286 l 2,135,136
 1865 1232 1865 1232 1874.5 1199 c 128,-1,137
 1884 1166 1884 1166 1884 1109 c 2,138,-1
 1882 1036 l 1,139,-1
 1884 877 l 2,140,141
 1884 797 1884 797 1882 757 c 2,142,-1
 1884 654 l 1,143,-1
 1884 653 l 2,144,145
 1882 623 1882 623 1873.5 572 c 0,146,147
 1866 522 1866 522 1856 442 c 0,148,149
 1841 315 1841 315 1812 266 c 0,150,151
 1739 140 1739 140 1591 85 c 1,152,153
 1570 72 1570 72 1542 62.5 c 0,154,155
 1514 52 1514 52 1474 38 c 0,156,157
 1401 12 1401 12 1264 12 c 1,158,-1
 1266 13 l 1,159,160
 1257 13 1257 13 1249.5 15.5 c 128,-1,161
 1242 18 1242 18 1239 19 c 0,162,163
 1188 36 1188 36 1168.5 61.5 c 128,-1,164
 1149 87 1149 87 1142 97 c 128,-1,165
 1135 107 1135 107 1126 127.5 c 128,-1,166
 1117 148 1117 148 1113.5 156.5 c 128,-1,167
 1110 165 1110 165 1101.5 189.5 c 128,-1,168
 1093 214 1093 214 1082 242.5 c 128,-1,169
 1071 271 1071 271 1063.5 341.5 c 128,-1,170
 1056 412 1056 412 1050 433 c 0,171,172
 1037 478 1037 478 1022 586 c 0,173,174
 1004 712 1004 712 999 721 c 1,175,-1
 992 720 l 1,176,-1
 991 720 l 2,177,178
 983 720 983 720 976 724 c 2,179,-1
 850 734 l 1,180,-1
 839 733 l 1,181,-1
 839 702 l 1,182,-1
 832 623 l 1,183,184
 838 610 838 610 850 582 c 0,185,186
 909 453 909 453 915 390 c 128,-1,187
 921 327 921 327 942 257 c 1,188,189
 953 206 953 206 953 178 c 0,190,191
 953 102 953 102 892 74 c 0,192,193
 889 72 889 72 859 65 c 1,194,195
 817 63 817 63 783.5 63 c 128,-1,196
 750 63 750 63 718 68 c 1,197,-1
 717 68 l 1,0,-1
EndSplineSet
Validated: 1
EndChar

StartChar: X
Encoding: 88 88 58
GlifName: X_
Width: 2076
Flags: W
LayerCount: 2
Fore
SplineSet
1051 793 m 1,0,-1
 1053 763 l 1,1,-1
 1053 736 l 1,2,-1
 1051 629 l 2,3,4
 1051 493 1051 493 1108 445 c 0,5,6
 1113 442 1113 442 1116 437 c 0,7,8
 1195 335 1195 335 1288 289 c 1,9,10
 1343 253 1343 253 1484 214 c 0,11,12
 1502 211 1502 211 1701 165 c 0,13,14
 1781 146 1781 146 1836 104 c 1,15,-1
 1942 75 l 1,16,-1
 2017 63 l 2,17,18
 2035 60 2035 60 2047.5 45 c 128,-1,19
 2060 30 2060 30 2060 10.5 c 128,-1,20
 2060 -9 2060 -9 2045 -24 c 128,-1,21
 2030 -39 2030 -39 2009 -39 c 2,22,-1
 1923 -26 l 2,23,24
 1920 -26 1920 -26 1918 -25 c 2,25,-1
 1799 8 l 2,26,27
 1790 10 1790 10 1772 24 c 0,28,29
 1735 52 1735 52 1678 65 c 0,30,31
 1491 109 1491 109 1452 116 c 0,32,33
 1303 157 1303 157 1234 201 c 1,34,35
 1128 253 1128 253 1038 370 c 1,36,37
 983 418 983 418 962 497 c 1,38,39
 931 435 931 435 907.5 412 c 128,-1,40
 884 389 884 389 853.5 362 c 128,-1,41
 823 335 823 335 807.5 321.5 c 128,-1,42
 792 308 792 308 766 286 c 0,43,44
 727 254 727 254 651.5 207.5 c 128,-1,45
 576 161 576 161 549.5 139 c 128,-1,46
 523 117 523 117 515 113 c 2,47,-1
 368 44 l 1,48,-1
 195 -16 l 2,49,50
 193 -17 193 -17 190 -17 c 2,51,-1
 104 -38 l 1,52,-1
 99 -38 l 1,53,-1
 -28 -55 l 1,54,-1
 -35 -55 l 2,55,56
 -56 -55 -56 -55 -71 -40 c 128,-1,57
 -86 -25 -86 -25 -86 -5 c 128,-1,58
 -86 15 -86 15 -72.5 30 c 128,-1,59
 -59 45 -59 45 -41 47 c 2,60,-1
 83 63 l 1,61,-1
 164 82 l 1,62,-1
 327 138 l 1,63,-1
 466 203 l 1,64,65
 526 251 526 251 578 282.5 c 128,-1,66
 630 314 630 314 651 328.5 c 128,-1,67
 672 343 672 343 686.5 354 c 128,-1,68
 701 365 701 365 724 384.5 c 0,69,70
 746 404 746 404 756 412 c 0,71,72
 811 461 811 461 829 478.5 c 128,-1,73
 847 496 847 496 864.5 530 c 128,-1,74
 882 564 882 564 891.5 589.5 c 0,75,76
 901 614 901 614 917 664 c 0,77,78
 940 734 940 734 942 751 c 2,79,-1
 950 835 l 1,80,81
 950 933 950 933 931 960 c 0,82,83
 904 996 904 996 896 1004.5 c 128,-1,84
 888 1013 888 1013 860 1036 c 2,85,-1
 740 1120 l 1,86,-1
 574 1217 l 1,87,-1
 573 1218 l 1,88,-1
 348 1357 l 2,89,90
 337 1364 337 1364 318 1378 c 0,91,92
 199 1462 199 1462 125.5 1488 c 128,-1,93
 52 1514 52 1514 -23 1579 c 0,94,95
 -45 1598 -45 1598 -45 1622.5 c 128,-1,96
 -45 1647 -45 1647 -30 1662 c 128,-1,97
 -15 1677 -15 1677 11 1677 c 128,-1,98
 37 1677 37 1677 51 1650 c 1,99,100
 108 1603 108 1603 161.5 1584 c 128,-1,101
 215 1565 215 1565 252.5 1543.5 c 128,-1,102
 290 1522 290 1522 336 1489.5 c 128,-1,103
 382 1457 382 1457 402 1444 c 2,104,-1
 626 1305 l 1,105,-1
 794 1207 l 2,106,107
 794 1206 794 1206 795 1206 c 128,-1,108
 796 1206 796 1206 797 1205 c 2,109,-1
 920 1119 l 1,110,111
 946 1106 946 1106 979 1065 c 0,112,113
 1022 1012 1022 1012 1033 987 c 1,114,115
 1058 1015 1058 1015 1111.5 1059.5 c 128,-1,116
 1165 1104 1165 1104 1184 1123 c 1,117,118
 1390 1412 1390 1412 1576 1528 c 0,119,120
 1659 1580 1659 1580 1751 1609 c 0,121,122
 1769 1615 1769 1615 1819 1659 c 1,123,124
 1834 1681 1834 1681 1858.5 1681 c 128,-1,125
 1883 1681 1883 1681 1898 1666 c 0,126,127
 1913 1650 1913 1650 1913 1634 c 0,128,129
 1914 1606 1914 1606 1894 1588 c 0,130,131
 1835 1529 1835 1529 1767 1506.5 c 128,-1,132
 1699 1484 1699 1484 1624 1437 c 128,-1,133
 1549 1390 1549 1390 1483 1324 c 0,134,135
 1379 1220 1379 1220 1264 1060 c 0,136,137
 1254 1045 1254 1045 1196 996 c 128,-1,138
 1138 947 1138 947 1117 926 c 0,139,140
 1057 866 1057 866 1051 805 c 1,141,-1
 1051 793 l 1,0,-1
EndSplineSet
Validated: 1
EndChar

StartChar: Y
Encoding: 89 89 59
GlifName: Y_
Width: 1468
Flags: W
LayerCount: 2
Fore
SplineSet
1085 636 m 128,-1,1
 1070 621 1070 621 1054.5 621 c 128,-1,2
 1039 621 1039 621 1024 626 c 1,3,4
 850 458 850 458 759 359 c 1,5,-1
 753 353 l 1,6,7
 712 320 712 320 627 226.5 c 128,-1,8
 542 133 542 133 499 97 c 0,9,10
 388 6 388 6 268 6 c 2,11,-1
 256 6 l 2,12,13
 249 5 249 5 119 -23 c 1,14,-1
 78 -51 l 2,15,16
 66 -59 66 -59 47 -59 c 128,-1,17
 28 -59 28 -59 13 -44 c 128,-1,18
 -2 -29 -2 -29 -2 -5.5 c 128,-1,19
 -2 18 -2 18 21 34 c 2,20,-1
 70 67 l 2,21,22
 83 78 83 78 165.5 93.5 c 128,-1,23
 248 109 248 109 251 109 c 2,24,-1
 268 108 l 1,25,26
 369 108 369 108 482 221 c 0,27,28
 497 236 497 236 569 315 c 128,-1,29
 641 394 641 394 685 430 c 1,30,31
 750 501 750 501 824.5 574 c 128,-1,32
 899 647 899 647 918 666 c 1,33,-1
 793 714 l 2,34,35
 783 718 783 718 774.5 725.5 c 128,-1,36
 766 733 766 733 731 761 c 128,-1,37
 696 789 696 789 678.5 803.5 c 128,-1,38
 661 818 661 818 633 842 c 0,39,40
 533 927 533 927 420 1056 c 1,41,-1
 420 1057 l 2,42,43
 420 1058 420 1058 419 1058 c 2,44,-1
 296 1213 l 2,45,46
 295 1214 295 1214 293 1217 c 2,47,-1
 186 1381 l 2,48,49
 180 1390 180 1390 178 1404.5 c 128,-1,50
 176 1419 176 1419 171 1430.5 c 128,-1,51
 166 1442 166 1442 146 1475 c 0,52,53
 111 1533 111 1533 111 1564 c 0,54,55
 111 1632 111 1632 164 1632 c 0,56,57
 185 1632 185 1632 200 1617 c 128,-1,58
 215 1602 215 1602 215 1589 c 128,-1,59
 215 1576 215 1576 214 1571.5 c 128,-1,60
 213 1567 213 1567 215 1561.5 c 128,-1,61
 217 1556 217 1556 245.5 1507.5 c 128,-1,62
 274 1459 274 1459 279 1427 c 1,63,-1
 378 1275 l 1,64,-1
 498 1122 l 1,65,66
 587 1023 587 1023 631 981 c 128,-1,67
 675 939 675 939 837 807 c 1,68,-1
 997 746 l 1,69,70
 1174 933 1174 933 1238 1115 c 0,71,72
 1243 1125 1243 1125 1252.5 1139 c 128,-1,73
 1262 1153 1262 1153 1274 1187 c 128,-1,74
 1286 1221 1286 1221 1298.5 1272 c 128,-1,75
 1311 1323 1311 1323 1318 1345 c 1,76,-1
 1342 1634 l 2,77,78
 1344 1653 1344 1653 1359 1667 c 128,-1,79
 1374 1681 1374 1681 1394 1681 c 128,-1,80
 1414 1681 1414 1681 1429 1666 c 128,-1,81
 1444 1651 1444 1651 1444 1630 c 2,82,-1
 1444 1626 l 1,83,-1
 1419 1331 l 2,84,85
 1419 1328 1419 1328 1414 1311.5 c 0,86,87
 1408 1295 1408 1295 1396 1242 c 0,88,89
 1372 1138 1372 1138 1332 1075 c 1,90,91
 1265 886 1265 886 1092 698 c 1,92,93
 1100 685 1100 685 1100 668 c 128,-1,0
 1100 651 1100 651 1085 636 c 128,-1,1
EndSplineSet
Validated: 1
EndChar

StartChar: Z
Encoding: 90 90 60
GlifName: Z_
Width: 1253
Flags: W
LayerCount: 2
Fore
SplineSet
223 474 m 1,0,-1
 248 493 l 1,1,-1
 219 522 l 1,2,-1
 193 503 l 1,3,-1
 223 474 l 1,0,-1
823 1544 m 1,4,5
 651 1566 651 1566 553 1559 c 2,6,-1
 451 1556 l 1,7,-1
 420 1556 l 1,8,-1
 368 1558 l 2,9,10
 365 1558 365 1558 342 1563 c 128,-1,11
 319 1568 319 1568 316 1561 c 0,12,13
 311 1558 311 1558 298 1555 c 2,14,-1
 212 1532 l 2,15,16
 201 1529 201 1529 180 1519 c 128,-1,17
 159 1509 159 1509 151 1506.5 c 128,-1,18
 143 1504 143 1504 137 1504 c 0,19,20
 123 1504 123 1504 104 1524 c 0,21,22
 80 1549 80 1549 80 1564.5 c 128,-1,23
 80 1580 80 1580 92 1589 c 0,24,25
 185 1663 185 1663 287 1663 c 1,26,-1
 303 1662 l 1,27,-1
 308 1662 l 2,28,29
 311 1662 311 1662 331 1666.5 c 128,-1,30
 351 1671 351 1671 437 1671 c 2,31,-1
 567 1665 l 1,32,-1
 703 1669 l 2,33,34
 806 1669 806 1669 840 1654.5 c 128,-1,35
 874 1640 874 1640 883 1635 c 128,-1,36
 892 1630 892 1630 896 1625 c 128,-1,37
 900 1620 900 1620 944 1598.5 c 128,-1,38
 988 1577 988 1577 1027 1537 c 128,-1,39
 1066 1497 1066 1497 1073.5 1470 c 128,-1,40
 1081 1443 1081 1443 1083.5 1437.5 c 128,-1,41
 1086 1432 1086 1432 1088 1427 c 0,42,43
 1094 1408 1094 1408 1094 1405 c 2,44,-1
 1102 1372 l 2,45,46
 1104 1362 1104 1362 1104 1354 c 2,47,-1
 1093 1314 l 2,48,49
 1073 1237 1073 1237 938 1145 c 0,50,51
 900 1119 900 1119 881 1102.5 c 128,-1,52
 862 1086 862 1086 821 1063 c 0,53,54
 747 1022 747 1022 634 920 c 0,55,56
 623 910 623 910 587 880 c 128,-1,57
 551 850 551 850 532.5 831 c 128,-1,58
 514 812 514 812 480.5 773.5 c 128,-1,59
 447 735 447 735 439 726.5 c 128,-1,60
 431 718 431 718 421.5 708 c 128,-1,61
 412 698 412 698 407 692.5 c 0,62,63
 402 686 402 686 395 678 c 0,64,65
 382 662 382 662 375 643.5 c 128,-1,66
 368 625 368 625 346.5 592.5 c 128,-1,67
 325 560 325 560 321 551.5 c 0,68,69
 317 544 317 544 310 530 c 0,70,71
 295 500 295 500 289 423 c 0,72,73
 288 411 288 411 273 287 c 1,74,75
 273 233 273 233 319 189 c 0,76,77
 327 182 327 182 341 179 c 0,78,79
 379 171 379 171 389 164.5 c 128,-1,80
 399 158 399 158 403 158 c 128,-1,81
 407 158 407 158 413 156 c 128,-1,82
 419 154 419 154 429.5 152.5 c 128,-1,83
 440 151 440 151 454.5 150 c 128,-1,84
 469 149 469 149 521.5 142 c 128,-1,85
 574 135 574 135 641 139 c 128,-1,86
 708 143 708 143 741.5 143 c 128,-1,87
 775 143 775 143 839.5 136.5 c 128,-1,88
 904 130 904 130 912 134 c 0,89,90
 923 140 923 140 943.5 143 c 128,-1,91
 964 146 964 146 981 150.5 c 128,-1,92
 998 155 998 155 1034.5 158 c 0,93,94
 1071 162 1071 162 1082 170 c 0,95,96
 1105 188 1105 188 1123 187.5 c 0,97,98
 1142 187 1142 187 1146 183 c 0,99,100
 1163 168 1163 168 1170 147 c 128,-1,101
 1177 126 1177 126 1177 123 c 2,102,-1
 1177 121 l 2,103,104
 1177 105 1177 105 1167 99.5 c 128,-1,105
 1157 94 1157 94 1150 93.5 c 128,-1,106
 1143 93 1143 93 1138 88.5 c 128,-1,107
 1133 84 1133 84 1122.5 79 c 128,-1,108
 1112 74 1112 74 1104 72 c 128,-1,109
 1096 70 1096 70 1082.5 66 c 128,-1,110
 1069 62 1069 62 1023.5 48.5 c 128,-1,111
 978 35 978 35 911 35 c 2,112,-1
 889 36 l 2,113,114
 851 36 851 36 779 32 c 1,115,-1
 778 32 l 2,116,117
 652 30 652 30 591 30 c 2,118,-1
 589 30 l 2,119,120
 488 30 488 30 368 66 c 0,121,122
 355 70 355 70 332.5 75.5 c 128,-1,123
 310 81 310 81 296 85 c 0,124,125
 259 96 259 96 246.5 109.5 c 128,-1,126
 234 123 234 123 231.5 125.5 c 128,-1,127
 229 128 229 128 226.5 130 c 128,-1,128
 224 132 224 132 222 135 c 0,129,130
 180 184 180 184 175 217 c 128,-1,131
 170 250 170 250 170 272 c 2,132,-1
 168 298 l 1,133,-1
 168 306 l 2,134,135
 168 346 168 346 172 368 c 128,-1,136
 176 390 176 390 178 433 c 128,-1,137
 180 476 180 476 184 492 c 0,138,139
 191 516 191 516 192 520 c 0,140,141
 197 554 197 554 231 612.5 c 128,-1,142
 265 671 265 671 277.5 701.5 c 128,-1,143
 290 732 290 732 348 802 c 0,144,145
 414 882 414 882 448.5 911 c 128,-1,146
 483 940 483 940 506.5 958 c 128,-1,147
 530 976 530 976 571 1016 c 0,148,149
 655 1098 655 1098 766 1159 c 0,150,151
 813 1185 813 1185 828.5 1200.5 c 128,-1,152
 844 1216 844 1216 879.5 1243 c 0,153,154
 916 1270 916 1270 936 1289 c 0,155,156
 985 1334 985 1334 993 1348 c 1,157,158
 974 1406 974 1406 971 1435 c 1,159,160
 966 1438 966 1438 911 1476 c 0,161,162
 859 1511 859 1511 827 1544 c 1,163,-1
 823 1544 l 1,4,5
EndSplineSet
Validated: 33
EndChar

StartChar: bracketleft
Encoding: 91 91 61
GlifName: bracketleft
Width: 473
Flags: W
LayerCount: 2
Fore
SplineSet
45 451 m 1,0,-1
 57 885 l 1,1,-1
 45 1238 l 1,2,3
 45 1447 45 1447 123 1622 c 0,4,5
 148 1681 148 1681 208 1681 c 0,6,7
 237 1681 237 1681 263 1666 c 128,-1,8
 289 1651 289 1651 340.5 1613.5 c 128,-1,9
 392 1576 392 1576 419 1565.5 c 128,-1,10
 446 1555 446 1555 446 1526.5 c 128,-1,11
 446 1498 446 1498 431 1483 c 128,-1,12
 416 1468 416 1468 402.5 1468 c 128,-1,13
 389 1468 389 1468 365 1476.5 c 0,14,15
 341 1484 341 1484 288 1524 c 0,16,17
 229 1568 229 1568 214 1575 c 1,18,19
 147 1424 147 1424 147 1242 c 1,20,-1
 160 885 l 1,21,-1
 147 448 l 1,22,23
 147 222 147 222 216 23 c 1,24,25
 230 29 230 29 287 64 c 0,26,27
 367 113 367 113 394 113 c 128,-1,28
 421 113 421 113 436 98 c 0,29,30
 451 84 451 84 451 64 c 0,31,32
 451 24 451 24 419.5 14.5 c 0,33,34
 388 4 388 4 328 -32 c 0,35,36
 246 -82 246 -82 209 -82 c 0,37,38
 144 -82 144 -82 122 -17 c 0,39,40
 45 202 45 202 45 451 c 1,0,-1
EndSplineSet
Validated: 1
EndChar

StartChar: backslash
Encoding: 92 92 62
GlifName: backslash
Width: 1400
Flags: W
LayerCount: 2
Fore
SplineSet
96 1579 m 2,0,1
 101 1579 l 2,2,3
 141 1576 141 1576 169.5 1553.5 c 128,-1,4
 198 1531 198 1531 204.5 1528 c 0,5,6
 212 1525 212 1525 224 1519 c 0,7,8
 234 1514 234 1514 290 1489.5 c 128,-1,9
 346 1465 346 1465 378 1446 c 0,10,11
 652 1313 652 1313 860 970 c 0,12,13
 894 913 894 913 958.5 799.5 c 128,-1,14
 1023 686 1023 686 1048 644 c 1,15,16
 1283 361 1283 361 1370 34 c 0,17,18
 1372 26 1372 26 1372 12.5 c 128,-1,19
 1372 -1 1372 -1 1357 -16 c 128,-1,20
 1342 -31 1342 -31 1322.5 -31 c 128,-1,21
 1303 -31 1303 -31 1289 -20 c 128,-1,22
 1275 -9 1275 -9 1271 7 c 0,23,24
 1195 306 1195 306 966 582 c 0,25,26
 958 590 958 590 888 714 c 0,27,28
 842 794 842 794 813.5 844 c 128,-1,29
 785 894 785 894 740.5 964.5 c 128,-1,30
 696 1035 696 1035 656 1084 c 128,-1,31
 616 1133 616 1133 565 1186.5 c 128,-1,32
 514 1240 514 1240 455.5 1281.5 c 128,-1,33
 397 1323 397 1323 364.5 1339.5 c 128,-1,34
 332 1356 332 1356 331 1356 c 128,-1,35
 330 1356 330 1356 315.5 1364.5 c 128,-1,36
 301 1373 301 1373 246 1397 c 128,-1,37
 191 1421 191 1421 170.5 1430.5 c 128,-1,38
 150 1440 150 1440 125.5 1458 c 128,-1,39
 101 1476 101 1476 87 1477.5 c 128,-1,40
 73 1479 73 1479 59 1494 c 128,-1,41
 45 1509 45 1509 45 1529 c 128,-1,42
 45 1549 45 1549 60 1564 c 128,-1,43
 75 1579 75 1579 96 1579 c 2,0,1
EndSplineSet
Validated: 1
EndChar

StartChar: bracketright
Encoding: 93 93 63
GlifName: bracketright
Width: 473
Flags: W
LayerCount: 2
Fore
SplineSet
451 451 m 1,0,1
 451 202 451 202 374 -17 c 0,2,3
 366 -40 366 -40 345 -61 c 128,-1,4
 324 -82 324 -82 286.5 -82 c 128,-1,5
 249 -82 249 -82 167 -32 c 0,6,7
 108 4 108 4 76.5 14 c 128,-1,8
 45 24 45 24 45 64 c 0,9,10
 45 84 45 84 60 98.5 c 128,-1,11
 75 113 75 113 102 113 c 128,-1,12
 129 113 129 113 210 63 c 0,13,14
 268 27 268 27 279 23 c 1,15,16
 348 222 348 222 348 448 c 1,17,-1
 336 885 l 1,18,-1
 348 1242 l 1,19,20
 348 1424 348 1424 281 1575 c 1,21,22
 268 1568 268 1568 208 1524 c 0,23,24
 154 1484 154 1484 130 1476 c 128,-1,25
 106 1468 106 1468 92.5 1468 c 128,-1,26
 79 1468 79 1468 64 1483 c 128,-1,27
 49 1498 49 1498 49 1526.5 c 128,-1,28
 49 1555 49 1555 76 1565.5 c 128,-1,29
 103 1576 103 1576 155 1613.5 c 128,-1,30
 207 1651 207 1651 233 1666 c 128,-1,31
 259 1681 259 1681 288 1681 c 0,32,33
 347 1681 347 1681 372 1622 c 0,34,35
 451 1445 451 1445 451 1238 c 1,36,-1
 438 885 l 1,37,-1
 451 451 l 1,0,1
EndSplineSet
Validated: 1
EndChar

StartChar: asciicircum
Encoding: 94 94 64
GlifName: asciicircum
Width: 851
Flags: W
LayerCount: 2
Fore
SplineSet
654.5 1011.5 m 128,-1,1
 668 986 668 986 668 973.5 c 128,-1,2
 668 961 668 961 658 951 c 128,-1,3
 648 941 648 941 629.5 941 c 128,-1,4
 611 941 611 941 601 960 c 0,5,6
 574 1012 574 1012 556.5 1101 c 128,-1,7
 539 1190 539 1190 529 1218 c 0,8,9
 505 1285 505 1285 439 1285 c 0,10,11
 403 1285 403 1285 377.5 1259.5 c 128,-1,12
 352 1234 352 1234 309 1132 c 128,-1,13
 266 1030 266 1030 230 986 c 0,14,15
 218 972 218 972 203 972 c 128,-1,16
 188 972 188 972 177.5 982.5 c 128,-1,17
 167 993 167 993 167 1007 c 128,-1,18
 167 1021 167 1021 186 1045.5 c 128,-1,19
 205 1070 205 1070 231.5 1133.5 c 128,-1,20
 258 1197 258 1197 262 1206 c 128,-1,21
 266 1215 266 1215 279 1241.5 c 128,-1,22
 292 1268 292 1268 300 1278.5 c 128,-1,23
 308 1289 308 1289 324.5 1308 c 128,-1,24
 341 1327 341 1327 356 1335 c 0,25,26
 397 1357 397 1357 454 1357 c 0,27,28
 546 1358 546 1358 588 1262 c 0,29,30
 605 1223 605 1223 623 1130 c 128,-1,0
 641 1037 641 1037 654.5 1011.5 c 128,-1,1
EndSplineSet
Validated: 33
EndChar

StartChar: underscore
Encoding: 95 95 65
GlifName: underscore
Width: 2097
Flags: W
LayerCount: 2
Fore
SplineSet
-37.5 -34 m 128,-1,1
 -51 -19 -51 -19 -51 1 c 128,-1,2
 -51 21 -51 21 -36 36 c 128,-1,3
 -21 51 -21 51 0 51 c 2,4,-1
 6 51 l 1,5,6
 135 35 135 35 310.5 2.5 c 128,-1,7
 486 -30 486 -30 550 -41 c 0,8,9
 732 -72 732 -72 896 -72 c 128,-1,10
 1060 -72 1060 -72 1199 -56 c 0,11,12
 1382 -36 1382 -36 1639.5 19 c 128,-1,13
 1897 74 1897 74 2040 96 c 1,14,-1
 2048 96 l 2,15,16
 2069 96 2069 96 2084 81 c 128,-1,17
 2099 66 2099 66 2099 46.5 c 128,-1,18
 2099 27 2099 27 2086.5 12 c 128,-1,19
 2074 -3 2074 -3 2056 -6 c 0,20,21
 1888 -33 1888 -33 1701 -72.5 c 128,-1,22
 1514 -112 1514 -112 1434 -127 c 0,23,24
 1180 -175 1180 -175 926 -175 c 0,25,26
 737 -175 737 -175 603 -153.5 c 128,-1,27
 469 -132 469 -132 296.5 -99.5 c 128,-1,28
 124 -67 124 -67 -6 -51 c 0,29,0
 -24 -49 -24 -49 -37.5 -34 c 128,-1,1
EndSplineSet
Validated: 1
EndChar

StartChar: grave
Encoding: 96 96 66
GlifName: grave
Width: 2048
Flags: W
LayerCount: 2
Fore
SplineSet
898 1261.5 m 128,-1,1
 887 1275 887 1275 872.5 1289.5 c 128,-1,2
 858 1304 858 1304 847 1311.5 c 128,-1,3
 836 1319 836 1319 812 1323.5 c 128,-1,4
 788 1328 788 1328 766.5 1349.5 c 128,-1,5
 745 1371 745 1371 745 1392.5 c 128,-1,6
 745 1414 745 1414 760 1429 c 128,-1,7
 775 1444 775 1444 798.5 1444 c 128,-1,8
 822 1444 822 1444 838 1423 c 0,9,10
 842 1422 842 1422 854 1420 c 0,11,12
 918 1406 918 1406 992 1308 c 0,13,14
 1016 1276 1016 1276 1025.5 1265.5 c 128,-1,15
 1035 1255 1035 1255 1039 1240 c 2,16,-1
 1051 1187 l 2,17,18
 1053 1179 1053 1179 1053 1166.5 c 128,-1,19
 1053 1154 1053 1154 1038 1139 c 128,-1,20
 1023 1124 1023 1124 1003 1124 c 0,21,22
 961 1124 961 1124 952 1164 c 2,23,-1
 942 1205 l 1,24,25
 935 1214 935 1214 922 1231 c 128,-1,0
 909 1248 909 1248 898 1261.5 c 128,-1,1
EndSplineSet
Validated: 1
EndChar

StartChar: a
Encoding: 97 97 67
GlifName: a
Width: 950
Flags: W
LayerCount: 2
Fore
SplineSet
564 175 m 2,0,-1
 563 190 l 1,1,-1
 567 242 l 1,2,-1
 559 287 l 1,3,4
 559 312 559 312 574 327 c 128,-1,5
 589 342 589 342 610.5 342 c 128,-1,6
 632 342 632 342 646.5 327.5 c 128,-1,7
 661 313 661 313 661 301 c 128,-1,8
 661 289 661 289 666.5 279 c 128,-1,9
 672 269 672 269 677 255 c 0,10,11
 722 177 722 177 744.5 154.5 c 128,-1,12
 767 132 767 132 814 92 c 1,13,-1
 872 78 l 2,14,15
 889 74 889 74 902 60 c 128,-1,16
 915 46 915 46 915 28.5 c 128,-1,17
 915 11 915 11 898 -6 c 128,-1,18
 881 -23 881 -23 868.5 -23 c 128,-1,19
 856 -23 856 -23 848 -21 c 2,20,-1
 779 -5 l 2,21,22
 765 -1 765 -1 723 34 c 128,-1,23
 681 69 681 69 648 110 c 1,24,25
 612 49 612 49 501 28 c 0,26,27
 498 27 498 27 483.5 27 c 128,-1,28
 469 27 469 27 449.5 30 c 128,-1,29
 430 33 430 33 408.5 37.5 c 128,-1,30
 387 42 387 42 348 47.5 c 128,-1,31
 309 53 309 53 263 76 c 1,32,33
 213 95 213 95 149 159 c 128,-1,34
 85 223 85 223 52 295 c 0,35,36
 47 307 47 307 47 315 c 2,37,-1
 38 433 l 1,38,39
 38 618 38 618 137 717 c 0,40,41
 197 777 197 777 281 777 c 0,42,43
 301 777 301 777 343 777 c 128,-1,44
 385 777 385 777 442 751 c 128,-1,45
 499 725 499 725 540 684 c 0,46,47
 631 598 631 598 649 466 c 1,48,-1
 649 442 l 2,49,50
 649 421 649 421 634 406 c 128,-1,51
 619 391 619 391 598 391 c 128,-1,52
 577 391 577 391 562 406 c 128,-1,53
 547 421 547 421 547 442 c 2,54,-1
 547 455 l 1,55,56
 534 550 534 550 469 610 c 0,57,58
 468 610 468 610 468 611 c 2,59,-1
 466 612 l 1,60,61
 403 675 403 675 321 675 c 2,62,-1
 299 674 l 1,63,-1
 279 675 l 1,64,65
 198 675 198 675 160 556 c 0,66,67
 141 498 141 498 141 432 c 1,68,-1
 149 327 l 1,69,70
 176 272 176 272 214 239 c 0,71,72
 222 232 222 232 228 226 c 0,73,74
 284 170 284 170 302 170 c 0,75,76
 304 170 304 170 322.5 161 c 128,-1,77
 341 152 341 152 371 147.5 c 0,78,79
 400 142 400 142 420 138 c 0,80,81
 461 128 461 128 487 129 c 1,82,83
 564 144 564 144 564 175 c 2,0,-1
EndSplineSet
Validated: 33
EndChar

StartChar: b
Encoding: 98 98 68
GlifName: b
Width: 942
Flags: W
LayerCount: 2
Fore
SplineSet
345 708 m 1,0,-1
 440 703 l 2,1,2
 557 700 557 700 626 659 c 0,3,4
 630 656 630 656 646 647 c 128,-1,5
 662 638 662 638 668 634.5 c 128,-1,6
 674 631 674 631 687.5 622.5 c 128,-1,7
 701 614 701 614 708.5 608.5 c 128,-1,8
 716 603 716 603 727 595 c 0,9,10
 841 512 841 512 841 361 c 0,11,12
 841 214 841 214 711 84 c 0,13,14
 616 -11 616 -11 462 -11 c 0,15,16
 342 -10 342 -10 276 6 c 0,17,18
 160 35 160 35 126 134 c 0,19,20
 56 340 56 340 56 500.5 c 128,-1,21
 56 661 56 661 90.5 802.5 c 128,-1,22
 125 944 125 944 163.5 1028.5 c 128,-1,23
 202 1113 202 1113 230 1158 c 128,-1,24
 258 1203 258 1203 335.5 1317.5 c 128,-1,25
 413 1432 413 1432 453 1507 c 0,26,27
 467 1534 467 1534 493 1534 c 128,-1,28
 519 1534 519 1534 534 1519 c 128,-1,29
 549 1504 549 1504 549 1487 c 128,-1,30
 549 1470 549 1470 543 1458 c 0,31,32
 501 1381 501 1381 423 1265.5 c 128,-1,33
 345 1150 345 1150 317 1106 c 0,34,35
 241 984 241 984 212.5 869.5 c 128,-1,36
 184 755 184 755 173 686 c 1,37,38
 259 708 259 708 345 708 c 1,0,-1
238 600 m 0,39,40
 192 600 192 600 184 571 c 0,41,42
 162 488 162 488 172 383 c 1,43,44
 175 310 175 310 189 272.5 c 128,-1,45
 203 235 203 235 211.5 212 c 128,-1,46
 220 189 220 189 223.5 182 c 0,47,48
 228 176 228 176 236 160 c 0,49,50
 260 114 260 114 312 105 c 0,51,52
 333 101 333 101 366.5 106.5 c 128,-1,53
 400 112 400 112 415.5 113 c 128,-1,54
 431 114 431 114 464.5 115.5 c 0,55,56
 498 116 498 116 514 118 c 0,57,58
 612 126 612 126 642 174 c 0,59,60
 657 197 657 197 667 221.5 c 128,-1,61
 677 246 677 246 686.5 264.5 c 0,62,63
 696 282 696 282 700 292 c 0,64,65
 712 318 712 318 709.5 341.5 c 128,-1,66
 707 365 707 365 709.5 376.5 c 128,-1,67
 712 388 712 388 714 393 c 0,68,69
 719 406 719 406 703.5 424.5 c 128,-1,70
 688 443 688 443 668 474.5 c 128,-1,71
 648 506 648 506 631 523.5 c 128,-1,72
 614 541 614 541 586 551 c 0,73,74
 443 604 443 604 238 600 c 0,39,40
EndSplineSet
Validated: 33
EndChar

StartChar: c
Encoding: 99 99 69
GlifName: c
Width: 782
Flags: W
LayerCount: 2
Fore
SplineSet
623 133.5 m 128,-1,1
 704 182 704 182 727 182 c 128,-1,2
 750 182 750 182 765 167 c 128,-1,3
 780 152 780 152 780 124.5 c 128,-1,4
 780 97 780 97 745.5 82 c 128,-1,5
 711 67 711 67 660 36.5 c 0,6,7
 608 6 608 6 584 -6 c 0,8,9
 511 -43 511 -43 444 -49.5 c 128,-1,10
 377 -56 377 -56 334 -56 c 0,11,12
 170 -56 170 -56 80 49 c 0,13,14
 28 109 28 109 10.5 173.5 c 128,-1,15
 -7 238 -7 238 -7 318 c 2,16,-1
 -4 447 l 2,17,18
 -2 561 -2 561 15.5 637.5 c 128,-1,19
 33 714 33 714 90 792 c 0,20,21
 158 880 158 880 270 880 c 0,22,23
 378 880 378 880 471 820 c 0,24,25
 489 808 489 808 532 778.5 c 128,-1,26
 575 749 575 749 610 730 c 128,-1,27
 645 711 645 711 645 685 c 128,-1,28
 645 659 645 659 630 644 c 0,29,30
 616 629 616 629 598 629 c 0,31,32
 565 629 565 629 501 675 c 0,33,34
 437 720 437 720 419 732 c 0,35,36
 348 778 348 778 277 778 c 128,-1,37
 206 778 206 778 165.5 723 c 128,-1,38
 125 668 125 668 112.5 610.5 c 128,-1,39
 100 553 100 553 98 446 c 2,40,-1
 95 314 l 2,41,42
 95 249 95 249 108 204 c 0,43,44
 124 148 124 148 175 97 c 128,-1,45
 226 46 226 46 334 46 c 0,46,47
 450 46 450 46 496 65.5 c 128,-1,0
 542 85 542 85 623 133.5 c 128,-1,1
EndSplineSet
Validated: 1
EndChar

StartChar: d
Encoding: 100 100 70
GlifName: d
Width: 942
Flags: W
LayerCount: 2
Fore
SplineSet
551 708 m 1,0,1
 635 708 635 708 723 686 c 1,2,3
 712 755 712 755 683.5 869.5 c 128,-1,4
 655 984 655 984 579 1106 c 0,5,6
 551 1150 551 1150 449 1301 c 128,-1,7
 347 1452 347 1452 347 1488 c 0,8,9
 347 1504 347 1504 362 1519 c 128,-1,10
 377 1534 377 1534 403.5 1534 c 128,-1,11
 430 1534 430 1534 444 1507 c 0,12,13
 484 1432 484 1432 566.5 1310 c 128,-1,14
 649 1188 649 1188 714 1073 c 0,15,16
 761 990 761 990 792 856 c 0,17,18
 841 657 841 657 841 498 c 128,-1,19
 841 339 841 339 771 134 c 0,20,21
 738 36 738 36 621 6 c 0,22,23
 555 -11 555 -11 434 -11 c 0,24,25
 280 -11 280 -11 185 84 c 0,26,27
 56 213 56 213 56 361 c 0,28,29
 56 514 56 514 175 600 c 0,30,31
 184 606 184 606 199.5 616 c 128,-1,32
 215 626 215 626 225.5 632 c 128,-1,33
 236 638 236 638 271 659 c 0,34,35
 340 700 340 700 456 703 c 2,36,-1
 551 708 l 1,0,1
659 600 m 0,37,38
 454 604 454 604 311 551 c 0,39,40
 268 535 268 535 228 474 c 0,41,42
 208 442 208 442 192.5 423.5 c 0,43,44
 176 405 176 405 182 393 c 0,45,46
 184 388 184 388 187 376.5 c 128,-1,47
 190 365 190 365 187 341.5 c 128,-1,48
 184 318 184 318 196 292 c 0,49,50
 200 282 200 282 210 264 c 128,-1,51
 220 246 220 246 224 238 c 128,-1,52
 228 230 228 230 236 211 c 128,-1,53
 244 192 244 192 255 174 c 0,54,55
 286 126 286 126 382 118 c 0,56,57
 398 116 398 116 432 115 c 128,-1,58
 466 114 466 114 481.5 113 c 128,-1,59
 497 112 497 112 530.5 106.5 c 128,-1,60
 564 101 564 101 584 105 c 0,61,62
 636 114 636 114 662 160 c 0,63,64
 670 176 670 176 673.5 182.5 c 128,-1,65
 677 189 677 189 685.5 212 c 128,-1,66
 694 235 694 235 707.5 271 c 128,-1,67
 721 307 721 307 724 383 c 1,68,69
 734 488 734 488 712 571 c 0,70,71
 704 600 704 600 659 600 c 0,37,38
EndSplineSet
Validated: 33
EndChar

StartChar: e
Encoding: 101 101 71
GlifName: e
Width: 921
Flags: W
LayerCount: 2
Fore
SplineSet
168 510 m 0,0,1
 226 502 226 502 322.5 477.5 c 128,-1,2
 419 453 419 453 491 453 c 0,3,4
 627 453 627 453 723 549 c 2,5,-1
 741 567 l 2,6,7
 770 600 770 600 770 628 c 0,8,9
 770 682 770 682 742 710 c 128,-1,10
 714 738 714 738 639.5 755 c 128,-1,11
 565 772 565 772 505 772 c 128,-1,12
 445 772 445 772 357 752 c 128,-1,13
 269 732 269 732 226.5 713 c 128,-1,14
 184 694 184 694 149 646 c 0,15,16
 95 573 95 573 95 488 c 0,17,18
 95 463 95 463 104 405 c 0,19,20
 125 269 125 269 228 188 c 0,21,22
 310 120 310 120 377.5 98 c 128,-1,23
 445 76 445 76 504.5 76 c 128,-1,24
 564 76 564 76 598 85 c 0,25,26
 647 98 647 98 725 140 c 0,27,28
 836 199 836 199 858.5 199 c 128,-1,29
 881 199 881 199 896 184 c 128,-1,30
 911 169 911 169 911 140 c 128,-1,31
 911 111 911 111 875 98 c 128,-1,32
 839 85 839 85 780 53.5 c 0,33,34
 722 22 722 22 696 10 c 0,35,36
 617 -27 617 -27 523.5 -27 c 128,-1,37
 430 -27 430 -27 346 1 c 128,-1,38
 262 29 262 29 165 107 c 0,39,40
 31 209 31 209 1 397 c 0,41,42
 -8 454 -8 454 -8 496 c 0,43,44
 -8 638 -8 638 102 749 c 0,45,46
 151 798 151 798 203 816 c 0,47,48
 376 874 376 874 476.5 874 c 128,-1,49
 577 874 577 874 670.5 853 c 128,-1,50
 764 832 764 832 818.5 777.5 c 128,-1,51
 873 723 873 723 873 635 c 0,52,53
 872 561 872 561 808 490 c 0,54,55
 681 350 681 350 477 350 c 0,56,57
 403 350 403 350 299 376.5 c 0,58,59
 195 402 195 402 169 406 c 0,60,61
 117 413 117 413 117 459 c 0,62,63
 117 480 117 480 132 495 c 128,-1,64
 147 510 147 510 168 510 c 0,0,1
EndSplineSet
Validated: 1
EndChar

StartChar: f
Encoding: 102 102 72
GlifName: f
Width: 765
Flags: W
LayerCount: 2
Fore
SplineSet
275 301 m 1,0,-1
 291 300 l 2,1,2
 315 300 315 300 344 317 c 1,3,4
 334 347 334 347 316 409 c 0,5,6
 277 539 277 539 260 577 c 128,-1,7
 243 615 243 615 243 628 c 2,8,-1
 228 813 l 1,9,10
 228 942 228 942 297 1011 c 0,11,12
 344 1058 344 1058 410 1058 c 128,-1,13
 476 1058 476 1058 522 1012 c 0,14,15
 597 937 597 937 597 888 c 0,16,17
 597 863 597 863 579 845 c 0,18,19
 562 827 562 827 540 827 c 0,20,21
 497 828 497 828 483 858 c 0,22,23
 449 932 449 932 407 935 c 0,24,25
 376 935 376 935 363.5 891.5 c 128,-1,26
 351 848 351 848 351 822.5 c 128,-1,27
 351 797 351 797 358 740.5 c 128,-1,28
 365 684 365 684 366 641 c 1,29,30
 390 584 390 584 450 389 c 1,31,32
 452 390 452 390 460 395 c 0,33,34
 504 424 504 424 565 424 c 2,35,-1
 585 424 l 2,36,37
 592 424 592 424 606 420 c 2,38,-1
 675 396 l 2,39,40
 692 390 692 390 703.5 373.5 c 128,-1,41
 715 357 715 357 715 334.5 c 128,-1,42
 715 312 715 312 697 294 c 128,-1,43
 679 276 679 276 663 276 c 128,-1,44
 647 276 647 276 633 280 c 2,45,-1
 574 301 l 1,46,-1
 565 301 l 2,47,48
 538 301 538 301 492 269 c 1,49,50
 559 89 559 89 559 -24.5 c 128,-1,51
 559 -138 559 -138 526.5 -208 c 128,-1,52
 494 -278 494 -278 418 -358 c 0,53,54
 399 -377 399 -377 375 -377 c 2,55,-1
 159 -382 l 1,56,-1
 157 -382 l 2,57,58
 132 -382 132 -382 114 -364 c 128,-1,59
 96 -346 96 -346 96 -320.5 c 128,-1,60
 96 -295 96 -295 114 -277 c 128,-1,61
 132 -259 132 -259 156 -259 c 2,62,-1
 346 -255 l 1,63,64
 393 -203 393 -203 414.5 -157.5 c 128,-1,65
 436 -112 436 -112 436 -25 c 128,-1,66
 436 62 436 62 387 199 c 1,67,68
 341 177 341 177 311 177 c 0,69,70
 285 177 285 177 254.5 177 c 0,71,72
 224 176 224 176 190 190 c 0,73,74
 146 208 146 208 115 234.5 c 128,-1,75
 84 261 84 261 73 269 c 1,76,77
 37 367 37 367 45 376 c 0,78,79
 63 394 63 394 85 394 c 128,-1,80
 107 394 107 394 120.5 386 c 128,-1,81
 134 378 134 378 170.5 348 c 128,-1,82
 207 318 207 318 222.5 309 c 128,-1,83
 238 300 238 300 256 300 c 2,84,-1
 275 301 l 1,0,-1
73 269 m 1,85,-1
 86 229 l 2,86,87
 86 222 86 222 72.5 238.5 c 128,-1,88
 59 255 59 255 54 276 c 0,89,90
 52 283 52 283 57 280 c 0,91,92
 63 277 63 277 73 269 c 1,85,-1
EndSplineSet
Validated: 37
EndChar

StartChar: g
Encoding: 103 103 73
GlifName: g
Width: 692
Flags: W
LayerCount: 2
Fore
SplineSet
358 -303 m 1,0,-1
 389 -301 l 1,1,-1
 416 -304 l 2,2,3
 436 -304 436 -304 454 -286 c 128,-1,4
 472 -268 472 -268 507 -192 c 0,5,6
 508 -187 508 -187 510 -175 c 2,7,-1
 522 -115 l 2,8,9
 522 -111 522 -111 528 -86 c 128,-1,10
 534 -61 534 -61 534 -22.5 c 128,-1,11
 534 16 534 16 531 139 c 1,12,-1
 499 342 l 1,13,-1
 476 427 l 1,14,-1
 442 489 l 1,15,-1
 388 515 l 1,16,-1
 264 522 l 1,17,-1
 189 513 l 1,18,19
 180 500 180 500 166 481.5 c 128,-1,20
 152 463 152 463 147 446.5 c 128,-1,21
 142 430 142 430 141 388 c 2,22,-1
 141 357 l 2,23,24
 141 252 141 252 161 210 c 0,25,26
 163 208 163 208 182 172 c 1,27,28
 189 168 189 168 207 158 c 128,-1,29
 225 148 225 148 236.5 140 c 128,-1,30
 248 132 248 132 254 132 c 2,31,-1
 260 133 l 2,32,33
 277 133 277 133 291.5 147.5 c 128,-1,34
 306 162 306 162 310.5 177 c 128,-1,35
 315 192 315 192 328.5 203.5 c 128,-1,36
 342 215 342 215 362 215 c 128,-1,37
 382 215 382 215 397 200 c 128,-1,38
 412 185 412 185 412 172 c 0,39,40
 412 123 412 123 365.5 76.5 c 128,-1,41
 319 30 319 30 266.5 30 c 128,-1,42
 214 30 214 30 172 60 c 0,43,44
 165 65 165 65 149 73 c 0,45,46
 77 109 77 109 65 174 c 1,47,48
 38 239 38 239 38 339.5 c 128,-1,49
 38 440 38 440 48 474.5 c 128,-1,50
 58 509 58 509 75.5 532.5 c 128,-1,51
 93 556 93 556 98 562 c 0,52,53
 113 582 113 582 121.5 595.5 c 128,-1,54
 130 609 130 609 154 612 c 2,55,-1
 256 624 l 1,56,-1
 262 625 l 1,57,-1
 265 625 l 1,58,-1
 404 616 l 2,59,60
 415 616 415 616 423 612 c 2,61,-1
 501 575 l 2,62,63
 515 569 515 569 524 553 c 2,64,-1
 569 471 l 2,65,66
 573 463 573 463 574 459 c 2,67,-1
 598 365 l 1,68,-1
 633 145 l 1,69,-1
 637 11 l 2,70,71
 637 -65 637 -65 630.5 -96.5 c 128,-1,72
 624 -128 624 -128 612 -178 c 1,73,-1
 608 -206 l 2,74,75
 608 -214 608 -214 584 -270 c 0,76,77
 524 -408 524 -408 416 -407 c 0,78,79
 402 -407 402 -407 390 -406 c 128,-1,80
 378 -405 378 -405 360 -405 c 0,81,82
 207 -405 207 -405 108 -244 c 0,83,84
 63 -173 63 -173 63 -153.5 c 128,-1,85
 63 -134 63 -134 78 -119 c 128,-1,86
 93 -104 93 -104 118 -104 c 128,-1,87
 143 -104 143 -104 153 -120 c 128,-1,88
 163 -136 163 -136 175 -156.5 c 128,-1,89
 187 -177 187 -177 195 -190 c 0,90,91
 264 -303 264 -303 358 -303 c 1,0,-1
EndSplineSet
Validated: 33
EndChar

StartChar: h
Encoding: 104 104 74
GlifName: h
Width: 819
Flags: W
LayerCount: 2
Fore
SplineSet
262 1339 m 0,0,1
 262 1213 262 1213 271 1051 c 1,2,-1
 266 976 l 1,3,-1
 266 963 l 2,4,5
 266 935 266 935 255 912 c 128,-1,6
 244 889 244 889 242 884 c 0,7,8
 242 864 242 864 236 840 c 128,-1,9
 230 816 230 816 224 765 c 128,-1,10
 218 714 218 714 182 497 c 1,11,12
 185 500 185 500 190 510 c 0,13,14
 224 591 224 591 327 644 c 0,15,16
 336 649 336 649 350 649 c 2,17,-1
 379 650 l 1,18,19
 499 650 499 650 601 577 c 1,20,21
 649 556 649 556 690 515 c 0,22,23
 793 412 793 412 793 267 c 1,24,-1
 788 172 l 2,25,26
 788 110 788 110 773 76 c 1,27,-1
 766 48 l 2,28,29
 765 41 765 41 763.5 33 c 128,-1,30
 762 25 762 25 762 20.5 c 128,-1,31
 762 16 762 16 750 -9.5 c 128,-1,32
 738 -35 738 -35 711.5 -35 c 128,-1,33
 685 -35 685 -35 670 -20 c 128,-1,34
 655 -5 655 -5 655 16 c 1,35,-1
 664 54 l 1,36,37
 664 80 664 80 674 102 c 0,38,39
 686 132 686 132 686 184 c 2,40,-1
 691 266 l 1,41,42
 691 336 691 336 652.5 398.5 c 128,-1,43
 614 461 614 461 556 485 c 0,44,45
 553 486 553 486 545 491 c 0,46,47
 479 539 479 539 380 548 c 1,48,-1
 364 547 l 1,49,50
 299 510 299 510 283 469 c 0,51,52
 281 463 281 463 280 461 c 0,53,54
 180 292 180 292 157 115 c 1,55,56
 168 84 168 84 168 51 c 2,57,-1
 169 30 l 2,58,59
 169 -3 169 -3 153 -19 c 128,-1,60
 137 -35 137 -35 114 -35 c 0,61,62
 52 -35 52 -35 52 95 c 2,63,-1
 52 104 l 1,64,65
 39 141 39 141 39 159.5 c 128,-1,66
 39 178 39 178 39.5 190 c 128,-1,67
 40 202 40 202 40 219 c 0,68,69
 40 305 40 305 78 457 c 1,70,-1
 78 500 l 1,71,72
 119 754 119 754 123.5 791 c 128,-1,73
 128 828 128 828 130 834 c 0,74,75
 134 854 134 854 136.5 863.5 c 128,-1,76
 139 873 139 873 139 892.5 c 128,-1,77
 139 912 139 912 164 962 c 1,78,-1
 163 977 l 1,79,-1
 168 1051 l 1,80,-1
 168 1061 l 1,81,82
 160 1165 160 1165 160 1339 c 1,83,84
 155 1357 155 1357 129.5 1397 c 128,-1,85
 104 1437 104 1437 98.5 1445.5 c 128,-1,86
 93 1454 93 1454 81.5 1463.5 c 128,-1,87
 70 1473 70 1473 59.5 1483.5 c 128,-1,88
 49 1494 49 1494 49 1515.5 c 128,-1,89
 49 1537 49 1537 64 1552 c 128,-1,90
 79 1567 79 1567 99.5 1567 c 128,-1,91
 120 1567 120 1567 134 1554 c 2,92,-1
 171 1521 l 2,93,94
 177 1516 177 1516 182 1507 c 128,-1,95
 187 1498 187 1498 207 1468 c 0,96,97
 262 1385 262 1385 262 1339 c 0,0,1
EndSplineSet
Validated: 1
EndChar

StartChar: i
Encoding: 105 105 75
GlifName: i
Width: 405
Flags: W
LayerCount: 2
Fore
SplineSet
121 1049 m 2,0,-1
 121 1069 l 2,1,2
 121 1083 121 1083 129 1110 c 1,3,4
 129 1134 129 1134 146.5 1149.5 c 128,-1,5
 164 1165 164 1165 189 1165 c 0,6,7
 251 1165 251 1165 275 1095 c 0,8,9
 285 1068 285 1068 285 1042 c 0,10,11
 284 1016 284 1016 268 1000 c 0,12,13
 248 980 248 980 221 980 c 2,14,-1
 201 981 l 2,15,16
 167 981 167 981 154 994 c 128,-1,17
 141 1007 141 1007 140 1009 c 0,18,19
 121 1023 121 1023 121 1049 c 2,0,-1
224 423 m 1,20,-1
 223 461 l 1,21,-1
 223 505 l 1,22,-1
 219 561 l 2,23,24
 219 581 219 581 214.5 597 c 128,-1,25
 210 613 210 613 201 647 c 0,26,27
 185 708 185 708 171.5 729 c 128,-1,28
 158 750 158 750 158 766 c 2,29,-1
 158 774 l 2,30,31
 158 795 158 795 173 810 c 128,-1,32
 188 825 188 825 208 825 c 128,-1,33
 228 825 228 825 242 812.5 c 128,-1,34
 256 800 256 800 259 782 c 1,35,36
 284 742 284 742 295.5 695 c 128,-1,37
 307 648 307 648 313 627 c 128,-1,38
 319 606 319 606 321 568 c 0,39,40
 326 547 326 547 326 517 c 2,41,-1
 325 460 l 1,42,-1
 326 422 l 1,43,-1
 317 274 l 2,44,45
 317 209 317 209 308.5 183.5 c 128,-1,46
 300 158 300 158 289 114 c 1,47,48
 288 83 288 83 278 66 c 128,-1,49
 268 49 268 49 264.5 42 c 128,-1,50
 261 35 261 35 258 31 c 2,51,-1
 246 14 l 2,52,53
 231 -6 231 -6 207.5 -6 c 128,-1,54
 184 -6 184 -6 169 9 c 128,-1,55
 154 24 154 24 154 44.5 c 128,-1,56
 154 65 154 65 163.5 77.5 c 128,-1,57
 173 90 173 90 177 97 c 0,58,59
 186 113 186 113 186 117 c 2,60,-1
 186 119 l 2,61,62
 186 137 186 137 199.5 178 c 128,-1,63
 213 219 213 219 215 275 c 2,64,-1
 224 423 l 1,20,-1
EndSplineSet
Validated: 1
EndChar

StartChar: j
Encoding: 106 106 76
GlifName: j
Width: 692
Flags: W
LayerCount: 2
Fore
SplineSet
109 -399 m 2,0,1
 87 -399 87 -399 72 -384 c 128,-1,2
 57 -369 57 -369 57 -348 c 128,-1,3
 57 -327 57 -327 71 -313 c 128,-1,4
 85 -299 85 -299 106 -297 c 2,5,-1
 193 -293 l 1,6,7
 261 -266 261 -266 276.5 -250.5 c 128,-1,8
 292 -235 292 -235 298 -198.5 c 128,-1,9
 304 -162 304 -162 314 -137.5 c 128,-1,10
 324 -113 324 -113 332 -80.5 c 128,-1,11
 340 -48 340 -48 348 -30 c 1,12,-1
 348 216 l 1,13,-1
 160 897 l 1,14,-1
 160 899 l 2,15,16
 160 920 160 920 175 935 c 128,-1,17
 190 950 190 950 211 950 c 128,-1,18
 232 950 232 950 246 936 c 128,-1,19
 260 922 260 922 262 902 c 2,20,-1
 450 220 l 2,21,22
 451 218 451 218 451 217 c 2,23,-1
 451 -41 l 2,24,25
 451 -50 451 -50 446 -61.5 c 128,-1,26
 441 -73 441 -73 431.5 -109 c 128,-1,27
 422 -145 422 -145 414 -164 c 128,-1,28
 406 -183 406 -183 405 -186 c 2,29,-1
 405 -193 l 1,30,31
 381 -328 381 -328 291 -363 c 0,32,33
 251 -379 251 -379 235.5 -387 c 128,-1,34
 220 -395 220 -395 209 -395 c 2,35,-1
 111 -399 l 1,36,-1
 109 -399 l 2,0,1
111 1217 m 1,37,-1
 172 1224 l 1,38,-1
 208 1175 l 1,39,-1
 184 1118 l 1,40,-1
 123 1111 l 1,41,-1
 86 1160 l 1,42,-1
 111 1217 l 1,37,-1
EndSplineSet
Validated: 1
EndChar

StartChar: k
Encoding: 107 107 77
GlifName: k
Width: 800
Flags: W
LayerCount: 2
Fore
SplineSet
166 12 m 0,0,1
 112 12 112 12 112 84 c 0,2,3
 112 89 112 89 98 106.5 c 128,-1,4
 84 124 84 124 85 136.5 c 128,-1,5
 86 149 86 149 100.5 178 c 128,-1,6
 115 207 115 207 114 291 c 128,-1,7
 113 375 113 375 163 522 c 128,-1,8
 213 669 213 669 294 808 c 1,9,-1
 294 821 l 2,10,11
 294 991 294 991 232 1128 c 0,12,13
 212 1173 212 1173 150 1291 c 0,14,15
 58 1469 58 1469 58.5 1497.5 c 128,-1,16
 59 1526 59 1526 74 1541 c 128,-1,17
 89 1556 89 1556 118 1556 c 128,-1,18
 147 1556 147 1556 159 1523 c 0,19,20
 190 1438 190 1438 244 1332.5 c 128,-1,21
 298 1227 298 1227 316 1187 c 0,22,23
 372 1066 372 1066 389 942 c 1,24,25
 499 1040 499 1040 727 1104 c 1,26,27
 740 1114 740 1114 758 1114 c 2,28,-1
 774 1114 l 2,29,30
 795 1114 795 1114 810 1099 c 128,-1,31
 825 1084 825 1084 825 1064 c 0,32,33
 825 1022 825 1022 785 1013 c 0,34,35
 714 996 714 996 608 954 c 0,36,37
 461 895 461 895 410 809 c 1,38,39
 428 738 428 738 445 638 c 0,40,41
 503 295 503 295 617 203 c 0,42,43
 633 190 633 190 681.5 154 c 128,-1,44
 730 118 730 118 757 91 c 128,-1,45
 784 64 784 64 784 43 c 128,-1,46
 784 22 784 22 769 7 c 128,-1,47
 754 -8 754 -8 732.5 -8 c 128,-1,48
 711 -8 711 -8 690 12.5 c 128,-1,49
 669 33 669 33 611 77 c 128,-1,50
 553 121 553 121 516 158 c 128,-1,51
 479 195 479 195 448 258.5 c 128,-1,52
 417 322 417 322 371 454 c 128,-1,53
 325 586 325 586 313 647 c 1,54,55
 308 592 308 592 287 540 c 0,56,57
 224 386 224 386 224 188 c 0,58,59
 224 108 224 108 212 60 c 128,-1,60
 200 12 200 12 166 12 c 0,0,1
EndSplineSet
Validated: 33
EndChar

StartChar: l
Encoding: 108 108 78
GlifName: l
Width: 471
Flags: W
LayerCount: 2
Fore
SplineSet
262 825 m 2,0,-1
 263 849 l 1,1,2
 263 947 263 947 246 1010.5 c 0,3,4
 228 1074 228 1074 202 1162 c 0,5,6
 160 1302 160 1302 160 1331.5 c 128,-1,7
 160 1361 160 1361 175 1376 c 128,-1,8
 190 1391 190 1391 209.5 1391 c 128,-1,9
 229 1391 229 1391 243.5 1379 c 128,-1,10
 258 1367 258 1367 265.5 1326.5 c 128,-1,11
 273 1286 273 1286 300.5 1193 c 128,-1,12
 328 1100 328 1100 337 1065 c 0,13,14
 365 956 365 956 365 848 c 2,15,-1
 365 822 l 2,16,17
 361 641 361 641 337 531 c 128,-1,18
 313 421 313 421 281 284.5 c 128,-1,19
 249 148 249 148 229 32 c 0,20,21
 226 15 226 15 211.5 2.5 c 128,-1,22
 197 -10 197 -10 177 -10 c 128,-1,23
 157 -10 157 -10 142 5 c 128,-1,24
 127 20 127 20 127 34 c 0,25,26
 127 71 127 71 169.5 254 c 0,27,28
 212 436 212 436 224 492 c 0,29,30
 258 660 258 660 262 825 c 2,0,-1
EndSplineSet
Validated: 1
EndChar

StartChar: m
Encoding: 109 109 79
GlifName: m
Width: 1191
Flags: W
LayerCount: 2
Fore
SplineSet
593 510 m 1,0,-1
 598 576 l 2,1,2
 598 589 598 589 578 612 c 0,3,4
 543 653 543 653 504 653 c 1,5,-1
 483 650 l 2,6,7
 450 643 450 643 429.5 622.5 c 128,-1,8
 409 602 409 602 372 520.5 c 128,-1,9
 335 439 335 439 299 311 c 1,10,11
 284 191 284 191 228 46 c 0,12,13
 212 -2 212 -2 174 -2 c 0,14,15
 152 -2 152 -2 137 14 c 128,-1,16
 122 30 122 30 122 51 c 0,17,18
 123 62 123 62 130.5 85.5 c 128,-1,19
 138 109 138 109 199 334 c 1,20,21
 204 374 204 374 204 401 c 128,-1,22
 204 428 204 428 199.5 482 c 128,-1,23
 195 536 195 536 188 563 c 128,-1,24
 181 590 181 590 158 620 c 0,25,26
 150 630 150 630 134 630 c 0,27,28
 95 630 95 630 68.5 603.5 c 128,-1,29
 42 577 42 577 29 568 c 128,-1,30
 16 559 16 559 -2.5 559 c 128,-1,31
 -21 559 -21 559 -36 574 c 128,-1,32
 -51 589 -51 589 -51 613 c 128,-1,33
 -51 637 -51 637 -29 652 c 0,34,35
 -26 654 -26 654 6 686 c 0,36,37
 52 732 52 732 122 732 c 0,38,39
 252 732 252 732 288 584 c 1,40,41
 323 660 323 660 362 699 c 0,42,43
 418 755 418 755 487 755 c 128,-1,44
 556 755 556 755 594.5 730 c 128,-1,45
 633 705 633 705 668 664 c 0,46,47
 677 653 677 653 677 612.5 c 128,-1,48
 677 572 677 572 672 529.5 c 128,-1,49
 667 487 667 487 662 445.5 c 128,-1,50
 657 404 657 404 657 397 c 1,51,-1
 699 549 l 1,52,53
 745 637 745 637 803 673 c 128,-1,54
 861 709 861 709 880.5 717.5 c 128,-1,55
 900 726 900 726 932.5 726 c 128,-1,56
 965 726 965 726 995 693 c 0,57,58
 1063 617 1063 617 1096.5 544 c 128,-1,59
 1130 471 1130 471 1135 363 c 1,60,-1
 1135 337 l 2,61,62
 1135 258 1135 258 1117 206 c 128,-1,63
 1099 154 1099 154 1076 97 c 128,-1,64
 1053 40 1053 40 1044 6 c 0,65,66
 1029 -50 1029 -50 989 -51 c 0,67,68
 968 -51 968 -51 953 -36 c 128,-1,69
 938 -21 938 -21 938 -8 c 0,70,71
 938 29 938 29 971 110.5 c 128,-1,72
 1004 192 1004 192 1012 213 c 0,73,74
 1034 273 1034 273 1033.5 348.5 c 128,-1,75
 1033 424 1033 424 1009 486.5 c 128,-1,76
 985 549 985 549 920 623 c 1,77,78
 915 622 915 622 880 600.5 c 128,-1,79
 845 579 845 579 830.5 564.5 c 128,-1,80
 816 550 816 550 798.5 518.5 c 128,-1,81
 781 487 781 487 774 431 c 128,-1,82
 767 375 767 375 760.5 345 c 0,83,84
 754 314 754 314 730 290 c 0,85,86
 688 248 688 248 651 249 c 0,87,88
 590 249 590 249 575 303 c 0,89,90
 572 318 572 318 572 329 c 2,91,-1
 594 486 l 1,92,-1
 593 510 l 1,0,-1
EndSplineSet
Validated: 33
EndChar

StartChar: n
Encoding: 110 110 80
GlifName: n
Width: 884
Flags: W
LayerCount: 2
Fore
SplineSet
649 399 m 2,0,-1
 653 488 l 2,1,2
 653 541 653 541 625.5 574.5 c 128,-1,3
 598 608 598 608 586 620 c 0,4,5
 525 681 525 681 465 681 c 0,6,7
 390 681 390 681 341 632 c 0,8,9
 339 630 339 630 326.5 618 c 128,-1,10
 314 606 314 606 308.5 600 c 128,-1,11
 303 594 303 594 294 582 c 0,12,13
 277 559 277 559 277 543 c 0,14,15
 277 511 277 511 248 465 c 0,16,17
 184 371 184 371 143 274.5 c 128,-1,18
 102 178 102 178 120.5 132 c 128,-1,19
 139 86 139 86 156.5 66 c 128,-1,20
 174 46 174 46 184 48 c 0,21,22
 207 52 207 52 209 35 c 0,23,24
 210 29 210 29 207.5 29 c 0,25,26
 205 30 205 30 201 32 c 0,27,28
 191 39 191 39 187 31 c 0,29,30
 175 3 175 3 138 3 c 128,-1,31
 101 3 101 3 89.5 14.5 c 128,-1,32
 78 26 78 26 71.5 25.5 c 128,-1,33
 65 25 65 25 65 29 c 0,34,35
 62 39 62 39 57.5 62.5 c 128,-1,36
 53 86 53 86 50.5 94 c 128,-1,37
 48 102 48 102 38.5 135.5 c 128,-1,38
 29 169 29 169 27 219 c 128,-1,39
 25 269 25 269 34.5 303 c 128,-1,40
 44 337 44 337 62 370.5 c 128,-1,41
 80 404 80 404 99 428 c 0,42,43
 153 498 153 498 175 554 c 0,44,45
 176 567 176 567 176.5 570.5 c 128,-1,46
 177 574 177 574 172.5 586.5 c 128,-1,47
 168 599 168 599 161.5 623.5 c 128,-1,48
 155 648 155 648 131 680.5 c 128,-1,49
 107 713 107 713 106.5 725 c 128,-1,50
 106 737 106 737 101.5 740.5 c 128,-1,51
 97 744 97 744 79 744 c 128,-1,52
 61 744 61 744 58 743 c 128,-1,53
 55 742 55 742 30 717 c 0,54,55
 -13 674 -13 674 -35.5 674 c 128,-1,56
 -58 674 -58 674 -73 689 c 128,-1,57
 -88 704 -88 704 -88 728 c 128,-1,58
 -88 752 -88 752 -73.5 762 c 128,-1,59
 -59 772 -59 772 -22.5 808.5 c 128,-1,60
 14 845 14 845 62 846 c 2,61,-1
 74 846 l 2,62,63
 113 846 113 846 127 835 c 128,-1,64
 141 824 141 824 154.5 809.5 c 0,65,66
 168 796 168 796 180 784 c 0,67,68
 219 745 219 745 248 681 c 1,69,70
 332 784 332 784 449.5 784 c 128,-1,71
 567 784 567 784 659 692 c 0,72,73
 680 671 680 671 703 643 c 0,74,75
 755 579 755 579 755 483 c 2,76,-1
 752 396 l 2,77,78
 749 285 749 285 725 176.5 c 128,-1,79
 701 68 701 68 696 38 c 0,80,81
 687 -18 687 -18 643 -18 c 0,82,83
 622 -18 622 -18 607 -3 c 128,-1,84
 592 12 592 12 592 33 c 0,85,86
 596 68 596 68 613 144 c 0,87,88
 646 300 646 300 649 399 c 2,0,-1
EndSplineSet
Validated: 33
EndChar

StartChar: o
Encoding: 111 111 81
GlifName: o
Width: 716
Flags: W
LayerCount: 2
Fore
SplineSet
68 474 m 1,0,-1
 79 523 l 2,1,2
 86 568 86 568 108 594 c 128,-1,3
 130 620 130 620 145 635.5 c 128,-1,4
 160 651 160 651 184 651 c 2,5,-1
 188 651 l 2,6,7
 210 651 210 651 225 636 c 0,8,9
 240 620 240 620 240 602 c 0,10,11
 240 563 240 563 205 552 c 1,12,13
 183 526 183 526 179 503 c 2,14,-1
 169 461 l 1,15,-1
 164 407 l 1,16,-1
 166 261 l 2,17,18
 170 251 170 251 170 238 c 2,19,-1
 170 236 l 2,20,21
 174 231 174 231 180 222 c 0,22,23
 195 202 195 202 199 181 c 0,24,25
 205 169 205 169 235 136 c 1,26,-1
 266 122 l 1,27,-1
 315 108 l 1,28,-1
 392 98 l 1,29,-1
 496 100 l 2,30,31
 513 104 513 104 540 128 c 1,32,-1
 553 155 l 1,33,34
 559 186 559 186 565 252 c 1,35,-1
 561 356 l 1,36,37
 549 418 549 418 542 448 c 2,38,-1
 527 504 l 1,39,-1
 510 549 l 1,40,41
 481 606 481 606 476.5 612 c 128,-1,42
 472 618 472 618 467 626.5 c 128,-1,43
 462 635 462 635 447.5 642.5 c 128,-1,44
 433 650 433 650 417.5 659.5 c 128,-1,45
 402 669 402 669 397.5 671.5 c 128,-1,46
 393 674 393 674 385 678.5 c 128,-1,47
 377 683 377 683 373 685 c 2,48,-1
 329 703 l 1,49,-1
 290 714 l 1,50,-1
 245 721 l 1,51,-1
 153 725 l 1,52,53
 137 719 137 719 121.5 719 c 128,-1,54
 106 719 106 719 91 734 c 0,55,56
 76 750 76 750 76 768 c 0,57,58
 76 807 76 807 111 819 c 0,59,60
 138 827 138 827 145 827 c 2,61,-1
 154 827 l 1,62,-1
 252 823 l 1,63,-1
 258 823 l 1,64,-1
 309 814 l 1,65,-1
 360 801 l 2,66,67
 361 800 361 800 363 800 c 128,-1,68
 365 800 365 800 366 799 c 2,69,-1
 415 778 l 2,70,71
 442 766 442 766 464 752 c 128,-1,72
 486 738 486 738 491 735 c 0,73,74
 533 713 533 713 556 677 c 0,75,76
 568 661 568 661 578 641 c 2,77,-1
 603 592 l 2,78,79
 604 591 604 591 604 589.5 c 128,-1,80
 604 588 604 588 605 587 c 2,81,-1
 623 538 l 2,82,83
 625 536 625 536 631.5 511.5 c 128,-1,84
 638 487 638 487 642 472 c 2,85,-1
 663 373 l 2,86,87
 664 370 664 370 664 364 c 2,88,-1
 668 252 l 1,89,-1
 668 250 l 2,90,91
 666 241 666 241 665 227 c 0,92,93
 663 203 663 203 661 182 c 2,94,-1
 653 131 l 2,95,96
 652 124 652 124 648 117 c 2,97,-1
 628 74 l 2,98,99
 622 63 622 63 599 43 c 0,100,101
 547 -2 547 -2 503 -2 c 2,102,-1
 389 -4 l 1,103,-1
 383 -4 l 1,104,-1
 299 7 l 2,105,106
 294 7 294 7 291 8 c 2,107,-1
 234 25 l 2,108,109
 228 28 228 28 226 28 c 2,110,-1
 183 48 l 2,111,112
 174 52 174 52 161 66 c 2,113,-1
 140 88 l 2,114,115
 108 123 108 123 100 155 c 0,116,117
 97 160 97 160 90 170 c 0,118,119
 68 203 68 203 68 227 c 2,120,-1
 68 230 l 1,121,122
 64 242 64 242 64 249 c 2,123,-1
 61 410 l 1,124,-1
 62 415 l 1,125,-1
 68 474 l 1,0,-1
EndSplineSet
Validated: 1
EndChar

StartChar: p
Encoding: 112 112 82
GlifName: p
Width: 942
Flags: W
LayerCount: 2
Fore
SplineSet
345 189 m 2,0,1
 255 189 255 189 173 210 c 1,2,3
 212 -40 212 -40 318 -210 c 0,4,5
 346 -256 346 -256 379.5 -305 c 128,-1,6
 413 -354 413 -354 416.5 -354 c 128,-1,7
 420 -354 420 -354 419 -343 c 128,-1,8
 418 -332 418 -332 420 -333 c 0,9,10
 424 -334 424 -334 436.5 -357.5 c 128,-1,11
 449 -381 449 -381 449 -397 c 128,-1,12
 449 -413 449 -413 434 -428 c 128,-1,13
 419 -443 419 -443 392.5 -443 c 128,-1,14
 366 -443 366 -443 350.5 -414 c 128,-1,15
 335 -385 335 -385 333 -385.5 c 128,-1,16
 331 -386 331 -386 332.5 -395 c 128,-1,17
 334 -404 334 -404 334 -406 c 0,18,19
 335 -420 335 -420 315 -391 c 0,20,21
 258 -307 258 -307 230 -262 c 128,-1,22
 202 -217 202 -217 163.5 -132.5 c 128,-1,23
 125 -48 125 -48 90.5 93.5 c 128,-1,24
 56 235 56 235 56 395.5 c 128,-1,25
 56 556 56 556 126 762 c 0,26,27
 160 860 160 860 277 890 c 0,28,29
 343 906 343 906 462 907 c 0,30,31
 617 907 617 907 711 813 c 0,32,33
 841 683 841 683 841 535 c 0,34,35
 842 385 842 385 722 297 c 0,36,37
 712 290 712 290 697.5 280.5 c 128,-1,38
 683 271 683 271 675 266.5 c 128,-1,39
 667 262 667 262 650 252 c 128,-1,40
 633 242 633 242 626 238 c 0,41,42
 555 196 555 196 440 193 c 2,43,-1
 345 189 l 2,0,1
238 296 m 0,44,45
 443 292 443 292 586 345 c 0,46,47
 614 355 614 355 631 372.5 c 128,-1,48
 648 390 648 390 668 421.5 c 128,-1,49
 688 453 688 453 703.5 471.5 c 128,-1,50
 719 490 719 490 714 503 c 0,51,52
 712 508 712 508 709.5 519.5 c 128,-1,53
 707 531 707 531 710 554.5 c 0,54,55
 712 578 712 578 700 604 c 0,56,57
 696 614 696 614 686.5 632.5 c 128,-1,58
 677 651 677 651 673.5 658 c 128,-1,59
 670 665 670 665 662.5 683 c 128,-1,60
 655 701 655 701 652 705.5 c 0,61,62
 650 710 650 710 642 722 c 0,63,64
 612 768 612 768 514 778 c 0,65,66
 499 780 499 780 464.5 781.5 c 128,-1,67
 430 783 430 783 415 784 c 128,-1,68
 400 785 400 785 366.5 790.5 c 0,69,70
 332 796 332 796 312 792 c 0,71,72
 260 784 260 784 236 738 c 0,73,74
 228 722 228 722 224 715 c 128,-1,75
 220 708 220 708 211.5 685 c 128,-1,76
 203 662 203 662 189 624.5 c 128,-1,77
 175 587 175 587 172 513 c 1,78,79
 162 408 162 408 184 325 c 0,80,81
 192 296 192 296 238 296 c 0,44,45
EndSplineSet
Validated: 33
EndChar

StartChar: q
Encoding: 113 113 83
GlifName: q
Width: 1052
Flags: W
LayerCount: 2
Fore
SplineSet
27 598 m 2,0,1
 26 603 26 603 26 613 c 0,2,3
 26 655 26 655 66 711 c 0,4,5
 70 716 70 716 70 718 c 0,6,7
 154 868 154 868 284 874 c 1,8,-1
 292 874 l 1,9,10
 429 858 429 858 494 788 c 0,11,12
 546 732 546 732 554 695 c 2,13,-1
 574 601 l 2,14,15
 574 600 574 600 575 598 c 2,16,-1
 592 495 l 1,17,-1
 608 253 l 1,18,-1
 608 252 l 1,19,-1
 616 10 l 1,20,-1
 647 -157 l 1,21,-1
 701 -280 l 1,22,-1
 740 -349 l 1,23,-1
 809 -358 l 1,24,-1
 894 -352 l 1,25,-1
 936 -307 l 1,26,-1
 945 -264 l 2,27,28
 949 -247 949 -247 963 -235 c 128,-1,29
 977 -223 977 -223 997 -223 c 128,-1,30
 1017 -223 1017 -223 1032 -238 c 128,-1,31
 1047 -253 1047 -253 1047 -265 c 128,-1,32
 1047 -277 1047 -277 1045 -285 c 2,33,-1
 1033 -343 l 2,34,35
 1030 -357 1030 -357 1020 -367 c 2,36,-1
 955 -436 l 2,37,38
 941 -450 941 -450 921 -452 c 2,39,-1
 811 -461 l 1,40,-1
 807 -461 l 1,41,-1
 800 -460 l 1,42,-1
 710 -448 l 2,43,44
 700 -446 700 -446 683 -435.5 c 128,-1,45
 666 -425 666 -425 660 -415 c 2,46,-1
 611 -329 l 2,47,48
 608 -326 608 -326 608 -324 c 2,49,-1
 551 -193 l 2,50,51
 550 -191 550 -191 548 -181 c 2,52,-1
 514 2 l 1,53,-1
 509 160 l 1,54,55
 482 141 482 141 423 135 c 128,-1,56
 364 129 364 129 358 129 c 0,57,58
 308 129 308 129 274 155 c 1,59,60
 137 202 137 202 63 391 c 0,61,62
 62 392 62 392 62 394.5 c 128,-1,63
 62 397 62 397 60 403 c 128,-1,64
 58 409 58 409 47.5 438 c 128,-1,65
 37 467 37 467 35 498 c 2,66,-1
 27 598 l 2,0,1
481 580 m 2,67,68
 470 595 470 595 447 625 c 0,69,70
 442 631 442 631 438 645 c 0,71,72
 407 736 407 736 279 717 c 0,73,74
 226 710 226 710 192 693.5 c 128,-1,75
 158 677 158 677 147 639 c 1,76,77
 111 581 111 581 119 504 c 1,78,79
 104 421 104 421 188 356 c 1,80,81
 238 309 238 309 336 307 c 1,82,83
 414 287 414 287 475.5 326.5 c 128,-1,84
 537 366 537 366 532 446 c 1,85,-1
 492 559 l 1,86,-1
 481 580 l 2,67,68
EndSplineSet
Validated: 33
EndChar

StartChar: r
Encoding: 114 114 84
GlifName: r
Width: 692
Flags: W
LayerCount: 2
Fore
SplineSet
544 495 m 1,0,-1
 546 537 l 2,1,2
 546 603 546 603 498.5 665 c 128,-1,3
 451 727 451 727 389 727 c 0,4,5
 378 727 378 727 366 724 c 1,6,7
 282 654 282 654 251 555 c 1,8,9
 262 518 262 518 262 483 c 1,10,-1
 270 424 l 1,11,-1
 266 109 l 2,12,13
 266 95 266 95 264 89 c 2,14,-1
 251 41 l 2,15,16
 246 22 246 22 232.5 9 c 128,-1,17
 219 -4 219 -4 200.5 -4 c 128,-1,18
 182 -4 182 -4 167 15.5 c 128,-1,19
 152 35 152 35 152 55.5 c 128,-1,20
 152 76 152 76 154 83 c 2,21,-1
 164 121 l 1,22,-1
 168 417 l 1,23,24
 160 462 160 462 160 482 c 1,25,26
 144 506 144 506 143 536 c 1,27,28
 115 604 115 604 112 642 c 1,29,30
 49 769 49 769 49 799.5 c 128,-1,31
 49 830 49 830 64 849.5 c 128,-1,32
 79 869 79 869 97 869 c 0,33,34
 135 869 135 869 147 829 c 0,35,36
 161 787 161 787 201 707 c 1,37,38
 249 788 249 788 320 843 c 0,39,40
 342 860 342 860 390 860 c 0,41,42
 495 860 495 860 571.5 760.5 c 128,-1,43
 648 661 648 661 648 538 c 2,44,-1
 647 497 l 1,45,-1
 648 432 l 2,46,47
 648 350 648 350 622 317 c 128,-1,48
 596 284 596 284 573 283 c 2,49,-1
 454 278 l 1,50,-1
 453 278 l 2,51,52
 431 278 431 278 416 297 c 128,-1,53
 401 316 401 316 401 344 c 128,-1,54
 401 372 401 372 416 390.5 c 128,-1,55
 431 409 431 409 451 411 c 2,56,-1
 545 415 l 1,57,-1
 546 432 l 1,58,-1
 544 495 l 1,0,-1
EndSplineSet
Validated: 1
EndChar

StartChar: s
Encoding: 115 115 85
GlifName: s
Width: 636
Flags: W
LayerCount: 2
Fore
SplineSet
62 180 m 0,0,1
 62 235 62 235 136 235 c 2,2,-1
 138 235 l 2,3,4
 176 234 176 234 187 200 c 0,5,6
 205 141 205 141 212 132 c 1,7,-1
 336 132 l 1,8,-1
 379 131 l 2,9,10
 388 131 388 131 412 140 c 0,11,12
 413 143 413 143 421 160 c 128,-1,13
 429 177 429 177 429 202 c 2,14,-1
 430 222 l 1,15,-1
 429 244 l 1,16,17
 400 269 400 269 387.5 281 c 128,-1,18
 375 293 375 293 347.5 303 c 128,-1,19
 320 313 320 313 260 350.5 c 128,-1,20
 200 388 200 388 187 403 c 128,-1,21
 174 418 174 418 166 424 c 0,22,23
 125 454 125 454 93 509 c 1,24,25
 72 555 72 555 72 588 c 128,-1,26
 72 621 72 621 71 633 c 2,27,-1
 71 649 l 2,28,29
 71 680 71 680 81 714 c 0,30,31
 96 765 96 765 98 769 c 0,32,33
 110 797 110 797 142 817 c 1,34,35
 178 853 178 853 250 858 c 1,36,-1
 309 858 l 1,37,38
 309 831 309 831 309.5 831 c 128,-1,39
 310 831 310 831 310 858 c 1,40,41
 326 858 326 858 362 856 c 2,42,-1
 366 856 l 2,43,44
 396 856 396 856 426 844 c 0,45,46
 487 820 487 820 508 787 c 0,47,48
 542 732 542 732 542 703.5 c 128,-1,49
 542 675 542 675 515 660 c 128,-1,50
 488 645 488 645 466 645 c 0,51,52
 427 645 427 645 399 717 c 1,53,54
 383 729 383 729 368 729 c 2,55,-1
 348 729 l 1,56,-1
 346 728 l 1,57,-1
 301 732 l 1,58,59
 257 730 257 730 226 722 c 0,60,61
 224 720 224 720 215 714 c 1,62,63
 208 680 208 680 205 672 c 2,64,-1
 200 652 l 1,65,-1
 205 589 l 2,66,67
 205 579 205 579 210 570.5 c 128,-1,68
 215 562 215 562 234 542 c 128,-1,69
 253 522 253 522 260.5 514 c 128,-1,70
 268 506 268 506 272 503 c 128,-1,71
 276 500 276 500 304.5 484 c 128,-1,72
 333 468 333 468 352.5 455.5 c 128,-1,73
 372 443 372 443 410 422 c 0,74,75
 542 349 542 349 556 265 c 1,76,-1
 560 198 l 1,77,-1
 560 197 l 2,78,79
 560 108 560 108 493 41 c 1,80,81
 440 3 440 3 365 3 c 2,82,-1
 364 3 l 1,83,-1
 303 6 l 1,84,-1
 283 5 l 1,85,-1
 264 5 l 1,86,-1
 238 6 l 1,87,-1
 216 5 l 2,88,89
 165 5 165 5 146 19.5 c 128,-1,90
 127 34 127 34 110.5 54.5 c 128,-1,91
 94 75 94 75 78 118.5 c 128,-1,92
 62 162 62 162 62 180 c 0,0,1
EndSplineSet
Validated: 1
EndChar

StartChar: t
Encoding: 116 116 86
GlifName: t
Width: 921
Flags: W
LayerCount: 2
Fore
SplineSet
371 1212 m 1,0,1
 356 1110 356 1110 355 1082 c 1,2,-1
 424 1071 l 1,3,-1
 527 1079 l 1,4,5
 638 1112 638 1112 658 1121 c 1,6,7
 674 1161 674 1161 702 1161 c 128,-1,8
 730 1161 730 1161 745 1146 c 128,-1,9
 760 1131 760 1131 760 1114.5 c 128,-1,10
 760 1098 760 1098 750 1074 c 0,11,12
 735 1041 735 1041 715 1034 c 2,13,-1
 654 1009 l 2,14,15
 652 1008 652 1008 649 1008 c 2,16,-1
 551 979 l 2,17,18
 543 977 543 977 540 977 c 2,19,-1
 426 969 l 1,20,-1
 414 969 l 1,21,-1
 350 979 l 1,22,-1
 350 703 l 2,23,24
 353 691 353 691 359 663 c 1,25,26
 383 636 383 636 383 573 c 0,27,28
 383 563 383 563 402 532 c 0,29,30
 435 479 435 479 440 427 c 1,31,32
 458 391 458 391 459.5 382 c 128,-1,33
 461 373 461 373 462 368.5 c 128,-1,34
 463 364 463 364 464 359 c 128,-1,35
 465 354 465 354 468.5 348.5 c 128,-1,36
 472 343 472 343 480 316 c 0,37,38
 496 266 496 266 590 166 c 1,39,40
 602 141 602 141 675 141 c 2,41,-1
 676 141 l 1,42,-1
 722 134 l 1,43,44
 753 134 753 134 775.5 149 c 128,-1,45
 798 164 798 164 800.5 186.5 c 128,-1,46
 803 209 803 209 818 222.5 c 128,-1,47
 833 236 833 236 853 236 c 128,-1,48
 873 236 873 236 888 221 c 128,-1,49
 903 206 903 206 903 184 c 2,50,-1
 903 179 l 1,51,52
 897 124 897 124 851 78 c 128,-1,53
 805 32 805 32 724 32 c 0,54,55
 694 32 694 32 669 39 c 1,56,57
 561 39 561 39 514 98 c 1,58,59
 410 208 410 208 380 295 c 1,60,61
 371 308 371 308 367 326 c 128,-1,62
 363 344 363 344 361.5 350 c 128,-1,63
 360 356 360 356 350 378 c 0,64,65
 334 410 334 410 334 442 c 1,66,67
 330 454 330 454 305.5 496 c 128,-1,68
 281 538 281 538 281 573 c 1,69,-1
 277 601 l 1,70,71
 264 618 264 618 258.5 642.5 c 128,-1,72
 253 667 253 667 250.5 673.5 c 128,-1,73
 248 680 248 680 248 692 c 2,74,-1
 248 997 l 1,75,76
 238 1001 238 1001 226.5 1006.5 c 128,-1,77
 215 1012 215 1012 186 1018 c 1,78,79
 117 1022 117 1022 70 1069 c 0,80,81
 27 1112 27 1112 27 1147 c 2,82,-1
 27 1155 l 2,83,84
 27 1176 27 1176 42 1191 c 128,-1,85
 57 1206 57 1206 78 1206 c 128,-1,86
 99 1206 99 1206 113 1192 c 128,-1,87
 127 1178 127 1178 129 1159 c 1,88,89
 150 1119 150 1119 206 1119 c 0,90,91
 218 1117 218 1117 254 1106 c 1,92,93
 255 1121 255 1121 268 1216 c 1,94,-1
 268 1233 l 2,95,96
 268 1267 268 1267 286.5 1307 c 128,-1,97
 305 1347 305 1347 305 1360 c 128,-1,98
 305 1373 305 1373 315 1386 c 1,99,100
 324 1440 324 1440 369 1440 c 0,101,102
 390 1440 390 1440 405 1425 c 128,-1,103
 420 1410 420 1410 420 1389 c 1,104,105
 411 1344 411 1344 406 1335 c 0,106,107
 403 1314 403 1314 387 1281 c 128,-1,108
 371 1248 371 1248 371 1233 c 2,109,-1
 371 1212 l 1,0,1
EndSplineSet
Validated: 1
EndChar

StartChar: u
Encoding: 117 117 87
GlifName: u
Width: 1062
Flags: W
LayerCount: 2
Fore
SplineSet
984 493 m 2,0,1
 984 485 984 485 982 447 c 2,2,-1
 982 446 l 2,3,4
 982 357 982 357 941 197 c 1,5,6
 929 171 929 171 922 163 c 128,-1,7
 915 155 915 155 901 137 c 0,8,9
 836 52 836 52 708 24 c 0,10,11
 672 16 672 16 578 16 c 2,12,-1
 573 16 l 2,13,14
 512 16 512 16 405 26 c 128,-1,15
 298 36 298 36 270 49 c 0,16,17
 215 72 215 72 161 152 c 1,18,19
 104 225 104 225 67 378 c 0,20,21
 66 382 66 382 60 406 c 0,22,23
 50 447 50 447 51 510 c 2,24,-1
 52 559 l 1,25,-1
 48 638 l 1,26,-1
 48 641 l 2,27,28
 48 708 48 708 73 764 c 1,29,30
 76 781 76 781 87 798 c 1,31,32
 96 824 96 824 131 863 c 1,33,-1
 143 863 l 2,34,35
 147 864 147 864 152 864 c 2,36,-1
 156 864 l 2,37,38
 174 864 174 864 192 850 c 0,39,40
 225 823 225 823 225 796 c 2,41,-1
 225 795 l 2,42,43
 225 768 225 768 207 754 c 0,44,45
 199 745 199 745 195 722.5 c 128,-1,46
 191 700 191 700 189.5 692 c 128,-1,47
 188 684 188 684 187 651 c 128,-1,48
 186 618 186 618 184 603 c 2,49,-1
 181 570 l 1,50,-1
 183 510 l 1,51,-1
 181 468 l 2,52,53
 182 460 182 460 186 448 c 2,54,-1
 200 398 l 2,55,56
 221 323 221 323 243 275.5 c 128,-1,57
 265 228 265 228 328 181 c 0,58,59
 339 173 339 173 353.5 169 c 128,-1,60
 368 165 368 165 450 163 c 2,61,-1
 451 163 l 2,62,63
 526 160 526 160 551.5 158.5 c 128,-1,64
 577 157 577 157 625 157 c 2,65,-1
 649 156 l 2,66,67
 658 156 658 156 671 159 c 128,-1,68
 684 162 684 162 706 167 c 0,69,70
 733 173 733 173 752.5 188.5 c 128,-1,71
 772 204 772 204 785 212.5 c 128,-1,72
 798 221 798 221 805 229 c 128,-1,73
 812 237 812 237 818 243 c 1,74,75
 821 268 821 268 831 310.5 c 128,-1,76
 841 353 841 353 843.5 382 c 128,-1,77
 846 411 846 411 848.5 425 c 128,-1,78
 851 439 851 439 852.5 456.5 c 128,-1,79
 854 474 854 474 855 478 c 2,80,-1
 855 522 l 2,81,82
 855 591 855 591 834.5 659.5 c 128,-1,83
 814 728 814 728 811 737.5 c 128,-1,84
 808 747 808 747 806.5 752.5 c 128,-1,85
 805 758 805 758 800 764.5 c 128,-1,86
 795 771 795 771 795 794 c 128,-1,87
 795 817 795 817 821 837 c 128,-1,88
 847 857 847 857 863 857 c 2,89,-1
 867 857 l 2,90,91
 909 857 909 857 932 787 c 0,92,93
 934 781 934 781 942.5 751 c 128,-1,94
 951 721 951 721 966.5 678 c 128,-1,95
 982 635 982 635 984 580 c 2,96,-1
 984 578 l 1,97,-1
 983 534 l 1,98,-1
 984 498 l 1,99,-1
 984 493 l 2,0,1
EndSplineSet
Validated: 33
EndChar

